<svg width="246" height="192" xmlns="http://www.w3.org/2000/svg"><g fill-rule="nonzero" fill="none"><path d="M207.01 45L200 34.913c4.367-5.086 10.917-7.887 17.615-7.912a23.76 23.76 0 0 1 11.45 2.852c3.98 2.165 7.008 5.275 8.935 8.85l-18.835-.929c-5.33-.292-10.404 2.518-12.156 7.226zm2.99 5c0 4.421 3.579 8 8 8 4.421 0 8-3.579 8-8 0-4.421-3.579-8-8-8-4.421 0-8 3.57-8 8zm28.534-8l-12.269.64c3.329 3.942 3.381 9.628.58 13.988L217 71.968c4.084.222 8.29-.686 12.102-2.928 9.432-5.517 13.252-17.084 9.432-27.04zm-31.789 11.384L198.55 37A22.388 22.388 0 0 0 195 49.134c0 11.071 7.977 20.241 18.404 21.866L219 59.857c-5.06.964-9.944-1.857-12.255-6.473zM78.857 148.192l.032-.062v.058l-.032.004zm48.503-4.05c-.577-4.698-1.92-8.911-4.625-12.688-5.26-7.3-13.396-10.62-22.313-9.525-14.68 1.772-21.517 14.035-21.544 26.434 3.647-7.087 10.69-14.456 21.477-16.17 0 0 11.503-1.412 11.803 9.917l-18.445 2.265c.178-4.07 1.174-6.532 2.568-8.863-7.415 4.69-11.522 11.821-10.198 21.645 1.023 7.612 7.155 14.806 14.918 16.792 9.16 2.324 20.314-1.714 24.907-5.367l-1.367-11.138c-7.742 7.068-27.613 9.988-29.442-3.703l32.943-4.045-.682-5.554zM230.601 140.115s-.217.238-.568.703a19.158 19.158 0 0 0-.7-3.766 25.727 25.727 0 0 0-1.753-4.458c-.459-.954-.99-1.86-1.607-2.718a18.895 18.895 0 0 0-.676-.941c-1.064-1.717-2.296-2.777-3.71-4.768a14.364 14.364 0 0 1-1.86-4.958 20.29 20.29 0 0 0-.895 3.254c-1.462-1.455-2.719-2.48-3.492-3.183-3.746-3.48-3.31-5.28-3.31-5.28s-7.045 7.76-4 15.84a15.577 15.577 0 0 0 5.244 6.902c2.948 2.407 6.138 4.29 7.818 9.13a15.667 15.667 0 0 0-5.897-6.138 13.91 13.91 0 0 1 1.124 5.542c0 7.27-5.994 13.17-13.364 13.159-1.003 0-1.994-.108-2.96-.334a12.58 12.58 0 0 1-3.312-1.108 13.421 13.421 0 0 1-3.963-3.612l.218.048c.555.19 1.111.333 1.691.44 2.26.477 4.628.203 6.719-.786 2.114-1.156 3.383-2.014 4.422-1.669 1.04.322 1.837-.655 1.112-1.668a5.569 5.569 0 0 0-5.341-2.027c-2.115.298-4.048 1.788-6.815.346a7.317 7.317 0 0 1-.52-.298c-.193-.107.592.155.411.036a14.117 14.117 0 0 1-1.74-1.025c-.036-.036.423.13.375.095a6.678 6.678 0 0 1-1.813-1.812 3.17 3.17 0 0 1-.12-2.872 2.476 2.476 0 0 1 1.123-1.037c.363.179.58.31.58.31s-.157-.298-.254-.453c.411.107 1.1.453 1.475.667.253.131.459.322.628.56 0 0 .12-.059.036-.321a1.668 1.668 0 0 0-.652-.787c.302.143.567.31.821.489a3.77 3.77 0 0 0 .314-1.669 2.231 2.231 0 0 0-.132-.93c-.097-.19.06-.262.23-.06-.025-.154-.085-.297-.146-.44 0-.012.097-.143.145-.19.12-.12.254-.227.41-.323a17.858 17.858 0 0 1 2.744-1.382c.773-.334 1.414-.584 1.547-.668.193-.119.374-.262.543-.417a3.586 3.586 0 0 0 1.233-2.11l.036-.333v-.18c-.109-.416-.834-.726-4.64-1.084a3.31 3.31 0 0 1-2.719-2.515c-.048.143-.108.286-.157.43.048-.144.097-.275.157-.418a9.516 9.516 0 0 1 3.722-4.589c.097-.083-.387.024-.29-.06.326-.154.652-.297.99-.417.17-.071-.724-.405-1.522-.321a4.152 4.152 0 0 0-1.413.333c.193-.155.749-.37.616-.37a9.268 9.268 0 0 0-2.888 1.074c0-.096.012-.18.06-.263a4.647 4.647 0 0 0-1.812 1.371c.012-.107.024-.214.024-.322a4.784 4.784 0 0 0-.882.823 12.251 12.251 0 0 0-6.61-.549 5.532 5.532 0 0 1-1.172-1.31c-.217-.227-.362-.466-.52-.728-.108-.19-.217-.405-.326-.62-.072-.023-.096.18-.133.132a7.937 7.937 0 0 1-.531-3.135 3.533 3.533 0 0 0-1.366 1.74c-.108.25-.193.393-.266.536.013-.19.073-.453.06-.429a3.37 3.37 0 0 0-.507.74 5.01 5.01 0 0 0-.278.702c0-.202.013-.357 0-.321a17.615 17.615 0 0 0-1.534 5.697 5.507 5.507 0 0 0-.06.99 14.107 14.107 0 0 0-1.535 2.061 28.66 28.66 0 0 0-3.238 7.82 18.931 18.931 0 0 1 1.728-2.992A27.32 27.32 0 0 0 173 147.076c.218-1.025.507-2.027.846-3.016a25.209 25.209 0 0 0 2.344 11.955 28.004 28.004 0 0 0 11.153 12.48 24.75 24.75 0 0 0 6.5 3.075c.303.107.617.214.931.322-.096-.036-.193-.084-.29-.12 2.731.81 5.583 1.228 8.434 1.228 10.114 0 13.45-3.802 13.751-4.172a5.02 5.02 0 0 0 1.196-1.585c.194-.083.387-.167.593-.25l.35-.167a21.111 21.111 0 0 0 4.265-2.634 10.171 10.171 0 0 0 3.976-5.733 3.518 3.518 0 0 0 .048-2.646c.109-.167.206-.334.326-.513A23.208 23.208 0 0 0 231 143.87v-.334c0-.87-.072-1.729-.23-2.575a8.705 8.705 0 0 0-.169-.846zM161.582 66.769c-14.413 0-21.39 18.95-12.49 30.069 3.09 3.844 7.502 6.402 12.49 6.402 3.074 0 5.954-.94 8.418-2.575A20.942 20.942 0 0 1 156.002 106c-.33 0-.678 0-1.008-.025C143.858 105.458 135 96.27 135 85c0-11.6 9.4-21 21.002-21h.067a20.997 20.997 0 0 1 13.923 5.343c-2.456-1.643-5.344-2.574-8.41-2.574zm8.608 33.744c-3.467 2.102-7.689 2.009-11.19-.494 4.764-1.744 8.283-7.796 8.283-15.03 0-7.21-3.493-13.26-8.258-15.031 3.544-2.486 7.732-2.58 11.267-.426 8.978 8.4 8.944 22.615-.102 30.981z" fill-opacity=".07" fill="#FFF"/><path d="M157.122 164.296c-.168.08-.837.546-1.29 1.298-.453.753-.579 1.926-.632 2.204-.054.276.623.333.746.262.123-.071.017-.141.307-1.458s1.078-1.834 1.099-1.911c.02-.078-.083-.465-.23-.396zm2.364 17.761c-1.417-.421-3.143-.155-3.534 1.385-.392 1.538.811 2.444 1.812 2.774 1.002.33 3.712.849 4.09-.716.376-1.564-.677-2.941-2.367-3.443zm-1.302 3.376c-.9-.24-1.366-1.157-1.23-1.745.136-.587.912-1.295 2.428-.93.688.165 1.79.979 1.572 2.106-.218 1.128-1.872.81-2.77.57zm6.784-25.008c-4.811-1.435-8.929.875-10.421 3.556-1.494 2.68-1.077 6.928-.937 7.012 2.13 1.278 5.784.696 5.929.548.144-.149.426-.26.012-2.078-.414-1.817 1.337-4.053 3.648-3.06 2.31.994 2.118 3.044 1.38 4.47-.739 1.425-2.295 2.465-4.015 3.877-1.719 1.413-2.379 4.108-2.342 4.596.037.489 3.51 1.524 4.348 1.603.837.078.338.694 2.292-2.612 1.954-3.306 5.038-3.479 6.501-8.393 1.464-4.915-1.584-8.084-6.395-9.519zm5.187 9.964c-.086-.147-.476-2.291-.671-2.344-.195-.052-.478.143-.435.217.043.074.86 2.499.827 2.698-.033.2-.496.99-.5.928-.004-.064-.615-2.788-.732-2.82-.117-.03-.464.168-.402.33.061.162.837 2.972.837 2.972s-.615.813-.664.758c-.048-.054-.652-2.88-.73-2.9-.078-.022-.349.28-.336.388.014.108.788 2.77.746 2.926-.042.155-.84.711-.84.711s-.426-2.715-.523-2.74c-.098-.027-.438.381-.438.381s.572 2.713.557 2.771c-.016.059-.653.638-.653.638s-.316-2.417-.374-2.432c-.06-.016-.432.28-.413.368.018.088.417 2.276.39 2.373-.025.097-.683 1.065-.726.99-.043-.073-.362-2.636-.436-2.676-.072-.04-.5.303-.438.465.061.162.515 2.615.489 2.712-.026.097-.519.839-.572.803-.053-.035-.511-2.862-.511-2.862s-.456.294-.448.42c.009.128.545 2.894.545 2.894l-.651.866s-.439-3.135-.497-3.151c-.059-.016-.423.407-.415.534.007.128.668 3.134.593 3.26-.076.125-.521.068-.598-.035-.077-.104-.65-2.818-.65-2.818s-.396.31-.33.453c.067.143.584 2.28.486 2.253-.098-.026-.774-.082-.743-.199.032-.116-.137-1.285-.23-1.331-.092-.047-.422.012-.434.133-.011.123.336 1.09.2 1.053-.137-.036-.99-.37-1.014-.438-.024-.069.602-2.17 1.65-3.262 1.046-1.093 3.95-3.02 4.58-4.746.63-1.724.458-3.269-1.069-4.843-1.527-1.575-4.313-1.26-5.516.727-1.203 1.988-.232 3.914-.274 4.07-.041.154-2.977.241-4.201-.585 0 0-.39-2.769.47-5.035.859-2.268 3.715-3.938 5.565-4.274 1.85-.337 5.726.368 7.559 1.734 1.833 1.365 2.32 3.535 2.365 4.463 0 0-.42-.466-.483-.463-.064.004-.275.322-.178.431.096.11.656 1.383.662 1.593.007.21-.311 1.789-.397 1.64l.001.001zm-11.72 12.697c-.712-.003-1.014.81-1.019 1.143-.005.331.48.399.593.367.113-.032.026-.097.066-.482.04-.385.605-.692.698-.729.095-.037-.112-.297-.338-.299z" fill="#12E4FF"/><path d="M94.333 95.608c-.105.114-.477.684-.592 1.407-.115.723.154 1.669.2 1.9.044.23.585.063.658-.03.073-.094-.032-.115-.218-1.223-.187-1.108.26-1.754.252-1.82-.008-.067-.209-.333-.3-.234zm7.372 12.989c-1.226.116-2.477.86-2.299 2.173.178 1.312 1.39 1.636 2.267 1.578.877-.057 3.134-.503 2.937-1.83-.197-1.326-1.442-2.062-2.904-1.922zm.048 3.015c-.77.095-1.417-.467-1.495-.964-.079-.497.3-1.286 1.585-1.478.584-.087 1.69.198 1.873 1.138.184.94-1.194 1.21-1.964 1.304zm-2.565-21.445c-4.167.394-6.628 3.464-6.944 6.002-.318 2.537 1.331 5.69 1.465 5.711 2.045.323 4.688-1.268 4.753-1.427.066-.16.248-.334-.64-1.61-.887-1.275-.231-3.55 1.865-3.504 2.096.047 2.587 1.692 2.461 3.024-.125 1.332-1.003 2.622-1.891 4.25-.888 1.628-.556 3.917-.375 4.283.181.366 3.188.082 3.86-.119.672-.2.478.43.956-2.734.478-3.165 2.807-4.261 2.404-8.517-.403-4.255-3.748-5.752-7.914-5.359zm7.12 6.081c-.113-.087-1.084-1.622-1.251-1.602-.168.02-.325.26-.269.303.056.044 1.445 1.663 1.482 1.827.037.164-.074.92-.097.873-.023-.048-1.345-1.962-1.446-1.95-.1.013-.306.274-.208.38.098.107 1.575 2.036 1.575 2.036s-.222.82-.276.793c-.054-.027-1.404-2.022-1.47-2.014-.067.008-.182.326-.138.405.044.08 1.473 1.896 1.49 2.029.016.133-.428.812-.428.812s-1.176-1.966-1.26-1.955c-.084.01-.218.432-.218.432s1.289 1.918 1.295 1.967c.006.05-.306.697-.306.697s-.998-1.769-1.048-1.763c-.05.006-.246.351-.205.413.042.063 1.034 1.63 1.044 1.713.01.083-.196 1.036-.253.992-.056-.043-1.103-1.924-1.172-1.932-.069-.01-.292.39-.194.496.098.106 1.214 1.86 1.225 1.943.01.083-.139.81-.191.8-.052-.01-1.29-2.053-1.29-2.053s-.26.37-.213.465c.046.095 1.324 2.066 1.324 2.066l-.233.872s-1.318-2.286-1.368-2.28c-.05.007-.2.447-.154.543.046.096 1.495 2.213 1.476 2.334-.02.12-.381.216-.473.16-.092-.057-1.381-1.975-1.381-1.975s-.21.363-.114.453c.096.09 1.162 1.579 1.079 1.59-.084.01-.624.177-.636.077-.013-.1-.508-.95-.594-.957-.086-.007-.323.142-.294.24.03.098.6.736.483.75-.117.015-.88.024-.92-.022-.04-.045-.212-1.865.256-3.036.468-1.171 2.11-3.568 2.059-5.098-.052-1.53-.668-2.669-2.339-3.409-1.672-.74-3.727.373-4.036 2.285-.31 1.911 1.043 3.097 1.06 3.23.015.133-2.226 1.117-3.43.86 0 0-1.166-2.018-1.21-4.038-.044-2.02 1.643-4.203 2.967-5.04 1.324-.839 4.54-1.504 6.383-1.02 1.843.482 2.898 2.007 3.222 2.71 0 0-.47-.23-.518-.207-.049.023-.112.335-.003.389.108.054.939.863 1.01 1.024.07.16.317 1.48.204 1.392h.001zm-5.094 13.472c-.551.22-.53.943-.43 1.201.099.258.495.159.572.099.078-.06-.01-.084-.099-.394-.089-.31.251-.723.312-.78.061-.058-.18-.195-.355-.126z" fill="#0AD895" opacity=".8"/><path d="M220.77 161.212c-.144.151-.657.907-.829 1.875-.171.97.168 2.246.224 2.558.055.31.785.098.885-.026.1-.123-.04-.154-.264-1.647-.225-1.493.391-2.35.382-2.44-.01-.089-.273-.451-.399-.32zm9.599 17.62c-1.65.129-3.348 1.1-3.14 2.866.208 1.766 1.83 2.23 3.008 2.174 1.18-.057 4.221-.603 3.988-2.39-.234-1.786-1.888-2.804-3.856-2.65zm-.007 4.053c-1.037.109-1.892-.662-1.986-1.33-.094-.67.434-1.722 2.165-1.949.786-.103 2.265.306 2.489 1.572.224 1.267-1.633 1.598-2.669 1.707zm-2.943-28.868c-5.607.43-8.984 4.498-9.469 7.9-.486 3.4 1.655 7.674 1.835 7.706 2.74.482 6.326-1.594 6.418-1.806.092-.214.341-.443-.821-2.177s-.229-4.775 2.586-4.664c2.814.112 3.436 2.333 3.236 4.12-.2 1.786-1.41 3.498-2.64 5.664-1.231 2.167-.84 5.25-.604 5.746.234.495 4.28.184 5.187-.07.908-.254.633.59 1.348-3.65.717-4.24 3.872-5.66 3.43-11.385-.442-5.726-4.9-7.815-10.506-7.384zm9.421 8.335c-.15-.12-1.417-2.204-1.642-2.18-.225.023-.443.34-.368.4.074.06 1.902 2.267 1.947 2.489.046.221-.12 1.235-.15 1.17-.03-.065-1.761-2.667-1.896-2.653-.136.014-.418.36-.29.506.13.145 2.07 2.77 2.07 2.77s-.318 1.098-.39 1.06c-.073-.038-1.839-2.75-1.929-2.74-.09.01-.251.434-.194.541.057.108 1.935 2.581 1.954 2.76.019.18-.594 1.081-.594 1.081s-1.534-2.668-1.646-2.656c-.113.012-.304.575-.304.575s1.687 2.607 1.694 2.674c.007.067-.427.928-.427.928s-1.3-2.4-1.368-2.392c-.067.007-.338.465-.283.55.054.085 1.35 2.213 1.36 2.324.013.112-.287 1.388-.362 1.328-.074-.06-1.436-2.61-1.529-2.623-.092-.014-.401.517-.272.662.13.145 1.588 2.527 1.6 2.639.011.111-.206 1.084-.276 1.07-.07-.016-1.683-2.789-1.683-2.789s-.359.49-.299.62 1.73 2.806 1.73 2.806l-.333 1.167s-1.716-3.102-1.784-3.095c-.067.007-.279.595-.22.726.06.13 1.957 3.008 1.929 3.17-.029.16-.517.28-.64.202-.122-.077-1.809-2.685-1.809-2.685s-.29.483-.163.607c.127.122 1.524 2.148 1.412 2.16-.113.012-.843.224-.857.09-.014-.134-.66-1.288-.775-1.3-.115-.011-.436.183-.4.314.037.133.789 1.004.632 1.02-.158.017-1.184.012-1.236-.05-.053-.063-.242-2.51.415-4.073.656-1.563 2.918-4.743 2.885-6.8-.033-2.056-.834-3.601-3.062-4.634-2.228-1.034-5.015.414-5.475 2.974-.46 2.56 1.328 4.185 1.347 4.364.019.179-3.015 1.448-4.627 1.075 0 0-1.519-2.738-1.53-5.453-.012-2.715 2.305-5.607 4.103-6.702 1.799-1.094 6.134-1.912 8.599-1.22s3.845 2.764 4.264 3.716c0 0-.626-.318-.691-.289-.065.03-.158.447-.013.522.144.075 1.241 1.182 1.332 1.4.091.216.392 1.994.243 1.874h.001zm-7.158 17.978c-.745.282-.734 1.254-.606 1.603.127.35.662.225.767.146.106-.079-.012-.112-.124-.53-.112-.418.354-.966.437-1.042.084-.076-.237-.266-.474-.177zM128.09 41.092c-.206.137-1.004.876-1.462 1.954-.459 1.078-.407 2.65-.426 3.026-.019.376.885.325 1.035.208.149-.116-.005-.19.134-1.982.138-1.792 1.083-2.62 1.096-2.727.013-.106-.195-.598-.376-.48v.001zm6.418 23.013c-1.95-.293-4.179.378-4.41 2.484-.232 2.104 1.525 3.076 2.908 3.327 1.383.25 5.058.431 5.266-1.704.207-2.135-1.44-3.759-3.764-4.108zm-1.094 4.7c-1.232-.152-2.018-1.275-1.947-2.076.07-.801.964-1.88 3.033-1.68.94.09 2.547.96 2.467 2.49-.079 1.53-2.322 1.416-3.553 1.265zm4.318-34.28c-6.62-1-11.627 2.813-13.1 6.629-1.475 3.816-.136 9.347.064 9.432 3.05 1.293 7.766-.154 7.93-.376.163-.223.514-.423-.37-2.746s1.014-5.6 4.249-4.717c3.235.883 3.361 3.626 2.65 5.645-.71 2.02-2.571 3.682-4.58 5.864-2.008 2.185-2.379 5.866-2.239 6.504.14.638 4.917 1.36 6.037 1.31 1.121-.053.576.853 2.542-3.875 1.967-4.727 6.006-5.528 7.027-12.288 1.021-6.762-3.592-10.38-10.21-11.381zm8.697 12.194c-.14-.179-1.053-2.937-1.32-2.97-.268-.033-.605.277-.535.366.07.09 1.6 3.14 1.593 3.41-.006.269-.471 1.4-.488 1.317-.017-.083-1.329-3.566-1.49-3.586-.16-.02-.581.307-.47.51.111.203 1.657 3.768 1.657 3.768s-.662 1.188-.735 1.124c-.074-.062-1.397-3.681-1.504-3.694-.107-.013-.407.435-.37.576.037.14 1.554 3.512 1.528 3.724-.027.213-.978 1.096-.978 1.096s-1.066-3.507-1.199-3.523c-.134-.017-.507.586-.507.586s1.259 3.476 1.249 3.555c-.01.08-.743.963-.743.963s-.866-3.132-.946-3.142c-.08-.01-.518.45-.477.563.04.113.973 2.928.957 3.06-.017.134-.706 1.534-.776 1.444-.07-.09-.968-3.414-1.072-3.453-.103-.04-.604.493-.493.695.112.203 1.165 3.357 1.149 3.49-.017.133-.529 1.203-.606 1.167-.077-.037-1.206-3.685-1.206-3.685s-.547.473-.513.639c.035.166 1.256 3.719 1.256 3.719l-.699 1.264s-1.16-4.058-1.24-4.068c-.08-.01-.484.615-.45.783.034.167 1.464 4.013 1.388 4.193-.076.18-.675.187-.796.065-.12-.123-1.38-3.6-1.38-3.6s-.466.483-.352.66c.115.176 1.194 2.9 1.06 2.884-.134-.016-1.038.035-1.018-.125.02-.16-.42-1.67-.55-1.715-.131-.044-.556.095-.55.257.008.164.647 1.376.46 1.353-.187-.023-1.376-.304-1.42-.39-.044-.087.392-2.977 1.572-4.614 1.18-1.637 4.657-4.721 5.169-7.115.511-2.395-.003-4.402-2.311-6.197-2.308-1.796-5.93-.863-7.149 1.984-1.22 2.847.42 5.21.394 5.423-.026.213-3.886.872-5.655.008 0 0-1.03-3.583-.315-6.735.713-3.154 4.176-5.888 6.555-6.676 2.38-.788 7.629-.576 10.303.887 2.674 1.463 3.72 4.237 3.951 5.453 0 0-.64-.537-.724-.52-.084.016-.303.475-.155.601.147.126 1.123 1.704 1.17 1.98.048.276-.08 2.42-.22 2.24l.001.001zM133.31 65.66c-.94.127-1.187 1.258-1.132 1.697.054.439.707.438.85.375.144-.064.017-.133-.001-.649-.019-.515.67-1.025.786-1.092.118-.066-.204-.372-.503-.331z" fill="#8D54F0"/><path d="M141.58 116.881c-.172.118-.831.75-1.2 1.663-.37.912-.303 2.231-.313 2.547-.01.316.747.26.871.16s-.006-.16.084-1.667c.09-1.507.871-2.217.88-2.306.01-.09-.172-.499-.322-.397zm5.726 19.232c-1.641-.218-3.503.378-3.667 2.15-.164 1.77 1.326 2.561 2.49 2.751 1.166.19 4.255.289 4.398-1.508.143-1.796-1.264-3.135-3.22-3.394h-.001zm-.85 3.962c-1.036-.109-1.713-1.04-1.665-1.715.047-.673.782-1.592 2.522-1.455.79.062 2.153.77 2.108 2.055-.044 1.286-1.929 1.224-2.965 1.115zm3.124-28.85c-5.573-.743-9.723 2.533-10.904 5.759-1.183 3.226.023 7.852.192 7.92 2.58 1.04 6.52-.243 6.654-.432.134-.19.425-.363-.351-2.3-.776-1.938.77-4.718 3.499-4.024 2.73.694 2.876 2.996 2.309 4.701-.567 1.707-2.106 3.13-3.76 4.992-1.655 1.864-1.913 4.96-1.786 5.495.127.533 4.149 1.07 5.09 1.01.94-.06.495.709 2.077-3.29 1.582-3.999 4.963-4.73 5.72-10.423.759-5.692-3.168-8.663-8.74-9.407zm7.482 10.113c-.12-.148-.928-2.451-1.153-2.475-.225-.024-.503.241-.443.316.06.074 1.39 2.613 1.388 2.84-.001.225-.375 1.182-.39 1.113-.016-.07-1.169-2.975-1.304-2.99-.135-.014-.484.266-.388.435.097.169 1.447 3.14 1.447 3.14s-.538 1.007-.601.955c-.063-.051-1.227-3.071-1.317-3.08-.09-.01-.336.371-.302.489.033.116 1.356 2.926 1.337 3.105-.019.18-.805.934-.805.934s-.946-2.929-1.058-2.94c-.113-.012-.417.5-.417.5s1.108 2.9 1.1 2.966c-.007.068-.61.82-.61.82s-.772-2.617-.84-2.625c-.068-.007-.428.385-.392.48.036.094.86 2.444.848 2.556-.011.112-.57 1.298-.63 1.224-.06-.075-.863-2.853-.95-2.885-.088-.032-.5.423-.404.592.096.168 1.027 2.801 1.015 2.913-.012.112-.426 1.019-.491.99-.065-.03-1.067-3.078-1.067-3.078s-.453.405-.421.544c.031.14 1.109 3.105 1.109 3.105l-.569 1.072s-1.034-3.391-1.101-3.398c-.068-.007-.397.524-.366.664.031.14 1.288 3.349 1.227 3.501-.061.152-.564.167-.668.066-.103-.102-1.211-3.003-1.211-3.003s-.385.412-.286.56c.099.145 1.045 2.418.932 2.406-.113-.012-.87.044-.856-.09.014-.134-.378-1.397-.488-1.432-.11-.036-.465.087-.457.224.009.137.563 1.146.406 1.13-.158-.017-1.16-.236-1.198-.308-.039-.072.285-2.506 1.252-3.897.967-1.393 3.841-4.033 4.236-6.051.395-2.019-.067-3.697-2.031-5.17-1.965-1.475-4.992-.638-5.975 1.77-.982 2.41.43 4.37.41 4.549-.018.179-3.25.79-4.748.09 0 0-.917-2.994-.363-5.652.553-2.659 3.42-5.006 5.407-5.702 1.987-.697 6.397-.596 8.664.594 2.267 1.189 3.187 3.503 3.398 4.522 0 0-.546-.442-.615-.427-.07.015-.248.404-.122.507.126.104.969 1.415 1.012 1.646.044.231-.031 2.033-.152 1.885h.001zm-10.739 16.097c-.788.12-.979 1.074-.926 1.442.052.368.6.357.72.302.12-.055.011-.112-.011-.545-.023-.432.547-.87.644-.928.098-.057-.176-.31-.427-.27z" fill="#FF9500"/><path d="M182.636 56.479c-.17.154-.79.944-1.052 1.993-.263 1.05.012 2.476.049 2.822.037.345.853.168.973.04s-.032-.172-.164-1.827.61-2.547.606-2.646c-.003-.099-.264-.517-.412-.383zm9.176 20.06c-1.82.015-3.756.95-3.663 2.903.093 1.953 1.836 2.585 3.133 2.614 1.298.029 4.676-.337 4.557-2.314-.12-1.977-1.856-3.22-4.026-3.203zm-.318 4.444c-1.145.04-2.024-.87-2.076-1.611-.051-.741.608-1.854 2.524-1.97.87-.054 2.46.508 2.609 1.914.15 1.407-1.913 1.628-3.057 1.668zm-1.014-31.886c-6.181.043-10.198 4.245-10.99 7.938-.794 3.693 1.227 8.544 1.421 8.593 2.968.738 7.06-1.263 7.178-1.489.117-.227.408-.46-.734-2.45-1.142-1.991.116-5.254 3.194-4.917 3.078.338 3.59 2.822 3.233 4.766-.356 1.944-1.814 3.73-3.33 6.01-1.516 2.282-1.323 5.693-1.103 6.255.219.562 4.68.53 5.695.322 1.014-.21.648.695 1.758-3.9 1.111-4.596 4.68-5.91 4.634-12.223-.046-6.314-4.775-8.947-10.956-8.905zm9.694 9.865c-.155-.143-1.385-2.527-1.634-2.518-.249.008-.512.34-.435.411.078.072 1.913 2.633 1.946 2.88.033.245-.228 1.344-.255 1.271-.027-.073-1.727-3.06-1.877-3.055-.149.005-.486.364-.355.532.13.17 2.056 3.198 2.056 3.198s-.432 1.179-.509 1.131c-.076-.046-1.805-3.155-1.904-3.152-.1.004-.31.456-.255.579.054.122 1.924 2.979 1.931 3.176.007.198-.733 1.14-.733 1.14s-1.478-3.043-1.602-3.04c-.125.005-.378.609-.378.609s1.65 2.988 1.652 3.062c.003.074-.539.985-.539.985s-1.241-2.731-1.316-2.728c-.075.002-.407.484-.353.581.053.097 1.31 2.53 1.314 2.654.005.123-.422 1.5-.499 1.428-.077-.071-1.375-2.974-1.476-2.994-.1-.023-.48.536-.349.705.13.169 1.547 2.893 1.551 3.016.005.124-.308 1.175-.383 1.152-.076-.022-1.633-3.186-1.633-3.186s-.43.51-.375.657c.056.146 1.683 3.21 1.683 3.21l-.456 1.254s-1.644-3.534-1.718-3.53c-.075.002-.352.63-.297.778.055.147 1.915 3.449 1.872 3.624-.044.175-.59.268-.717.174-.128-.095-1.779-3.084-1.779-3.084s-.355.508-.225.653c.13.144 1.507 2.473 1.382 2.477-.124.004-.94.181-.946.033-.005-.148-.624-1.463-.75-1.485-.125-.021-.493.167-.463.314.03.149.788 1.162.614 1.168-.174.006-1.299-.079-1.35-.151-.054-.072-.073-2.772.766-4.435.84-1.664 3.565-4.978 3.686-7.236s-.638-4.014-3.002-5.318c-2.365-1.304-5.533.07-6.234 2.843-.7 2.773 1.136 4.69 1.143 4.888.007.198-3.418 1.357-5.157.825 0 0-1.455-3.12-1.26-6.098.196-2.979 2.958-5.973 5.015-7.035 2.056-1.063 6.874-1.627 9.524-.68 2.65.949 4.005 3.328 4.391 4.404 0 0-.662-.398-.736-.37-.073.027-.207.477-.054.57.153.094 1.27 1.392 1.354 1.638.083.244.277 2.218.122 2.075h.002zm-9.23 19.168c-.838.252-.9 1.319-.787 1.712.113.392.708.297.83.218.122-.078-.004-.124-.096-.591-.09-.467.463-1.032.56-1.11.098-.076-.24-.31-.506-.23z" fill="#5543FF"/><path d="M36.565 172.313c-.072.066-.337.403-.449.85-.112.449.005 1.058.02 1.206.017.147.365.072.417.017.05-.055-.014-.074-.07-.78-.057-.707.26-1.088.258-1.13-.001-.042-.113-.22-.176-.163zm3.919 8.566c-.777.006-1.604.405-1.564 1.24.04.833.783 1.103 1.337 1.116.554.012 1.997-.144 1.946-.989-.05-.844-.792-1.375-1.72-1.367zm-.136 1.898c-.49.017-.865-.372-.887-.689-.022-.316.26-.791 1.078-.841.371-.023 1.05.217 1.114.818.064.6-.817.694-1.305.712zm-.433-13.616c-2.64.018-4.355 1.812-4.693 3.39-.34 1.576.524 3.648.607 3.668 1.267.316 3.015-.539 3.065-.635.05-.097.174-.197-.314-1.047-.487-.85.05-2.243 1.364-2.099 1.315.144 1.533 1.205 1.38 2.035-.151.83-.774 1.593-1.421 2.566-.648.975-.565 2.431-.471 2.671.093.24 1.998.227 2.432.138.433-.09.276.297.75-1.666.475-1.962 1.999-2.523 1.98-5.219-.02-2.696-2.04-3.82-4.68-3.802zm4.14 4.212c-.067-.061-.592-1.079-.699-1.075-.106.004-.218.145-.185.175.033.031.816 1.125.83 1.23.015.105-.097.574-.108.543-.012-.031-.738-1.307-.802-1.305-.063.003-.207.156-.151.228.056.072.878 1.365.878 1.365s-.185.504-.218.483c-.032-.02-.77-1.347-.813-1.346-.042.002-.132.195-.109.247.024.052.822 1.272.825 1.357.003.084-.313.487-.313.487s-.631-1.3-.684-1.298c-.054.002-.162.26-.162.26s.705 1.275.706 1.307c.001.032-.23.42-.23.42s-.53-1.166-.562-1.165c-.032.001-.174.207-.151.249.023.041.56 1.08.561 1.133.002.053-.18.64-.213.61-.033-.03-.587-1.27-.63-1.279-.043-.01-.205.23-.15.301.057.072.661 1.236.663 1.288.002.053-.131.502-.164.492-.032-.01-.697-1.36-.697-1.36s-.184.217-.16.28c.024.063.719 1.37.719 1.37l-.195.536s-.702-1.509-.734-1.507c-.032 0-.15.27-.126.332.023.063.817 1.473.799 1.548-.019.074-.252.114-.306.074-.055-.04-.76-1.317-.76-1.317s-.152.217-.096.279c.055.061.644 1.056.59 1.058-.053.001-.401.077-.404.014-.002-.064-.266-.625-.32-.634-.054-.01-.21.071-.198.134.013.063.337.496.263.498-.075.003-.555-.033-.577-.064-.023-.031-.031-1.184.327-1.894.359-.71 1.522-2.126 1.574-3.09.052-.964-.273-1.714-1.282-2.27-1.01-.558-2.362.03-2.662 1.213-.299 1.184.485 2.003.488 2.088.003.084-1.46.58-2.202.352 0 0-.621-1.332-.538-2.604.084-1.272 1.263-2.55 2.142-3.004.878-.454 2.935-.695 4.066-.29 1.132.405 1.71 1.42 1.876 1.88 0 0-.283-.17-.315-.158-.031.012-.088.204-.023.244.065.04.543.594.578.699.036.104.118.947.052.886h.001zm-3.942 8.185c-.358.108-.385.563-.336.73.048.168.302.128.354.094.052-.033-.002-.053-.04-.252-.04-.2.197-.44.238-.474.042-.033-.102-.132-.216-.098z" fill-opacity=".4" fill="#5543FF"/><path d="M239.257 123.118l-.405 3.861a.62.62 0 0 1-.24.43.62.62 0 0 1-.472.146l-3.861-.406a.62.62 0 0 1-.43-.24.62.62 0 0 1-.146-.471l.406-3.861a.62.62 0 0 1 .24-.43.62.62 0 0 1 .471-.146l3.861.405a.62.62 0 0 1 .43.24.62.62 0 0 1 .146.472zm6.1-9.12c-.062.58-.202 1.113-.42 1.6-.22.486-.451.876-.693 1.17-.243.295-.571.583-.986.865a8.224 8.224 0 0 1-.999.603c-.25.12-.598.276-1.041.468-.466.2-.87.51-1.212.93-.343.42-.528.763-.556 1.031a.847.847 0 0 1-.248.503c-.146.153-.305.22-.477.202l-3.861-.406c-.161-.017-.287-.13-.38-.34a1.217 1.217 0 0 1-.105-.622l.076-.724c.094-.89.53-1.693 1.31-2.408.781-.715 1.609-1.216 2.485-1.504.663-.223 1.146-.476 1.446-.759.301-.283.478-.676.531-1.18.047-.45-.16-.874-.623-1.27-.463-.395-1.021-.627-1.675-.696-.698-.073-1.293.021-1.787.284-.404.229-1.042.785-1.916 1.67-.158.156-.333.225-.526.204a.774.774 0 0 1-.389-.17l-2.427-2.29a.638.638 0 0 1-.071-.87c2.016-2.672 4.654-3.837 7.915-3.494.858.09 1.704.347 2.538.771.834.424 1.57.951 2.209 1.582a6.71 6.71 0 0 1 1.49 2.23c.354.857.485 1.73.391 2.62z" fill="#0AD895"/><path d="M111.498 185.82l.674 3.824a.62.62 0 0 1-.113.48.62.62 0 0 1-.412.27l-3.824.674a.62.62 0 0 1-.48-.113.62.62 0 0 1-.27-.412l-.674-3.824a.62.62 0 0 1 .113-.48.62.62 0 0 1 .412-.27l3.824-.674a.62.62 0 0 1 .48.113.62.62 0 0 1 .27.412zm3.349-10.447c.1.573.113 1.124.036 1.653-.076.528-.19.967-.342 1.317-.152.35-.389.717-.71 1.102-.32.385-.585.67-.793.855-.209.184-.5.43-.872.737-.393.32-.696.73-.91 1.228-.213.497-.296.879-.25 1.144a.847.847 0 0 1-.099.552c-.098.187-.233.296-.403.326l-3.823.674c-.16.028-.312-.046-.459-.223a1.217 1.217 0 0 1-.272-.568l-.127-.717c-.155-.882.044-1.774.596-2.676.553-.903 1.21-1.613 1.974-2.13.576-.398.97-.774 1.18-1.129.212-.355.274-.782.186-1.28-.08-.447-.395-.796-.95-1.05-.553-.252-1.154-.321-1.802-.207-.69.122-1.237.377-1.639.765-.325.332-.785 1.042-1.382 2.133-.108.195-.257.309-.449.342a.774.774 0 0 1-.42-.057l-2.964-1.53a.638.638 0 0 1-.308-.816c1.2-3.126 3.416-4.973 6.645-5.543a7.246 7.246 0 0 1 2.652.042 8.772 8.772 0 0 1 2.56.912 6.71 6.71 0 0 1 2.046 1.734 5.299 5.299 0 0 1 1.099 2.41z" fill="#8D54F0"/><path d="M47.359 102.25l.45 2.557a.415.415 0 0 1-.075.321c-.07.1-.162.16-.275.18l-2.558.451a.415.415 0 0 1-.32-.075.415.415 0 0 1-.181-.276l-.451-2.557a.415.415 0 0 1 .075-.321c.07-.1.162-.16.276-.18l2.557-.451c.114-.02.221.005.321.075.1.07.16.162.18.276zm2.24-6.988c.067.384.076.752.024 1.106a3.497 3.497 0 0 1-.229.88c-.102.235-.26.48-.474.738a5.5 5.5 0 0 1-.531.572c-.14.123-.334.287-.584.493a2.121 2.121 0 0 0-.607.82c-.143.334-.199.589-.167.766a.566.566 0 0 1-.067.37c-.066.124-.156.197-.27.217l-2.557.451c-.107.019-.209-.03-.306-.15a.814.814 0 0 1-.183-.379l-.084-.48c-.104-.59.029-1.186.398-1.79.37-.603.81-1.078 1.32-1.424.385-.266.649-.517.79-.755.141-.237.183-.523.124-.857-.053-.298-.264-.532-.635-.7a2.002 2.002 0 0 0-1.206-.14c-.461.082-.827.252-1.096.512-.217.222-.525.697-.924 1.427a.42.42 0 0 1-.3.228.517.517 0 0 1-.282-.038l-1.982-1.024a.427.427 0 0 1-.206-.546c.803-2.09 2.285-3.325 4.444-3.706.569-.1 1.16-.09 1.774.028a5.867 5.867 0 0 1 1.712.61c.527.288.983.674 1.369 1.16.386.484.63 1.022.735 1.611z" fill-opacity=".25" fill="#8D54F0" opacity=".4"/><path d="M239.257 77.418l-.405 3.861a.62.62 0 0 1-.24.43.62.62 0 0 1-.472.146l-3.861-.406a.62.62 0 0 1-.43-.24.62.62 0 0 1-.146-.471l.406-3.861a.62.62 0 0 1 .24-.43.62.62 0 0 1 .471-.146l3.861.406a.62.62 0 0 1 .43.24.62.62 0 0 1 .146.47zm6.1-9.12c-.062.58-.202 1.113-.42 1.6-.22.486-.451.876-.693 1.17-.243.295-.571.583-.986.865a8.224 8.224 0 0 1-.999.603c-.25.12-.598.276-1.041.468-.466.2-.87.51-1.212.93-.343.42-.528.763-.556 1.031a.847.847 0 0 1-.248.503c-.146.153-.305.22-.477.202l-3.861-.406c-.161-.017-.287-.13-.38-.34a1.217 1.217 0 0 1-.105-.622l.076-.724c.094-.89.53-1.693 1.31-2.408.781-.715 1.609-1.216 2.485-1.504.663-.223 1.146-.476 1.446-.759.301-.283.478-.676.531-1.18.047-.45-.16-.874-.623-1.27-.463-.395-1.021-.627-1.675-.696-.698-.073-1.293.021-1.787.284-.404.229-1.042.785-1.916 1.67-.158.156-.333.225-.526.204a.774.774 0 0 1-.389-.17l-2.427-2.29a.638.638 0 0 1-.071-.87c2.016-2.672 4.654-3.837 7.915-3.494.858.09 1.704.347 2.538.771.834.424 1.57.951 2.209 1.582a6.71 6.71 0 0 1 1.49 2.231c.354.856.485 1.73.391 2.62z" fill="#FF9500"/><path d="M35.488 144.159l-.217 2.066a.332.332 0 0 1-.128.23.332.332 0 0 1-.252.078l-2.066-.217a.332.332 0 0 1-.23-.128.332.332 0 0 1-.079-.252l.218-2.066a.332.332 0 0 1 .128-.23.332.332 0 0 1 .252-.079l2.066.218c.092.01.169.052.23.128.062.076.088.16.078.252zm3.264-4.88c-.033.31-.108.596-.225.856-.118.26-.241.47-.37.627a2.49 2.49 0 0 1-.528.463 4.4 4.4 0 0 1-.534.322c-.135.064-.32.148-.558.25-.249.108-.465.274-.648.498-.183.224-.282.408-.298.552a.453.453 0 0 1-.132.269c-.078.082-.164.118-.255.108l-2.066-.217c-.087-.01-.154-.07-.203-.183a.651.651 0 0 1-.057-.332l.041-.387c.05-.477.284-.906.701-1.289.418-.382.86-.65 1.33-.804.354-.12.612-.255.773-.407.161-.15.256-.361.284-.631.026-.241-.086-.468-.333-.68a1.601 1.601 0 0 0-.897-.372c-.373-.04-.691.011-.956.152-.216.122-.557.42-1.025.893a.336.336 0 0 1-.281.11.414.414 0 0 1-.208-.092l-1.299-1.224a.341.341 0 0 1-.038-.465c1.079-1.43 2.49-2.054 4.235-1.87.46.048.912.185 1.358.412.446.227.84.509 1.182.847.342.337.607.735.797 1.193.19.458.26.925.21 1.402z" fill-opacity=".2" fill="#FF9500"/><path d="M67.257 164.118l-.405 3.861a.62.62 0 0 1-.24.43.62.62 0 0 1-.472.146l-3.861-.406a.62.62 0 0 1-.43-.24.62.62 0 0 1-.146-.471l.406-3.861a.62.62 0 0 1 .24-.43.62.62 0 0 1 .471-.146l3.861.405a.62.62 0 0 1 .43.24.62.62 0 0 1 .146.472zm6.1-9.12c-.062.58-.202 1.113-.42 1.6-.22.486-.451.876-.693 1.17-.243.295-.571.583-.986.865a8.224 8.224 0 0 1-.999.603c-.25.12-.598.276-1.041.468-.466.2-.87.51-1.212.93-.343.42-.528.763-.556 1.031a.847.847 0 0 1-.248.503c-.146.153-.305.22-.477.202l-3.861-.406c-.161-.017-.287-.13-.38-.34a1.217 1.217 0 0 1-.105-.622l.076-.724c.094-.89.53-1.693 1.31-2.408.781-.715 1.609-1.216 2.485-1.504.663-.223 1.146-.476 1.446-.759.301-.283.478-.676.531-1.18.047-.45-.16-.874-.623-1.27-.463-.395-1.021-.627-1.675-.696-.698-.073-1.293.021-1.787.284-.404.229-1.042.785-1.916 1.67-.158.156-.333.225-.526.204a.774.774 0 0 1-.389-.17l-2.427-2.29a.638.638 0 0 1-.071-.87c2.016-2.672 4.654-3.837 7.915-3.494.858.09 1.704.347 2.538.771.834.424 1.57.951 2.209 1.582a6.71 6.71 0 0 1 1.49 2.23c.354.857.485 1.73.391 2.62z" fill-opacity=".8" fill="#12E4FF" opacity=".7"/><path d="M202.498 15.82l.674 3.824a.62.62 0 0 1-.113.48.62.62 0 0 1-.412.27l-3.824.674a.62.62 0 0 1-.48-.113.62.62 0 0 1-.27-.412l-.674-3.824a.62.62 0 0 1 .113-.48.62.62 0 0 1 .412-.27l3.824-.674a.62.62 0 0 1 .48.113.62.62 0 0 1 .27.412zm3.349-10.447c.1.573.113 1.124.036 1.653-.076.528-.19.967-.342 1.317-.152.35-.389.717-.71 1.102-.32.385-.585.67-.793.855-.209.184-.5.43-.872.737-.393.32-.696.73-.91 1.228-.213.497-.296.879-.25 1.144a.847.847 0 0 1-.099.552c-.098.187-.233.296-.403.326l-3.823.674c-.16.028-.312-.046-.459-.223a1.217 1.217 0 0 1-.272-.568l-.127-.717c-.155-.882.044-1.774.596-2.676.553-.903 1.21-1.613 1.974-2.13.576-.398.97-.774 1.18-1.129.212-.355.274-.782.186-1.28-.08-.447-.395-.796-.95-1.05-.553-.252-1.154-.321-1.802-.207-.69.122-1.237.377-1.639.765-.325.332-.785 1.042-1.382 2.133-.108.195-.257.309-.449.342a.774.774 0 0 1-.42-.057l-2.964-1.53a.638.638 0 0 1-.308-.816c1.2-3.126 3.416-4.973 6.645-5.543a7.246 7.246 0 0 1 2.652.042 8.772 8.772 0 0 1 2.56.912 6.71 6.71 0 0 1 2.046 1.734 5.299 5.299 0 0 1 1.099 2.41z" fill-opacity=".8" fill="#12E4FF"/><path d="M199.285 123.852l-1.634 4.491a.764.764 0 0 1-.416.442.764.764 0 0 1-.605.034l-4.491-1.634a.764.764 0 0 1-.442-.416.764.764 0 0 1-.034-.605l1.634-4.49a.764.764 0 0 1 .416-.443.764.764 0 0 1 .605-.034l4.491 1.635c.2.072.347.21.442.415a.764.764 0 0 1 .034.605zm9.999-9.074a6.383 6.383 0 0 1-.978 1.784c-.407.516-.799.914-1.176 1.193-.377.28-.855.526-1.434.739-.58.213-1.037.354-1.372.422-.336.069-.797.152-1.383.249-.616.1-1.191.35-1.725.75-.534.399-.857.754-.97 1.066a1.042 1.042 0 0 1-.447.526c-.22.14-.43.172-.629.1l-4.49-1.635c-.188-.068-.305-.241-.352-.52a1.498 1.498 0 0 1 .06-.773l.306-.842c.376-1.035 1.137-1.864 2.282-2.485 1.144-.622 2.282-.974 3.414-1.057.859-.069 1.51-.227 1.953-.475.444-.249.772-.666.986-1.252.19-.524.068-1.091-.366-1.701-.435-.61-1.033-1.054-1.794-1.331-.81-.295-1.55-.36-2.218-.193-.55.153-1.479.627-2.786 1.423-.234.14-.464.17-.689.088a.952.952 0 0 1-.413-.32l-2.217-3.456a.785.785 0 0 1 .174-1.06c3.203-2.591 6.701-3.197 10.493-1.817.998.364 1.932.923 2.801 1.677.87.754 1.592 1.604 2.167 2.547.575.944.946 1.98 1.115 3.108a6.522 6.522 0 0 1-.312 3.245z" fill="#5543FF"/><path d="M3.332 174.45l-.533 1.465a.25.25 0 0 1-.136.144.25.25 0 0 1-.197.011l-1.464-.533a.25.25 0 0 1-.145-.135.25.25 0 0 1-.01-.197l.532-1.465a.25.25 0 0 1 .136-.144.25.25 0 0 1 .197-.01l1.464.532a.25.25 0 0 1 .144.135.25.25 0 0 1 .012.198zm3.26-2.958c-.08.22-.187.414-.32.582-.132.168-.26.298-.383.389a1.868 1.868 0 0 1-.467.24 3.3 3.3 0 0 1-.448.138c-.11.023-.26.05-.45.082-.201.032-.389.114-.563.244-.174.13-.28.246-.316.348a.34.34 0 0 1-.146.171c-.072.046-.14.056-.205.033l-1.464-.533c-.061-.022-.1-.079-.115-.17a.488.488 0 0 1 .02-.252l.1-.274c.122-.338.37-.608.744-.81a2.743 2.743 0 0 1 1.113-.345c.28-.023.492-.074.637-.155a.729.729 0 0 0 .32-.408c.063-.171.023-.356-.118-.555a1.201 1.201 0 0 0-.585-.434c-.265-.096-.506-.117-.723-.063-.18.05-.483.205-.909.464a.252.252 0 0 1-.224.029.31.31 0 0 1-.135-.104l-.723-1.127a.256.256 0 0 1 .057-.346c1.044-.845 2.185-1.042 3.421-.592.325.118.63.3.913.546.284.246.52.523.707.831.187.308.308.645.363 1.013.055.368.021.72-.101 1.058z" fill-opacity=".15" fill="#5543FF"/></g></svg>