<?xml version="1.0" encoding="UTF-8" standalone="no"?>
<svg width="246px" height="192px" viewBox="0 0 246 192" version="1.1" xmlns="http://www.w3.org/2000/svg" xmlns:xlink="http://www.w3.org/1999/xlink">
    <!-- Generator: Sketch 50.2 (55047) - http://www.bohemiancoding.com/sketch -->
    <title>whats-peer-to-peer-web</title>
    <desc>Created with Sketch.</desc>
    <defs></defs>
    <g id="Page-1" stroke="none" stroke-width="1" fill="none" fill-rule="evenodd">
        <g id="whats-peer-to-peer-web" transform="translate(-1.000000, -1.000000)" fill-rule="nonzero">
            <path d="M208.009174,46 L201,35.9134192 C205.366972,30.8271706 211.917431,28.0262972 218.614679,28.0005223 C222.495413,27.9747474 226.458716,28.9026441 230.06422,30.8529455 C234.045872,33.0180378 237.073394,36.1282101 239,39.7023307 L220.165138,38.774434 C214.834862,38.4823184 209.761468,41.2917834 208.009174,46 Z M211,51 C211,55.4210526 214.578947,59 219,59 C223.421053,59 227,55.4210526 227,51 C227,46.5789474 223.421053,43 219,43 C214.578947,43 211,46.569378 211,51 Z M239.53401,43 L227.265245,43.6406322 C230.593707,47.5822999 230.646401,53.2679109 227.844872,57.6277691 L218,72.9673518 C222.083734,73.1897935 226.290418,72.2822312 230.101903,70.0400184 C239.53401,64.5234632 243.354277,52.9564925 239.53401,43 Z M207.745242,54.3839286 L199.549048,38 C197.308931,41.4821429 196,45.6607143 196,50.1339286 C196,61.2053571 203.976574,70.375 214.4041,72 L220,60.8571429 C214.939971,61.8214286 210.055637,59 207.745242,54.3839286 Z" id="Shape" fill-opacity="0.07" fill="#FFFFFF"></path>
            <path d="M80.0672758,146.204046 C80.0801295,146.185074 80.0939095,146.16622 80.1068789,146.147248 C80.1044471,146.16622 80.1016679,146.185074 80.099352,146.204046 L80.0672758,146.204046 Z M128.70248,148.095617 C128.70248,143.362897 127.88307,139.017011 125.65891,134.939081 C121.327573,127.051179 113.656984,122.764946 104.672528,122.764946 C89.885198,122.735173 81.6060221,134.073623 80.0672758,146.376739 C84.5509972,139.786701 92.4390666,133.330804 103.355595,132.944937 C103.355595,132.944937 114.944645,132.944937 113.861784,144.226099 L95.2783658,144.226099 C95.9514154,140.207715 97.2390759,137.886068 98.9071695,135.742844 C90.976407,139.493271 86.030565,146.071593 86.1476539,155.983627 C86.2353649,163.663119 91.4445511,171.551129 98.9072751,174.468235 C107.716098,177.891267 119.279046,175.242117 124.283433,172.176254 L124.283433,160.954531 C115.738059,167.026712 95.6589046,167.502972 95.5126492,153.691646 L128.702586,153.691646 L128.702586,148.095617 L128.70248,148.095617 Z" id="Shape" fill-opacity="0.07" fill="#FFFFFF" transform="translate(104.384931, 149.420779) rotate(-7.000000) translate(-104.384931, -149.420779) "></path>
            <path d="M231.60125,141.114949 C231.60125,141.114949 231.38375,141.353333 231.033333,141.818182 C230.924583,140.542828 230.695,139.291313 230.3325,138.051717 C229.885417,136.514141 229.305417,135.024242 228.580417,133.593939 C228.12125,132.640404 227.589583,131.734545 226.973333,130.876364 C226.755833,130.554545 226.52625,130.232727 226.296667,129.934747 C225.233333,128.218384 224.000833,127.157576 222.587083,125.167071 C221.66875,123.641414 221.028333,121.960808 220.72625,120.208687 C220.339583,121.269495 220.0375,122.354141 219.832083,123.462626 C218.37,122.008485 217.113333,120.983434 216.34,120.280202 C212.594167,116.799798 213.029167,115 213.029167,115 C213.029167,115 205.984583,122.759394 209.029583,130.840606 C210.080833,133.58202 211.905417,135.977778 214.27375,137.741818 C217.222083,140.149495 220.412083,142.032727 222.091667,146.871919 C220.738333,144.333131 218.69625,142.199596 216.195,140.733535 C216.944167,142.485657 217.330833,144.380808 217.31875,146.27596 C217.31875,153.546667 211.325417,159.446667 203.954583,159.434747 C202.951667,159.434747 201.960833,159.327475 200.994167,159.10101 C199.84625,158.886465 198.734583,158.51697 197.683333,157.992525 C196.124583,157.062828 194.783333,155.835152 193.72,154.38101 L193.9375,154.428687 C194.493333,154.619394 195.049167,154.762424 195.629167,154.869697 C197.88875,155.346465 200.257083,155.072323 202.3475,154.08303 C204.462083,152.926869 205.730833,152.068687 206.77,152.414343 C207.809167,152.736162 208.606667,151.758788 207.881667,150.745657 C206.625,149.148485 204.570833,148.361818 202.540833,148.719394 C200.42625,149.017374 198.492917,150.507273 195.725833,149.065051 C195.544583,148.969697 195.375417,148.874343 195.20625,148.767071 C195.012917,148.659798 195.798333,148.92202 195.617083,148.802828 C195.012917,148.504848 194.432917,148.159192 193.877083,147.777778 C193.840833,147.74202 194.3,147.908889 194.251667,147.873131 C193.53875,147.396364 192.9225,146.776566 192.439167,146.061414 C191.94375,145.179394 191.895417,144.106667 192.318333,143.188889 C192.572083,142.73596 192.970833,142.366465 193.442083,142.151919 C193.804583,142.330707 194.022083,142.461818 194.022083,142.461818 C194.022083,142.461818 193.865,142.163838 193.768333,142.008889 C194.179167,142.116162 194.867917,142.461818 195.2425,142.676364 C195.49625,142.807475 195.701667,142.998182 195.870833,143.236566 C195.870833,143.236566 195.991667,143.17697 195.907083,142.914747 C195.774167,142.592929 195.556667,142.318788 195.254583,142.128081 C195.556667,142.271111 195.8225,142.43798 196.07625,142.616768 C196.305833,142.092323 196.414583,141.520202 196.390417,140.948081 C196.414583,140.638182 196.36625,140.316364 196.2575,140.018384 C196.160833,139.827677 196.317917,139.756162 196.487083,139.958788 C196.462917,139.803838 196.4025,139.660808 196.342083,139.517778 C196.342083,139.505859 196.43875,139.374747 196.487083,139.327071 C196.607917,139.207879 196.740833,139.100606 196.897917,139.005253 C197.767917,138.468889 198.68625,138.00404 199.640833,137.622626 C200.414167,137.288889 201.054583,137.038586 201.1875,136.955152 C201.380833,136.83596 201.562083,136.692929 201.73125,136.53798 C202.371667,136.001616 202.81875,135.250707 202.96375,134.428283 C202.975833,134.32101 202.987917,134.213737 203,134.094545 L203,133.915758 C202.89125,133.498586 202.16625,133.188687 198.36,132.831111 C197.01875,132.616566 195.943333,131.627273 195.64125,130.316162 C195.592917,130.459192 195.5325,130.602222 195.484167,130.745253 C195.5325,130.602222 195.580833,130.471111 195.64125,130.328081 C196.36625,128.432929 197.67125,126.835758 199.362917,125.739192 C199.459583,125.655758 198.97625,125.76303 199.072917,125.679596 C199.399167,125.524646 199.725417,125.381616 200.06375,125.262424 C200.232917,125.190909 199.33875,124.857172 198.54125,124.940606 C198.057917,124.964444 197.574583,125.083636 197.1275,125.274343 C197.320833,125.119394 197.876667,124.904848 197.74375,124.904848 C196.72875,125.095556 195.75,125.465051 194.855833,125.977576 C194.855833,125.882222 194.867917,125.798788 194.91625,125.715354 C194.203333,126.013333 193.587083,126.490101 193.10375,127.086061 C193.115833,126.978788 193.127917,126.871515 193.127917,126.764242 C192.801667,127.002626 192.499583,127.276768 192.245833,127.586667 C190.13125,126.8 187.8475,126.609293 185.63625,127.038384 C185.177083,126.65697 184.778333,126.227879 184.464167,125.727273 C184.246667,125.500808 184.101667,125.262424 183.944583,125.000202 C183.835833,124.809495 183.727083,124.594949 183.618333,124.380404 C183.545833,124.356566 183.521667,124.559192 183.485417,124.511515 C183.09875,123.510303 182.9175,122.449495 182.95375,121.376768 C182.313333,121.805859 181.842083,122.413737 181.588333,123.11697 C181.479583,123.367273 181.395,123.510303 181.3225,123.653333 C181.334583,123.462626 181.395,123.200404 181.382917,123.224242 C181.165417,123.474545 180.99625,123.712929 180.875417,123.963232 C180.766667,124.189697 180.67,124.428081 180.5975,124.666465 C180.5975,124.463838 180.609583,124.308889 180.5975,124.344646 C179.751667,126.20404 179.244167,128.099192 179.062917,130.04202 C179.014583,130.375758 178.990417,130.709495 179.0025,131.031313 C178.4225,131.674949 177.915,132.366263 177.467917,133.093333 C176.005833,135.524848 174.918333,138.15899 174.229583,140.912323 C174.712917,139.863434 175.292917,138.862222 175.9575,137.920606 C174.664583,141.150707 174,144.595354 174,148.075758 C174.2175,147.050707 174.5075,146.049495 174.845833,145.060202 C174.640417,149.172323 175.437917,153.272525 177.19,157.015152 C179.534167,162.2 183.425,166.550505 188.342917,169.494545 C190.34875,170.829495 192.535833,171.866465 194.84375,172.569697 C195.145833,172.67697 195.46,172.784242 195.774167,172.891515 C195.6775,172.855758 195.580833,172.808081 195.484167,172.772323 C198.215,173.582828 201.066667,174 203.918333,174 C214.032083,174 217.367083,170.197778 217.669167,169.828283 C218.164583,169.387273 218.575417,168.850909 218.865417,168.24303 C219.05875,168.159596 219.252083,168.076162 219.4575,167.992727 L219.807917,167.825859 C221.330417,167.122626 222.768333,166.228687 224.073333,165.191717 C226.042917,163.797172 227.444583,161.770909 228.04875,159.458586 C228.41125,158.612323 228.423333,157.670707 228.097083,156.812525 C228.205833,156.645657 228.3025,156.478788 228.423333,156.3 C230.598333,152.855354 231.830833,148.92202 232,144.869495 L232,144.535758 C232,143.665657 231.9275,142.807475 231.770417,141.961212 C231.685833,141.424848 231.60125,141.114949 231.60125,141.114949 Z" id="Shape" fill-opacity="0.07" fill="#FFFFFF"></path>
            <path d="M162.582386,67.7689516 C148.169127,67.7689516 141.191144,86.7197581 150.091459,97.8379032 C153.182434,101.682258 157.594483,104.239516 162.582386,104.239516 C165.656424,104.239516 168.535688,103.299597 171,101.665323 C167.29083,104.984677 162.370675,107 157.001694,107 C156.671425,107 156.32422,107 155.993951,106.974597 C144.857972,106.458065 136,97.2705645 136,86 C136,74.3991935 145.399952,65 157.001694,65 L157.069441,65 C162.413017,65.0254032 167.29083,67.0407258 170.991532,70.3431452 C168.535688,68.7004032 165.647955,67.7689516 162.582386,67.7689516 Z M171.190333,101.513079 C167.723025,103.615356 163.501218,103.521732 160,101.019427 C164.764369,99.2746219 168.282542,93.2231283 168.282542,85.988572 C168.282542,78.7795494 164.789801,72.7280558 160.025433,70.9577174 C163.569038,68.4724345 167.756935,68.3788108 171.292063,70.5321552 C180.269762,78.9327518 180.235851,93.1465271 171.190333,101.513079 Z" id="Shape" fill-opacity="0.07" fill="#FFFFFF"></path>
            <path d="M155.937658,166.64657 C155.796175,166.767123 155.27001,167.3904 155.027229,168.234692 C154.784448,169.078983 154.966953,170.24475 154.987045,170.526459 C155.007137,170.80775 155.675203,170.687197 155.776083,170.586736 C155.876544,170.486275 155.755153,170.44609 155.694877,169.099075 C155.634181,167.75206 156.261644,167.048833 156.261644,166.968464 C156.261644,166.888095 156.061559,166.541504 155.937658,166.646151 L155.937658,166.64657 Z M162.817984,183.19083 C161.340369,183.150646 159.742201,183.854292 159.762293,185.442832 C159.782386,187.030535 161.178794,187.593536 162.231124,187.653812 C163.283872,187.71367 166.036086,187.512748 165.995483,185.904116 C165.95488,184.295902 164.580656,183.237712 162.818402,183.190412 L162.817984,183.19083 Z M162.43372,186.78901 C161.502781,186.78901 160.815041,186.025088 160.794531,185.421903 C160.773601,184.819136 161.340369,183.934242 162.898771,183.894058 C163.606184,183.87564 164.88204,184.376689 164.962408,185.522364 C165.043614,186.668457 163.363403,186.78901 162.433301,186.78901 L162.43372,186.78901 Z M162.514507,160.877176 C157.495641,160.73653 154.116382,164.033327 153.368366,167.008648 C152.619094,169.98397 154.121824,173.979389 154.278376,174.024178 C156.666419,174.707732 160.045677,173.19956 160.146975,173.019568 C160.248274,172.838319 160.491055,172.657489 159.620811,171.009091 C158.750567,169.360693 159.863592,166.747868 162.352514,167.109109 C164.841855,167.470769 165.186353,169.501338 164.841855,171.068949 C164.497776,172.637397 163.263779,174.045108 161.968251,175.853406 C160.67314,177.662961 160.733417,180.436942 160.895829,180.899481 C161.057822,181.361602 164.679862,181.462482 165.509502,181.322255 C166.339143,181.181191 166.015994,181.904929 167.047394,178.205869 C168.079631,174.507228 171.013512,173.541965 171.155413,168.41594 C171.297315,163.289497 167.532955,161.01824 162.514507,160.877176 Z M170.103503,169.159352 C169.982112,169.038799 169.050754,167.068925 168.848577,167.068925 C168.646399,167.068925 168.42371,167.330124 168.484405,167.3904 C168.5451,167.450677 169.96202,169.581707 169.981693,169.782629 C170.001786,169.983551 169.759005,170.868027 169.738913,170.808169 C169.71882,170.747474 168.42371,168.274876 168.30232,168.274876 C168.180929,168.274876 167.897545,168.556167 167.998844,168.696812 C168.100142,168.837877 169.576919,171.350659 169.576919,171.350659 C169.576919,171.350659 169.192656,172.295411 169.13196,172.254808 C169.071265,172.215042 167.756063,169.641984 167.675275,169.641984 C167.594488,169.641984 167.411565,170.003643 167.452168,170.104523 C167.492771,170.204984 168.929783,172.57712 168.929783,172.73744 C168.929783,172.898596 168.301901,173.642426 168.301901,173.642426 C168.301901,173.642426 167.188458,171.129644 167.087997,171.129644 C166.98628,171.129644 166.76401,171.612276 166.76401,171.612276 C166.76401,171.612276 168.018517,174.084873 168.018517,174.144731 C168.018517,174.205427 167.553048,174.929165 167.553048,174.929165 C167.553048,174.929165 166.622527,172.677163 166.561832,172.677163 C166.501137,172.677163 166.217753,173.058915 166.258356,173.139284 C166.298959,173.219653 167.250409,175.230129 167.250409,175.33059 C167.250409,175.431051 166.865308,176.536123 166.804613,176.475846 C166.743918,176.41557 165.772376,174.022922 165.69117,174.003249 C165.610801,173.982319 165.286814,174.425185 165.388112,174.565831 C165.48941,174.706476 166.561832,176.958059 166.561832,177.05852 C166.561832,177.158981 166.278448,178.002854 166.217753,177.982762 C166.157058,177.96267 164.982919,175.349845 164.982919,175.349845 C164.982919,175.349845 164.618748,175.75169 164.659769,175.872243 C164.700791,175.992796 165.934788,178.526089 165.934788,178.526089 L165.529595,179.530699 C165.529595,179.530699 164.294761,176.616073 164.234484,176.616073 C164.173789,176.616073 163.931008,177.118378 163.971611,177.239769 C164.012214,177.361159 165.428296,180.0937 165.388112,180.234764 C165.347509,180.375409 164.90255,180.435686 164.801252,180.355317 C164.699954,180.274948 163.445028,177.801932 163.445028,177.801932 C163.445028,177.801932 163.14197,178.203776 163.243269,178.325167 C163.344567,178.44572 164.396896,180.375409 164.295598,180.375409 C164.1943,180.375409 163.526653,180.495963 163.526653,180.375409 C163.526653,180.254856 163.061183,179.169877 162.959885,179.148947 C162.858587,179.128018 162.55511,179.270338 162.574784,179.390472 C162.595713,179.511863 163.181736,180.355736 163.040672,180.355736 C162.89919,180.355736 161.988343,180.255275 161.948158,180.194998 C161.907137,180.134721 161.967832,177.942996 162.696593,176.61691 C163.424936,175.289987 165.731354,172.676744 165.893766,170.847516 C166.055759,169.018288 165.488992,167.57123 163.607021,166.445648 C161.724632,165.319647 159.11432,166.345187 158.466764,168.576259 C157.819209,170.807332 159.255802,172.416383 159.255802,172.57712 C159.255802,172.737858 156.442893,173.581731 155.046484,173.100355 C155.046484,173.100355 153.953133,170.526878 154.196751,168.114976 C154.439532,165.702236 156.76688,163.350192 158.466346,162.546085 C160.165812,161.741978 164.092165,161.420084 166.216497,162.264794 C168.34083,163.109504 169.373486,165.078959 169.656451,165.963435 C169.656451,165.963435 169.130286,165.621867 169.069591,165.641959 C169.008896,165.662052 168.887924,166.023711 169.009314,166.10408 C169.130705,166.184449 170.001367,167.269847 170.061644,167.471188 C170.122339,167.67211 170.223637,169.279487 170.102247,169.158933 L170.103503,169.159352 Z M162.068712,184.457058 C161.380553,184.637888 161.299766,185.502272 161.380553,185.824165 C161.461341,186.145641 161.947321,186.085364 162.048201,186.025088 C162.149499,185.964811 162.048201,185.924627 161.987506,185.542456 C161.92681,185.160704 162.39228,184.717838 162.473067,184.65798 C162.554692,184.598122 162.287633,184.399712 162.068712,184.457058 Z" id="Shape-Copy-9" fill="#12E4FF" transform="translate(162.159763, 174.267827) rotate(15.000000) translate(-162.159763, -174.267827) "></path>
            <path d="M96.068017,95.9289394 C95.9500884,96.0294229 95.5115196,96.5489368 95.3091569,97.2526705 C95.1067942,97.9564042 95.2589151,98.928094 95.2756624,99.1629045 C95.2924097,99.3973661 95.849256,99.2968826 95.9333412,99.2131463 C96.0170774,99.12941 95.9158961,99.0959155 95.8656543,97.9731515 C95.8150637,96.8503874 96.3380665,96.2642334 96.3380665,96.1972444 C96.3380665,96.1302553 96.1712918,95.8413652 96.068017,95.9285905 L96.068017,95.9289394 Z M101.802906,109.71891 C100.571285,109.685416 99.23918,110.271919 99.2559272,111.595999 C99.2726745,112.919381 100.436609,113.388653 101.313746,113.438895 C102.191233,113.488788 104.485258,113.321315 104.451415,111.980488 C104.417572,110.640009 103.272129,109.757987 101.803255,109.718561 L101.802906,109.71891 Z M101.482615,112.718065 C100.706658,112.718065 100.133414,112.08132 100.116318,111.578554 C100.098873,111.076136 100.571285,110.338559 101.870244,110.305064 C102.459887,110.289713 103.523338,110.707347 103.590327,111.66229 C103.658014,112.617581 102.257524,112.718065 101.482266,112.718065 L101.482615,112.718065 Z M101.549953,91.1200342 C97.3666273,91.0028034 94.5499479,93.7507492 93.9264615,96.2307389 C93.3019283,98.7107286 94.5544836,102.04099 94.6849727,102.078323 C96.675454,102.648079 99.4921333,101.390988 99.5765674,101.24096 C99.6610015,101.089886 99.8633642,100.939161 99.1379986,99.5651876 C98.412633,98.1912147 99.3403613,96.0133734 101.414928,96.3144752 C103.489843,96.6159258 103.776989,98.3084455 103.489843,99.6150805 C103.203046,100.922413 102.174486,102.095768 101.094637,103.603021 C100.015136,105.111321 100.065378,107.423489 100.200752,107.809025 C100.335776,108.194212 103.354818,108.278297 104.046341,108.161415 C104.737863,108.043836 104.468511,108.647086 105.328204,105.563846 C106.188594,102.480955 108.634042,101.676389 108.75232,97.4037447 C108.870597,93.1307518 105.732929,91.2376139 101.549953,91.1200342 Z M107.875531,98.0233932 C107.77435,97.9229097 106.998045,96.2809807 106.829525,96.2809807 C106.661006,96.2809807 106.475391,96.498695 106.525981,96.5489368 C106.576572,96.5991785 107.757603,98.3754345 107.774001,98.5429071 C107.790748,98.7103797 107.588386,99.4476079 107.571638,99.397715 C107.554891,99.3471244 106.475391,97.286165 106.374209,97.286165 C106.273028,97.286165 106.036822,97.5206266 106.121256,97.6378574 C106.20569,97.7554371 107.436614,99.849891 107.436614,99.849891 C107.436614,99.849891 107.116322,100.637361 107.065732,100.603518 C107.015141,100.570372 105.918893,98.4256763 105.851555,98.4256763 C105.784217,98.4256763 105.631748,98.7271269 105.665591,98.8112121 C105.699435,98.8949484 106.897212,100.872171 106.897212,101.005801 C106.897212,101.140128 106.373861,101.760125 106.373861,101.760125 C106.373861,101.760125 105.445783,99.6656711 105.362047,99.6656711 C105.277264,99.6656711 105.091998,100.067954 105.091998,100.067954 C105.091998,100.067954 106.137654,102.128914 106.137654,102.178806 C106.137654,102.229397 105.749676,102.832647 105.749676,102.832647 C105.749676,102.832647 104.974069,100.955559 104.923478,100.955559 C104.872888,100.955559 104.636681,101.273757 104.670525,101.340746 C104.704368,101.407735 105.497421,103.083507 105.497421,103.167244 C105.497421,103.25098 105.176432,104.172079 105.125841,104.121837 C105.07525,104.071595 104.265451,102.077276 104.197764,102.060878 C104.130775,102.043433 103.860725,102.41257 103.945159,102.529801 C104.029593,102.647032 104.923478,104.523771 104.923478,104.607508 C104.923478,104.691244 104.687272,105.394629 104.636681,105.377882 C104.586091,105.361134 103.607423,103.183293 103.607423,103.183293 C103.607423,103.183293 103.303879,103.518238 103.338071,103.618722 C103.372264,103.719205 104.400824,105.830755 104.400824,105.830755 L104.063088,106.668118 C104.063088,106.668118 103.033829,104.238719 102.983588,104.238719 C102.932997,104.238719 102.730634,104.657401 102.764478,104.758582 C102.798321,104.859763 103.978654,107.13739 103.945159,107.25497 C103.911316,107.372201 103.540434,107.422443 103.456,107.355453 C103.371566,107.288464 102.32556,105.227156 102.32556,105.227156 C102.32556,105.227156 102.072955,105.562101 102.15739,105.663283 C102.241824,105.763766 103.118961,107.372201 103.034527,107.372201 C102.950093,107.372201 102.393596,107.472684 102.393596,107.372201 C102.393596,107.271717 102.005618,106.367365 101.921183,106.34992 C101.836749,106.332475 101.583796,106.451102 101.600194,106.551236 C101.617639,106.652418 102.106101,107.355802 101.988521,107.355802 C101.870593,107.355802 101.111384,107.272066 101.077889,107.221824 C101.043697,107.171583 101.094288,105.344736 101.701725,104.239417 C102.308813,103.1334 104.231258,100.95521 104.366632,99.4305117 C104.501657,97.9058135 104.029244,96.6996621 102.460585,95.7614668 C100.891576,94.8229226 98.7158282,95.6777305 98.176078,97.5373739 C97.6363279,99.3970172 98.8337568,100.738193 98.8337568,100.872171 C98.8337568,101.00615 96.4891408,101.709534 95.3252064,101.308298 C95.3252064,101.308298 94.4138765,99.1632534 94.6169369,97.1528847 C94.8192996,95.1418183 96.7591903,93.1813424 98.1757291,92.5111032 C99.592268,91.8408641 102.864961,91.572559 104.635635,92.2766416 C106.406308,92.9807243 107.267048,94.6223044 107.502905,95.3595326 C107.502905,95.3595326 107.064336,95.0748292 107.013745,95.0915765 C106.963155,95.1083237 106.862322,95.4097744 106.963504,95.4767634 C107.064685,95.5437524 107.790399,96.4484532 107.840641,96.6162747 C107.891232,96.7837473 107.975666,98.1235279 107.874485,98.0230443 L107.875531,98.0233932 Z M101.178373,110.774336 C100.604779,110.925062 100.537441,111.645543 100.604779,111.913848 C100.672117,112.181804 101.077191,112.131562 101.161277,112.08132 C101.245711,112.031078 101.161277,111.997584 101.110686,111.679037 C101.060095,111.360839 101.448073,110.991702 101.515411,110.941809 C101.583447,110.891916 101.360848,110.726537 101.178373,110.774336 Z" id="Shape-Copy" fill="#0AD895" opacity="0.8" transform="translate(101.254266, 102.281409) rotate(-7.000000) translate(-101.254266, -102.281409) "></path>
            <path d="M222.623084,161.437039 C222.464644,161.572042 221.875415,162.270022 221.603536,163.215506 C221.331656,164.16099 221.536035,165.46648 221.558535,165.781954 C221.581035,166.09696 222.329173,165.961957 222.442143,165.849456 C222.554645,165.736954 222.418705,165.691953 222.351204,164.183491 C222.283234,162.675028 222.985902,161.887515 222.985902,161.797514 C222.985902,161.707513 222.761836,161.319381 222.623084,161.436571 L222.623084,161.437039 Z M230.328054,179.964218 C228.673339,179.919218 226.883622,180.707199 226.906123,182.486135 C226.928623,184.264133 228.492399,184.894612 229.670856,184.962113 C230.849781,185.029145 233.931863,184.804142 233.886394,183.002706 C233.840924,181.201739 232.301993,180.016719 230.328523,179.96375 L230.328054,179.964218 Z M229.897734,183.99366 C228.855217,183.99366 228.085048,183.138177 228.062079,182.462697 C228.038641,181.787686 228.673339,180.796732 230.418524,180.751731 C231.210725,180.731106 232.639498,181.292209 232.7295,182.575199 C232.820439,183.858657 230.938845,183.99366 229.897266,183.99366 L229.897734,183.99366 Z M229.988205,154.976152 C224.3678,154.818649 220.583519,158.510585 219.745849,161.842515 C218.906773,165.174444 220.589613,169.648737 220.764928,169.698894 C223.439191,170.464375 227.223472,168.775441 227.336911,168.573875 C227.450351,168.370903 227.72223,168.1684 226.747683,166.322432 C225.773135,164.476464 227.019562,161.550479 229.806795,161.955017 C232.594497,162.360023 232.980285,164.633967 232.594497,166.389464 C232.209179,168.145899 230.827281,169.722332 229.376476,171.747365 C227.92614,173.773804 227.993641,176.880262 228.175519,177.398239 C228.356928,177.915747 232.413088,178.028718 233.342166,177.871684 C234.271244,177.713713 233.909363,178.524195 235.064382,174.381783 C236.220338,170.23984 239.505861,169.158885 239.66477,163.418478 C239.823679,157.677603 235.608141,155.134123 229.988205,154.976152 Z M238.486782,164.250992 C238.350842,164.11599 237.307856,161.910016 237.081446,161.910016 C236.855036,161.910016 236.605657,162.202521 236.673627,162.270022 C236.741597,162.337523 238.328342,164.723968 238.350373,164.948972 C238.372874,165.173976 238.100994,166.164461 238.078494,166.097428 C238.055993,166.029458 236.605657,163.260507 236.469717,163.260507 C236.333778,163.260507 236.016429,163.575512 236.129868,163.733015 C236.243307,163.890986 237.897085,166.704938 237.897085,166.704938 C237.897085,166.704938 237.466765,167.762924 237.398795,167.717455 C237.330825,167.672923 235.857989,164.791469 235.767518,164.791469 C235.677048,164.791469 235.472201,165.196476 235.51767,165.309447 C235.56314,165.421948 237.172385,168.078398 237.172385,168.257933 C237.172385,168.438404 236.469249,169.271387 236.469249,169.271387 C236.469249,169.271387 235.222353,166.457434 235.109851,166.457434 C234.995943,166.457434 234.747033,166.997912 234.747033,166.997912 C234.747033,166.997912 236.1519,169.766864 236.1519,169.833896 C236.1519,169.901866 235.630641,170.712348 235.630641,170.712348 C235.630641,170.712348 234.588593,168.190431 234.520623,168.190431 C234.452653,168.190431 234.135304,168.617938 234.180773,168.70794 C234.226243,168.797941 235.291729,171.049385 235.291729,171.161886 C235.291729,171.274388 234.860472,172.511909 234.792502,172.444408 C234.724532,172.376906 233.636546,169.697487 233.545607,169.675456 C233.455605,169.652018 233.092787,170.147964 233.206226,170.305466 C233.319666,170.462969 234.520623,172.984416 234.520623,173.096918 C234.520623,173.20942 234.203274,174.154436 234.135304,174.131935 C234.067334,174.109435 232.752469,171.183449 232.752469,171.183449 C232.752469,171.183449 232.34465,171.633457 232.390588,171.768459 C232.436526,171.903461 233.818424,174.740383 233.818424,174.740383 L233.364666,175.865401 C233.364666,175.865401 231.981831,172.601441 231.91433,172.601441 C231.84636,172.601441 231.574481,173.163951 231.61995,173.29989 C231.66542,173.43583 233.251227,176.49588 233.206226,176.653852 C233.160757,176.811354 232.662467,176.878855 232.549028,176.788854 C232.435589,176.698852 231.030253,173.929432 231.030253,173.929432 C231.030253,173.929432 230.690872,174.379439 230.804312,174.515379 C230.917751,174.650381 232.096208,176.811354 231.982769,176.811354 C231.869329,176.811354 231.121661,176.946356 231.121661,176.811354 C231.121661,176.676352 230.600402,175.461332 230.486963,175.437894 C230.373523,175.414456 230.033674,175.573834 230.055706,175.708367 C230.079144,175.844307 230.735404,176.789323 230.577433,176.789323 C230.418993,176.789323 229.398976,176.676821 229.353976,176.60932 C229.308037,176.541819 229.376007,174.087403 230.192114,172.602379 C231.007753,171.116417 233.590608,168.189963 233.772486,166.141492 C233.953895,164.09302 233.319197,162.472525 231.211662,161.212036 C229.103659,159.951077 226.180486,161.099534 225.455318,163.598012 C224.73015,166.096491 226.338926,167.898395 226.338926,168.078398 C226.338926,168.258401 223.188874,169.203417 221.625099,168.664345 C221.625099,168.664345 220.400704,165.782423 220.673521,163.081441 C220.9454,160.379522 223.551693,157.745572 225.454849,156.845089 C227.358005,155.944605 231.754952,155.584131 234.133898,156.530084 C236.512843,157.476037 237.669268,159.681542 237.986148,160.672027 C237.986148,160.672027 237.39692,160.28952 237.32895,160.312021 C237.26098,160.334521 237.125509,160.739528 237.261449,160.829529 C237.397389,160.919531 238.372405,162.13502 238.439906,162.360492 C238.507876,162.585496 238.621315,164.385525 238.485375,164.250523 L238.486782,164.250992 Z M229.488978,181.38221 C228.71834,181.584714 228.62787,182.552698 228.71834,182.913173 C228.80881,183.273179 229.353038,183.205678 229.466009,183.138177 C229.579448,183.070676 229.466009,183.025675 229.398039,182.597699 C229.330069,182.170192 229.851327,181.674247 229.941798,181.607214 C230.033205,181.540182 229.734138,181.317991 229.488978,181.38221 Z" id="Shape-Copy-2" fill="#8D54F0" transform="translate(229.590942, 169.971746) rotate(-6.000000) translate(-229.590942, -169.971746) "></path>
            <path d="M127.790382,43.0275545 C127.601739,43.1882921 126.900186,44.0193283 126.576478,45.1450501 C126.25277,46.270772 126.496109,47.8251276 126.522899,48.2007403 C126.549688,48.5757949 127.440443,48.4150572 127.574949,48.2811092 C127.708897,48.1471611 127.547043,48.0935819 127.466674,46.2975616 C127.385747,44.5015413 128.222365,43.5639048 128.222365,43.4567464 C128.222365,43.3495879 127.955585,42.8874671 127.790382,43.0269964 L127.790382,43.0275545 Z M136.96415,65.0865682 C134.993998,65.032989 132.863107,65.9711835 132.889897,68.0892373 C132.916686,70.2061748 134.778564,70.9568421 136.18167,71.037211 C137.585334,71.1170217 141.254953,70.8491255 141.200816,68.7042822 C141.146679,66.5599969 139.314381,65.1490773 136.964708,65.0860101 L136.96415,65.0865682 Z M136.451799,69.8841414 C135.210547,69.8841414 134.293561,68.865578 134.266213,68.0613315 C134.238307,67.2576431 134.993998,66.0777839 137.071867,66.0242046 C138.015085,65.9996475 139.716225,66.6677135 139.823383,68.1952795 C139.931658,69.7234037 137.691377,69.8841414 136.451241,69.8841414 L136.451799,69.8841414 Z M136.559516,35.3350288 C129.867694,35.1475015 125.362015,39.5432304 124.364661,43.5103256 C123.365631,47.4774208 125.369271,52.8046469 125.578007,52.8643654 C128.762064,53.7757704 133.267742,51.7648751 133.402806,51.5248848 C133.53787,51.2832202 133.861578,51.0421137 132.701253,48.8442492 C131.540928,46.6463847 133.024961,43.1626188 136.343524,43.6442737 C139.662646,44.1264867 140.121976,46.833912 139.662646,48.9240599 C139.203874,51.015324 137.558545,52.8922713 135.831173,55.3033364 C134.104359,57.716076 134.184728,61.4147169 134.401277,62.0314361 C134.617269,62.6475972 139.446654,62.7821034 140.552842,62.5951342 C141.65903,62.4070488 141.228164,63.372033 142.603364,58.4399536 C143.97968,53.5084324 147.891522,52.2214147 148.080723,45.3867148 C148.269925,38.5514567 143.250779,35.5231142 136.559516,35.3350288 Z M146.678176,46.3779304 C146.516322,46.2171928 145.274511,43.5906945 145.004941,43.5906945 C144.735371,43.5906945 144.438452,43.9389594 144.519379,44.0193283 C144.600306,44.0996971 146.489532,46.9410704 146.515764,47.2089665 C146.542553,47.4768627 146.218845,48.6561638 146.192056,48.576353 C146.165266,48.4954261 144.438452,45.1986293 144.276598,45.1986293 C144.114744,45.1986293 143.736899,45.5736839 143.871964,45.7612112 C144.007028,45.9492966 145.976064,49.2996726 145.976064,49.2996726 C145.976064,49.2996726 145.463713,50.5593425 145.382786,50.5052052 C145.301859,50.4521841 143.548256,47.0214393 143.440539,47.0214393 C143.332823,47.0214393 143.088926,47.5036523 143.143063,47.6381585 C143.1972,47.7721065 145.113216,50.9349552 145.113216,51.148714 C145.113216,51.363589 144.27604,52.3553628 144.27604,52.3553628 C144.27604,52.3553628 142.791449,49.0049868 142.657501,49.0049868 C142.521879,49.0049868 142.225519,49.6484957 142.225519,49.6484957 C142.225519,49.6484957 143.898195,52.9452924 143.898195,53.0251031 C143.898195,53.1060301 143.277569,54.0710143 143.277569,54.0710143 C143.277569,54.0710143 142.036875,51.0683451 141.955948,51.0683451 C141.875021,51.0683451 141.497176,51.5773478 141.551313,51.6845062 C141.605451,51.7916647 142.874051,54.4723003 142.874051,54.6062484 C142.874051,54.7401965 142.360583,56.2136252 142.279656,56.1332563 C142.198729,56.0528875 140.90334,52.8626911 140.795065,52.8364596 C140.687907,52.8085537 140.255924,53.3990415 140.390988,53.5865688 C140.526053,53.774096 141.955948,56.776207 141.955948,56.9101551 C141.955948,57.0441032 141.578103,58.1692669 141.497176,58.1424773 C141.416249,58.1156877 139.850731,54.6319218 139.850731,54.6319218 C139.850731,54.6319218 139.365169,55.167714 139.419865,55.3284517 C139.47456,55.4891894 141.119889,58.8669131 141.119889,58.8669131 L140.579632,60.2063937 C140.579632,60.2063937 138.933187,56.3202255 138.852818,56.3202255 C138.771891,56.3202255 138.448183,56.9899658 138.502321,57.1518197 C138.556458,57.3136736 140.444568,60.957061 140.390988,61.1451464 C140.336851,61.3326737 139.743573,61.4130425 139.608508,61.3058841 C139.473444,61.1987256 137.800209,57.9013708 137.800209,57.9013708 C137.800209,57.9013708 137.396133,58.437163 137.531197,58.5990169 C137.666261,58.7597546 139.069367,61.3326737 138.934303,61.3326737 C138.799239,61.3326737 137.909042,61.4934114 137.909042,61.3326737 C137.909042,61.171936 137.288416,59.7252969 137.153352,59.6973911 C137.018288,59.6694852 136.613653,59.859245 136.639884,60.0194245 C136.66779,60.1812785 137.449154,61.3064422 137.261069,61.3064422 C137.072425,61.3064422 135.857963,61.1724941 135.804383,61.0921253 C135.749688,61.0117565 135.830615,58.0894562 136.802296,56.3213417 C137.77342,54.5521111 140.848644,51.067787 141.065194,48.628816 C141.281185,46.189845 140.525494,44.2604348 138.016201,42.7596583 C135.506349,41.2583238 132.025932,42.6257103 131.162525,45.6004735 C130.299118,48.5752368 132.214575,50.7206383 132.214575,50.9349552 C132.214575,51.1492721 128.464029,52.2744358 126.602151,51.6326014 C126.602151,51.6326014 125.14435,48.2012985 125.469174,44.9854287 C125.792882,41.7684427 128.896012,38.6323836 131.161967,37.560241 C133.427921,36.4880983 138.663058,36.0589064 141.495502,37.1851864 C144.327945,38.3114664 145.70482,40.9374065 146.082107,42.1167076 C146.082107,42.1167076 145.380554,41.6612842 145.299627,41.6880738 C145.2187,41.7148634 145.057404,42.1970765 145.219258,42.3042349 C145.381112,42.4113934 146.541995,43.8585906 146.622364,44.1270448 C146.703291,44.394941 146.838355,46.53811 146.676501,46.3773723 L146.678176,46.3779304 Z M135.965121,66.7748719 C135.047577,67.0159784 134.93986,68.1684899 135.047577,68.5976818 C135.155293,69.0263156 135.803267,68.9459468 135.937773,68.865578 C136.072838,68.7852091 135.937773,68.7316299 135.856846,68.2220691 C135.775919,67.7130665 136.396545,67.1225788 136.504262,67.0427681 C136.613095,66.9629573 136.257016,66.6984099 135.965121,66.7748719 Z" id="Shape-Copy-14" fill="#8D54F0" transform="translate(136.086522, 53.189231) rotate(7.000000) translate(-136.086522, -53.189231) "></path>
            <path d="M141.649318,118.563053 C141.490878,118.698055 140.901649,119.396035 140.62977,120.341519 C140.35789,121.287004 140.562269,122.592494 140.584769,122.907968 C140.607269,123.222973 141.355407,123.087971 141.468377,122.975469 C141.580879,122.862967 141.444939,122.817966 141.377438,121.309504 C141.309468,119.801042 142.012136,119.013529 142.012136,118.923527 C142.012136,118.833526 141.78807,118.445394 141.649318,118.562584 L141.649318,118.563053 Z M149.354288,137.090232 C147.699573,137.045231 145.909857,137.833213 145.932357,139.612148 C145.954857,141.390146 147.518633,142.020625 148.69709,142.088126 C149.876015,142.155159 152.958097,141.930155 152.912628,140.128719 C152.867158,138.327752 151.328227,137.142733 149.354757,137.089763 L149.354288,137.090232 Z M148.923968,141.119673 C147.881451,141.119673 147.111282,140.26419 147.088313,139.58871 C147.064875,138.913699 147.699573,137.922745 149.444758,137.877745 C150.236959,137.857119 151.665732,138.418222 151.755734,139.701212 C151.846673,140.984671 149.965079,141.119673 148.9235,141.119673 L148.923968,141.119673 Z M149.014439,112.102165 C143.394034,111.944663 139.609753,115.636598 138.772083,118.968528 C137.933007,122.300458 139.615847,126.77475 139.791162,126.824907 C142.465425,127.590388 146.249706,125.901454 146.363145,125.699889 C146.476585,125.496916 146.748464,125.294413 145.773917,123.448445 C144.79937,121.602477 146.045796,118.676492 148.833029,119.08103 C151.620731,119.486036 152.006519,121.75998 151.620731,123.515478 C151.235413,125.271913 149.853515,126.848345 148.40271,128.873378 C146.952374,130.899818 147.019875,134.006275 147.201753,134.524252 C147.383162,135.041761 151.439322,135.154731 152.3684,134.997697 C153.297478,134.839726 152.935597,135.650208 154.090616,131.507796 C155.246572,127.365853 158.532095,126.284898 158.691004,120.544491 C158.849913,114.803616 154.634375,112.260137 149.014439,112.102165 Z M157.513016,121.377005 C157.377076,121.242003 156.33409,119.036029 156.10768,119.036029 C155.88127,119.036029 155.631891,119.328534 155.699861,119.396035 C155.767831,119.463536 157.354576,121.849982 157.376607,122.074985 C157.399108,122.299989 157.127228,123.290474 157.104728,123.223442 C157.082227,123.155472 155.631891,120.38652 155.495951,120.38652 C155.360012,120.38652 155.042663,120.701525 155.156102,120.859028 C155.269541,121.016999 156.923319,123.830952 156.923319,123.830952 C156.923319,123.830952 156.492999,124.888938 156.425029,124.843468 C156.357059,124.798936 154.884223,121.917483 154.793752,121.917483 C154.703282,121.917483 154.498435,122.322489 154.543904,122.43546 C154.589374,122.547962 156.198619,125.204412 156.198619,125.383946 C156.198619,125.564418 155.495483,126.3974 155.495483,126.3974 C155.495483,126.3974 154.248587,123.583448 154.136085,123.583448 C154.022177,123.583448 153.773267,124.123925 153.773267,124.123925 C153.773267,124.123925 155.178134,126.892877 155.178134,126.959909 C155.178134,127.027879 154.656875,127.838361 154.656875,127.838361 C154.656875,127.838361 153.614827,125.316445 153.546857,125.316445 C153.478887,125.316445 153.161538,125.743952 153.207008,125.833953 C153.252477,125.923955 154.317963,128.175398 154.317963,128.2879 C154.317963,128.400402 153.886706,129.637922 153.818736,129.570421 C153.750766,129.50292 152.66278,126.823501 152.571841,126.801469 C152.481839,126.778031 152.119021,127.273977 152.23246,127.431479 C152.3459,127.588982 153.546857,130.11043 153.546857,130.222932 C153.546857,130.335433 153.229508,131.280449 153.161538,131.257948 C153.093568,131.235448 151.778703,128.309463 151.778703,128.309463 C151.778703,128.309463 151.370884,128.75947 151.416822,128.894472 C151.46276,129.029474 152.844658,131.866396 152.844658,131.866396 L152.3909,132.991414 C152.3909,132.991414 151.008065,129.727455 150.940564,129.727455 C150.872594,129.727455 150.600715,130.289964 150.646184,130.425904 C150.691654,130.561843 152.277461,133.621894 152.23246,133.779865 C152.186991,133.937367 151.688701,134.004869 151.575262,133.914867 C151.461823,133.824866 150.056487,131.055445 150.056487,131.055445 C150.056487,131.055445 149.717106,131.505453 149.830546,131.641392 C149.943985,131.776395 151.122442,133.937367 151.009003,133.937367 C150.895563,133.937367 150.147895,134.07237 150.147895,133.937367 C150.147895,133.802365 149.626636,132.587345 149.513197,132.563907 C149.399758,132.54047 149.059908,132.699847 149.08194,132.834381 C149.105378,132.97032 149.761638,133.915336 149.603667,133.915336 C149.445227,133.915336 148.42521,133.802834 148.38021,133.735333 C148.334271,133.667832 148.402241,131.213417 149.218348,129.728392 C150.033987,128.24243 152.616842,125.315976 152.79872,123.267505 C152.980129,121.219034 152.345431,119.598538 150.237896,118.338049 C148.129893,117.077091 145.20672,118.225547 144.481552,120.724026 C143.756384,123.222504 145.36516,125.024409 145.36516,125.204412 C145.36516,125.384415 142.215108,126.32943 140.651333,125.790359 C140.651333,125.790359 139.426938,122.908436 139.699755,120.207455 C139.971634,117.505535 142.577927,114.871586 144.481083,113.971102 C146.384239,113.070619 150.781186,112.710144 153.160132,113.656097 C155.539077,114.60205 156.695502,116.807555 157.012383,117.79804 C157.012383,117.79804 156.423154,117.415534 156.355184,117.438034 C156.287214,117.460534 156.151743,117.865541 156.287683,117.955543 C156.423623,118.045544 157.398639,119.261033 157.46614,119.486505 C157.53411,119.711509 157.647549,121.511538 157.511609,121.376536 L157.513016,121.377005 Z M148.515212,138.508224 C147.744574,138.710727 147.654104,139.678712 147.744574,140.039186 C147.835044,140.399192 148.379272,140.331691 148.492243,140.26419 C148.605682,140.196689 148.492243,140.151688 148.424273,139.723712 C148.356303,139.296205 148.877561,138.80026 148.968032,138.733227 C149.059439,138.666195 148.760372,138.444004 148.515212,138.508224 Z" id="Shape-Copy-4" fill="#FF9500" transform="translate(148.617176, 127.097759) rotate(6.000000) translate(-148.617176, -127.097759) "></path>
            <path d="M183.9585,57.2057833 C183.78431,57.3542055 183.136509,58.1215686 182.837603,59.1610391 C182.538698,60.2005095 182.763392,61.6357724 182.788129,61.9826061 C182.812866,62.3289245 183.635373,62.1805023 183.759573,62.0568172 C183.883258,61.9331321 183.733805,61.883658 183.659594,60.2252466 C183.584868,58.5668351 184.357385,57.7010392 184.357385,57.6020911 C184.357385,57.503143 184.111045,57.0764293 183.9585,57.205268 L183.9585,57.2057833 Z M192.429385,77.5746628 C190.610183,77.5251888 188.642559,78.3915 188.667296,80.3472712 C188.692033,82.3020116 190.411256,82.9951637 191.706858,83.0693747 C193.002975,83.1430705 196.391432,82.8957002 196.341443,80.9151921 C196.291453,78.9351993 194.599544,77.6323826 192.429901,77.5741475 L192.429385,77.5746628 Z M191.95629,82.0046519 C190.810141,82.0046519 189.963413,81.0641296 189.938161,80.3215034 C189.912393,79.5793927 190.610183,78.4899328 192.528849,78.4404587 C193.399798,78.4177831 194.970599,79.0346627 195.069547,80.4451886 C195.169526,81.8562298 193.100892,82.0046519 191.955774,82.0046519 L191.95629,82.0046519 Z M192.055753,50.1026494 C185.87665,49.9294902 181.716192,53.9884239 180.795253,57.6515652 C179.872768,61.3147064 181.722891,66.2337671 181.915634,66.2889101 C184.855733,67.1304843 189.016191,65.2736613 189.140907,65.0520588 C189.265623,64.8289102 189.564528,64.6062769 188.493106,62.5768101 C187.421684,60.5473433 188.792012,57.3304992 191.856311,57.7752503 C194.921125,58.2205168 195.345262,60.7205024 194.921125,62.6505058 C194.497504,64.5815399 192.978238,66.3146778 191.383215,68.5410101 C189.788708,70.7688886 189.862919,74.1841442 190.062876,74.7536112 C190.262319,75.3225628 194.721683,75.4467632 195.743116,75.2741194 C196.764549,75.1004449 196.366695,75.9914932 197.636529,71.4373036 C198.907394,66.8836294 202.519515,65.6952214 202.69422,59.3841877 C202.868926,53.0726386 198.234341,50.2763239 192.055753,50.1026494 Z M201.399134,60.2994576 C201.249681,60.1510355 200.103017,57.7257762 199.854101,57.7257762 C199.605184,57.7257762 199.331016,58.0473576 199.405742,58.1215686 C199.480468,58.1957797 201.224944,60.8194505 201.249166,61.0668208 C201.273903,61.3141911 200.974997,62.4031356 200.95026,62.3294398 C200.925523,62.2547134 199.331016,59.2105131 199.181563,59.2105131 C199.03211,59.2105131 198.683215,59.5568315 198.807931,59.7299907 C198.932646,59.9036652 200.750818,62.9973395 200.750818,62.9973395 C200.750818,62.9973395 200.277722,64.1604951 200.202996,64.1105057 C200.128269,64.061547 198.509025,60.8936616 198.409561,60.8936616 C198.310098,60.8936616 198.084888,61.3389281 198.134877,61.4631286 C198.184867,61.5868137 199.954079,64.5073288 199.954079,64.7047097 C199.954079,64.9031213 199.181047,65.8189066 199.181047,65.8189066 C199.181047,65.8189066 197.810204,62.7252323 197.686519,62.7252323 C197.561288,62.7252323 197.287634,63.3194362 197.287634,63.3194362 C197.287634,63.3194362 198.832152,66.3636365 198.832152,66.4373322 C198.832152,66.5120587 198.259078,67.403107 198.259078,67.403107 C198.259078,67.403107 197.113444,64.6304986 197.038718,64.6304986 C196.963991,64.6304986 196.615096,65.1005021 196.665086,65.1994502 C196.715075,65.2983983 197.886476,67.773647 197.886476,67.8973321 C197.886476,68.0210172 197.41235,69.3815537 197.337624,69.3073426 C197.262897,69.2331315 196.066759,66.287364 195.96678,66.2631423 C195.867832,66.2373746 195.468947,66.7826199 195.593663,66.9557791 C195.718379,67.1289382 197.038718,69.9010312 197.038718,70.0247164 C197.038718,70.1484015 196.689823,71.1873566 196.615096,71.1626196 C196.54037,71.1378825 195.0948,67.9210384 195.0948,67.9210384 C195.0948,67.9210384 194.646441,68.415779 194.696946,68.5642011 C194.747451,68.7126233 196.266716,71.83155 196.266716,71.83155 L195.767853,73.0684013 C195.767853,73.0684013 194.247557,69.4799864 194.173346,69.4799864 C194.098619,69.4799864 193.799713,70.0984121 193.849703,70.2478649 C193.899692,70.3973178 195.643137,73.7615533 195.593663,73.9352279 C195.543674,74.1083871 194.995852,74.1825981 194.871136,74.08365 C194.74642,73.9847019 193.201387,70.9399863 193.201387,70.9399863 C193.201387,70.9399863 192.82827,71.4347268 192.952986,71.5841797 C193.077702,71.7326019 194.373303,74.1083871 194.248587,74.1083871 C194.123872,74.1083871 193.301881,74.2568092 193.301881,74.1083871 C193.301881,73.9599649 192.728806,72.6241655 192.604091,72.5983978 C192.479375,72.57263 192.105743,72.7478506 192.129964,72.8957574 C192.155732,73.0452103 192.877229,74.0841654 192.703554,74.0841654 C192.529364,74.0841654 191.407952,73.9604803 191.358478,73.8862692 C191.307973,73.8120581 191.3827,71.1136609 192.279932,69.4810171 C193.17665,67.8473427 196.016254,64.6299833 196.216212,62.3778832 C196.415654,60.1257831 195.717864,58.3442019 193.400829,56.9584131 C191.083279,55.5721089 187.869527,56.8347279 187.072273,59.5815685 C186.275019,62.3284091 188.043717,64.3094326 188.043717,64.5073288 C188.043717,64.7052251 184.580533,65.7441801 182.86131,65.1515222 C182.86131,65.1515222 181.515203,61.9831215 181.81514,59.0136476 C182.114045,56.0431431 184.979418,53.147365 187.071758,52.1573686 C189.164098,51.1673722 193.998125,50.7710644 196.61355,51.8110502 C199.228975,52.851036 200.500355,55.2757799 200.848735,56.3647244 C200.848735,56.3647244 200.200934,55.944195 200.126208,55.968932 C200.051481,55.9936691 199.902544,56.4389355 200.051997,56.5378836 C200.20145,56.6368317 201.273387,57.9731465 201.347599,58.2210321 C201.422325,58.4684024 201.547041,60.4473644 201.397588,60.2989423 L201.399134,60.2994576 Z M191.5069,79.1336108 C190.659657,79.3562441 190.560194,80.4204515 190.659657,80.8167593 C190.759121,81.2125517 191.357448,81.1383406 191.481648,81.0641296 C191.606364,80.9899185 191.481648,80.9404444 191.406922,80.4699256 C191.332195,79.9999221 191.90527,79.4546768 192.004733,79.3809811 C192.105227,79.3072854 191.776431,79.0630072 191.5069,79.1336108 Z" id="Shape-Copy-8" fill="#5543FF" transform="translate(191.619000, 66.588885) rotate(-2.000000) translate(-191.619000, -66.588885) "></path>
            <path d="M37.703037,173.196213 C37.6286565,173.25959 37.35204,173.587261 37.2244048,174.031123 C37.0967695,174.474986 37.192716,175.087855 37.2032789,175.235956 C37.2138418,175.383837 37.5650589,175.32046 37.6180935,175.267645 C37.6709081,175.214831 37.6070905,175.193705 37.5754017,174.485549 C37.5434929,173.777393 37.8733641,173.407691 37.8733641,173.36544 C37.8733641,173.323188 37.768175,173.140978 37.703037,173.195993 L37.703037,173.196213 Z M41.3201764,181.893896 C40.5433618,181.87277 39.7031696,182.242692 39.7137326,183.077823 C39.7242955,183.912514 40.4584183,184.208495 41.0116512,184.240184 C41.5651041,184.271653 43.0120039,184.166024 42.990658,183.32033 C42.9693121,182.474856 42.2468525,181.918543 41.3203965,181.893676 L41.3201764,181.893896 Z M41.1181606,183.785539 C40.6287454,183.785539 40.2671855,183.383928 40.2564025,183.06682 C40.2453995,182.749932 40.5433618,182.284724 41.3626482,182.263598 C41.7345509,182.253915 42.4052962,182.517328 42.4475479,183.119635 C42.4902397,183.722161 41.6069156,183.785539 41.1179405,183.785539 L41.1181606,183.785539 Z M41.1606323,170.163115 C38.5221033,170.089174 36.7455525,171.822373 36.3523038,173.386565 C35.958395,174.950758 36.7484132,177.051238 36.830716,177.074784 C38.0861629,177.434144 39.8627137,176.641265 39.9159684,176.546639 C39.9692232,176.451352 40.0968584,176.356286 39.639352,175.489686 C39.1818456,174.623087 39.7669873,173.249467 41.0754688,173.43938 C42.3841704,173.629513 42.5652804,174.697027 42.3841704,175.521155 C42.2032804,176.345723 41.5545412,177.085787 40.873453,178.03645 C40.1925849,178.987773 40.2242736,180.446116 40.3096572,180.689283 C40.3948207,180.93223 42.2990069,180.985265 42.7351674,180.911545 C43.1713279,180.837384 43.001441,181.217869 43.5436708,179.273192 C44.0863407,177.328735 45.6287469,176.821274 45.7033475,174.12641 C45.7779481,171.431325 43.7989413,170.237275 41.1606323,170.163115 Z M45.1503347,174.517238 C45.0865171,174.45386 44.5968818,173.418254 44.4905924,173.418254 C44.384303,173.418254 44.2672307,173.555572 44.2991395,173.587261 C44.3310483,173.61895 45.0759541,174.739279 45.086297,174.844908 C45.0968599,174.950538 44.9692247,175.415526 44.9586617,175.384057 C44.9480988,175.352148 44.2672307,174.052249 44.2034131,174.052249 C44.1395954,174.052249 43.9906143,174.20013 44.043869,174.274071 C44.0971237,174.348231 44.8734982,175.669256 44.8734982,175.669256 C44.8734982,175.669256 44.6714824,176.165933 44.6395736,176.144587 C44.6076648,176.123682 43.9162337,174.770968 43.873762,174.770968 C43.8312902,174.770968 43.7351237,174.9611 43.7564696,175.014135 C43.7778155,175.06695 44.5332842,176.314034 44.5332842,176.398318 C44.5332842,176.483041 44.203193,176.874089 44.203193,176.874089 C44.203193,176.874089 43.6178313,175.553064 43.5650167,175.553064 C43.5115419,175.553064 43.3946896,175.806794 43.3946896,175.806794 C43.3946896,175.806794 44.0542118,177.106693 44.0542118,177.138162 C44.0542118,177.170071 43.8095042,177.550556 43.8095042,177.550556 C43.8095042,177.550556 43.3203091,176.366629 43.2884002,176.366629 C43.2564914,176.366629 43.1075103,176.567324 43.1288562,176.609576 C43.1502021,176.651828 43.6504003,177.70878 43.6504003,177.761594 C43.6504003,177.814409 43.4479443,178.395369 43.4160355,178.363681 C43.3841267,178.331992 42.8733656,177.074124 42.8306738,177.063781 C42.7884221,177.052778 42.618095,177.285603 42.6713497,177.359543 C42.7246045,177.433484 43.2884002,178.617191 43.2884002,178.670005 C43.2884002,178.72282 43.1394191,179.166462 43.1075103,179.155899 C43.0756014,179.145337 42.4583309,177.771717 42.4583309,177.771717 C42.4583309,177.771717 42.266878,177.982975 42.288444,178.046353 C42.3100099,178.10973 42.9587492,179.441538 42.9587492,179.441538 L42.7457303,179.969684 C42.7457303,179.969684 42.0965509,178.437401 42.0648622,178.437401 C42.0329534,178.437401 41.9053181,178.701474 41.926664,178.765292 C41.9480099,178.829109 42.6924756,180.265666 42.6713497,180.339827 C42.6500039,180.413767 42.4160792,180.445456 42.3628245,180.403204 C42.3095698,180.360952 41.6498275,179.060833 41.6498275,179.060833 C41.6498275,179.060833 41.4905035,179.272092 41.5437582,179.335909 C41.5970129,179.399287 42.1502458,180.413767 42.0969911,180.413767 C42.0437363,180.413767 41.6927394,180.477145 41.6927394,180.413767 C41.6927394,180.350389 41.4480317,179.779992 41.394777,179.768989 C41.3415223,179.757986 41.1819782,179.832806 41.1923211,179.895964 C41.2033241,179.959782 41.5114093,180.403424 41.4372488,180.403424 C41.3628682,180.403424 40.8840159,180.35061 40.8628901,180.318921 C40.8413241,180.287232 40.8732329,179.134994 41.2563588,178.437841 C41.6392646,177.740248 42.8517996,176.366409 42.9371832,175.404743 C43.0223467,174.443077 42.7243844,173.682327 41.734991,173.090584 C40.7453776,172.49862 39.3730784,173.037769 39.0326444,174.210693 C38.6922103,175.383617 39.447459,176.229531 39.447459,176.314034 C39.447459,176.398538 37.9686504,176.84218 37.2345276,176.58911 C37.2345276,176.58911 36.6597287,175.236176 36.7878041,173.968186 C36.9154394,172.699756 38.1389775,171.463234 39.0324243,171.040497 C39.9258712,170.61776 41.9900415,170.448534 43.1068501,170.892616 C44.2236587,171.336699 44.7665487,172.372085 44.9153098,172.837074 C44.9153098,172.837074 44.6386933,172.657504 44.6067845,172.668067 C44.5748757,172.67863 44.5112781,172.868762 44.5750958,172.911014 C44.6389134,172.953266 45.0966399,173.523883 45.1283286,173.629733 C45.1602374,173.735362 45.2134921,174.580395 45.1496745,174.517018 L45.1503347,174.517238 Z M40.9262676,182.55958 C40.5644876,182.654646 40.5220159,183.109072 40.5644876,183.278298 C40.6069594,183.447305 40.86245,183.415616 40.9154846,183.383928 C40.9687393,183.352239 40.9154846,183.331113 40.8835758,183.130198 C40.851667,182.929502 41.0963746,182.696678 41.1388463,182.665209 C41.1817582,182.63374 41.0413594,182.529432 40.9262676,182.55958 Z" id="Shape-Copy-11" fill-opacity="0.4" fill="#5543FF" transform="translate(40.974135, 177.202876) rotate(-2.000000) translate(-40.974135, -177.202876) "></path>
            <path d="M240.879086,123.902616 L240.879086,127.785333 C240.879086,127.957898 240.814374,128.108893 240.68495,128.238317 C240.555526,128.367741 240.404532,128.432453 240.231966,128.432453 L236.34925,128.432453 C236.176685,128.432453 236.02569,128.367741 235.896266,128.238317 C235.766842,128.108893 235.70213,127.957898 235.70213,127.785333 L235.70213,123.902616 C235.70213,123.730051 235.766842,123.579057 235.896266,123.449633 C236.02569,123.320209 236.176685,123.255497 236.34925,123.255497 L240.231966,123.255497 C240.404532,123.255497 240.555526,123.320209 240.68495,123.449633 C240.814374,123.579057 240.879086,123.730051 240.879086,123.902616 Z M245.991329,114.195825 C245.991329,114.778232 245.907743,115.322891 245.740571,115.829801 C245.573398,116.336712 245.384655,116.74925 245.174341,117.067417 C244.964027,117.385584 244.667431,117.706448 244.284552,118.030008 C243.901673,118.353567 243.591595,118.588148 243.354318,118.73375 C243.117041,118.879352 242.788088,119.070791 242.367461,119.308068 C241.925262,119.556131 241.555865,119.906654 241.259268,120.359637 C240.962672,120.812621 240.814374,121.173929 240.814374,121.443563 C240.814374,121.626913 240.749662,121.802175 240.620238,121.969347 C240.490814,122.13652 240.33982,122.220106 240.167254,122.220106 L236.284538,122.220106 C236.122758,122.220106 235.985245,122.120342 235.871999,121.920813 C235.758753,121.721285 235.70213,121.51906 235.70213,121.314139 L235.70213,120.586129 C235.70213,119.690947 236.052653,118.846996 236.753699,118.054274 C237.454745,117.261553 238.225896,116.676449 239.067151,116.298963 C239.703486,116.007759 240.156469,115.70577 240.426102,115.392996 C240.695735,115.080221 240.830552,114.670379 240.830552,114.163469 C240.830552,113.710485 240.579793,113.311428 240.078276,112.966298 C239.576758,112.621168 238.997047,112.448602 238.339142,112.448602 C237.638096,112.448602 237.055688,112.60499 236.59192,112.917764 C236.214433,113.187397 235.637418,113.807553 234.860875,114.778232 C234.720666,114.950798 234.553493,115.03708 234.359357,115.03708 C234.229934,115.03708 234.095117,114.993939 233.954908,114.907656 L231.301718,112.885408 C231.161509,112.777555 231.077923,112.642738 231.050959,112.480958 C231.023996,112.319178 231.053656,112.168184 231.139938,112.027975 C232.86559,109.159079 235.367785,107.72463 238.646524,107.72463 C239.50935,107.72463 240.377568,107.891803 241.251179,108.226148 C242.124791,108.560493 242.912119,109.008084 243.613165,109.568921 C244.314212,110.129758 244.885834,110.817322 245.328032,111.631614 C245.77023,112.445906 245.991329,113.300643 245.991329,114.195825 Z" id="Shape" fill="#0AD895" transform="translate(238.516329, 118.078541) rotate(6.000000) translate(-238.516329, -118.078541) "></path>
            <path d="M111.522132,187.318707 L111.522132,191.201424 C111.522132,191.373989 111.45742,191.524983 111.327996,191.654407 C111.198572,191.783831 111.047578,191.848543 110.875013,191.848543 L106.992296,191.848543 C106.819731,191.848543 106.668736,191.783831 106.539312,191.654407 C106.409888,191.524983 106.345176,191.373989 106.345176,191.201424 L106.345176,187.318707 C106.345176,187.146142 106.409888,186.995147 106.539312,186.865723 C106.668736,186.736299 106.819731,186.671587 106.992296,186.671587 L110.875013,186.671587 C111.047578,186.671587 111.198572,186.736299 111.327996,186.865723 C111.45742,186.995147 111.522132,187.146142 111.522132,187.318707 Z M116.634376,177.611915 C116.634376,178.194323 116.550789,178.738982 116.383617,179.245892 C116.216444,179.752802 116.027701,180.165341 115.817387,180.483508 C115.607073,180.801675 115.310477,181.122538 114.927598,181.446098 C114.544719,181.769658 114.234641,182.004239 113.997364,182.14984 C113.760087,182.295442 113.431134,182.486882 113.010507,182.724159 C112.568308,182.972221 112.198911,183.322744 111.902315,183.775728 C111.605718,184.228712 111.45742,184.59002 111.45742,184.859653 C111.45742,185.043004 111.392708,185.218265 111.263284,185.385438 C111.13386,185.55261 110.982866,185.636196 110.810301,185.636196 L106.927584,185.636196 C106.765804,185.636196 106.628291,185.536432 106.515045,185.336904 C106.401799,185.137375 106.345176,184.93515 106.345176,184.730229 L106.345176,184.00222 C106.345176,183.107038 106.695699,182.263086 107.396746,181.470365 C108.097792,180.677644 108.868942,180.09254 109.710198,179.715054 C110.346532,179.42385 110.799515,179.121861 111.069148,178.809086 C111.338781,178.496312 111.473598,178.08647 111.473598,177.579559 C111.473598,177.126576 111.222839,176.727519 110.721322,176.382388 C110.219804,176.037258 109.640093,175.864693 108.982188,175.864693 C108.281142,175.864693 107.698735,176.02108 107.234966,176.333854 C106.857479,176.603488 106.280465,177.223644 105.503921,178.194323 C105.363712,178.366888 105.196539,178.453171 105.002404,178.453171 C104.87298,178.453171 104.738163,178.410029 104.597954,178.323747 L101.944764,176.301498 C101.804555,176.193645 101.720969,176.058829 101.694005,175.897049 C101.667042,175.735269 101.696702,175.584274 101.782984,175.444065 C103.508636,172.575169 106.010831,171.140721 109.28957,171.140721 C110.152396,171.140721 111.020614,171.307893 111.894226,171.642239 C112.767837,171.976584 113.555166,172.424174 114.256212,172.985011 C114.957258,173.545848 115.52888,174.233413 115.971078,175.047705 C116.413276,175.861997 116.634376,176.716733 116.634376,177.611915 Z" id="Shape-Copy-6" fill="#8D54F0" transform="translate(109.159376, 181.494632) rotate(-10.000000) translate(-109.159376, -181.494632) "></path>
            <path d="M47.7063407,103.583261 L47.7063407,106.180136 C47.7063407,106.295552 47.6630595,106.396542 47.576497,106.483104 C47.4899345,106.569667 47.3889449,106.612948 47.2735282,106.612948 L44.6766531,106.612948 C44.5612365,106.612948 44.4602469,106.569667 44.3736844,106.483104 C44.2871219,106.396542 44.2438406,106.295552 44.2438406,106.180136 L44.2438406,103.583261 C44.2438406,103.467844 44.2871219,103.366854 44.3736844,103.280292 C44.4602469,103.193729 44.5612365,103.150448 44.6766531,103.150448 L47.2735282,103.150448 C47.3889449,103.150448 47.4899345,103.193729 47.576497,103.280292 C47.6630595,103.366854 47.7063407,103.467844 47.7063407,103.583261 Z M51.1255596,97.0910728 C51.1255596,97.4806041 51.0696546,97.844888 50.9578447,98.1839244 C50.8460348,98.5229609 50.7197978,98.7988789 50.5791338,99.0116784 C50.4384697,99.2244778 50.2400973,99.4390807 49.9840166,99.655487 C49.7279358,99.8718932 49.5205465,100.028788 49.3618486,100.126171 C49.2031507,100.223553 48.9831376,100.351594 48.7018095,100.510292 C48.4060543,100.676203 48.1589905,100.910643 47.9606181,101.213612 C47.7622457,101.516581 47.6630595,101.758234 47.6630595,101.938573 C47.6630595,102.061203 47.6197782,102.178423 47.5332157,102.290233 C47.4466532,102.402043 47.3456636,102.457948 47.230247,102.457948 L44.6333719,102.457948 C44.5251688,102.457948 44.4331961,102.391223 44.3574539,102.257772 C44.2817117,102.124322 44.2438406,101.989068 44.2438406,101.85201 L44.2438406,101.365096 C44.2438406,100.766372 44.4782807,100.201913 44.947161,99.6717174 C45.4160412,99.1415221 45.9318094,98.7501875 46.4944657,98.4977135 C46.9200647,98.3029479 47.2230334,98.1009687 47.403372,97.891776 C47.5837105,97.6825833 47.6738798,97.4084687 47.6738798,97.0694322 C47.6738798,96.7664634 47.5061649,96.4995624 47.1707352,96.2687291 C46.8353055,96.0378957 46.4475777,95.922479 46.0075516,95.922479 C45.5386714,95.922479 45.1491401,96.0270754 44.8389578,96.2362681 C44.5864839,96.4166067 44.2005594,96.8313853 43.6811844,97.4806041 C43.5874083,97.5960208 43.4755984,97.6537291 43.3457547,97.6537291 C43.2591922,97.6537291 43.1690229,97.6248749 43.0752468,97.5671666 L41.3007155,96.2146275 C41.2069395,96.1424921 41.1510345,96.0523228 41.1330007,95.9441197 C41.1149668,95.8359165 41.1348041,95.734927 41.1925124,95.6411509 C42.3466791,93.7223488 44.0202208,92.7629477 46.2131375,92.7629477 C46.7902209,92.7629477 47.370911,92.8747576 47.9552079,93.0983774 C48.5395048,93.3219972 49.0660934,93.6213592 49.5349736,93.9964634 C50.0038538,94.3715675 50.3861715,94.8314308 50.6819267,95.3760533 C50.977682,95.9206757 51.1255596,96.4923489 51.1255596,97.0910728 Z" id="Shape-Copy-10" fill-opacity="0.25" fill="#8D54F0" opacity="0.4" transform="translate(46.126060, 99.687948) rotate(-10.000000) translate(-46.126060, -99.687948) "></path>
            <path d="M240.879086,78.2026482 L240.879086,82.0853648 C240.879086,82.25793 240.814374,82.4089245 240.68495,82.5383484 C240.555526,82.6677723 240.404532,82.7324842 240.231966,82.7324842 L236.34925,82.7324842 C236.176685,82.7324842 236.02569,82.6677723 235.896266,82.5383484 C235.766842,82.4089245 235.70213,82.25793 235.70213,82.0853648 L235.70213,78.2026482 C235.70213,78.030083 235.766842,77.8790884 235.896266,77.7496646 C236.02569,77.6202407 236.176685,77.5555287 236.34925,77.5555287 L240.231966,77.5555287 C240.404532,77.5555287 240.555526,77.6202407 240.68495,77.7496646 C240.814374,77.8790884 240.879086,78.030083 240.879086,78.2026482 Z M245.991329,68.4958566 C245.991329,69.0782641 245.907743,69.6229229 245.740571,70.1298332 C245.573398,70.6367434 245.384655,71.049282 245.174341,71.3674491 C244.964027,71.6856161 244.667431,72.0064795 244.284552,72.3300392 C243.901673,72.653599 243.591595,72.8881798 243.354318,73.0337816 C243.117041,73.1793835 242.788088,73.370823 242.367461,73.6081001 C241.925262,73.8561626 241.555865,74.2066856 241.259268,74.6596692 C240.962672,75.1126528 240.814374,75.4739612 240.814374,75.7435943 C240.814374,75.9269448 240.749662,76.1022063 240.620238,76.2693788 C240.490814,76.4365514 240.33982,76.5201376 240.167254,76.5201376 L236.284538,76.5201376 C236.122758,76.5201376 235.985245,76.4203734 235.871999,76.2208449 C235.758753,76.0213164 235.70213,75.8190916 235.70213,75.6141704 L235.70213,74.886161 C235.70213,73.9909791 236.052653,73.1470275 236.753699,72.3543062 C237.454745,71.5615849 238.225896,70.9764811 239.067151,70.5989947 C239.703486,70.307791 240.156469,70.0058019 240.426102,69.6930275 C240.695735,69.3802531 240.830552,68.9704108 240.830552,68.4635006 C240.830552,68.010517 240.579793,67.61146 240.078276,67.2663296 C239.576758,66.9211993 238.997047,66.7486341 238.339142,66.7486341 C237.638096,66.7486341 237.055688,66.9050213 236.59192,67.2177957 C236.214433,67.4874288 235.637418,68.1075849 234.860875,69.0782641 C234.720666,69.2508292 234.553493,69.3371118 234.359357,69.3371118 C234.229934,69.3371118 234.095117,69.2939705 233.954908,69.207688 L231.301718,67.1854397 C231.161509,67.0775865 231.077923,66.9427699 231.050959,66.7809901 C231.023996,66.6192102 231.053656,66.4682157 231.139938,66.3280064 C232.86559,63.4591103 235.367785,62.0246622 238.646524,62.0246622 C239.50935,62.0246622 240.377568,62.1918347 241.251179,62.5261797 C242.124791,62.8605248 242.912119,63.3081157 243.613165,63.8689526 C244.314212,64.4297894 244.885834,65.1173538 245.328032,65.9316458 C245.77023,66.7459378 245.991329,67.6006747 245.991329,68.4958566 Z" id="Shape-Copy-5" fill="#FF9500" transform="translate(238.516329, 72.378573) rotate(6.000000) translate(-238.516329, -72.378573) "></path>
            <path d="M36.8210018,145.043973 L36.8210018,147.121473 C36.8210018,147.213807 36.7863768,147.294598 36.7171268,147.363848 C36.6478768,147.433098 36.5670852,147.467723 36.4747518,147.467723 L34.3972518,147.467723 C34.3049185,147.467723 34.2241268,147.433098 34.1548768,147.363848 C34.0856268,147.294598 34.0510018,147.213807 34.0510018,147.121473 L34.0510018,145.043973 C34.0510018,144.95164 34.0856268,144.870848 34.1548768,144.801598 C34.2241268,144.732348 34.3049185,144.697723 34.3972518,144.697723 L36.4747518,144.697723 C36.5670852,144.697723 36.6478768,144.732348 36.7171268,144.801598 C36.7863768,144.870848 36.8210018,144.95164 36.8210018,145.043973 Z M39.5563768,139.850223 C39.5563768,140.161848 39.5116528,140.453275 39.4222049,140.724505 C39.332757,140.995734 39.2317674,141.216468 39.1192362,141.386708 C39.0067049,141.556947 38.848007,141.72863 38.6431424,141.901755 C38.4382779,142.07488 38.2723664,142.200395 38.1454081,142.278301 C38.0184497,142.356208 37.8424393,142.45864 37.6173768,142.585598 C37.3807727,142.718327 37.1831216,142.90588 37.0244237,143.148255 C36.8657258,143.39063 36.7863768,143.583952 36.7863768,143.728223 C36.7863768,143.826327 36.7517518,143.920103 36.6825018,144.009551 C36.6132518,144.098999 36.5324602,144.143723 36.4401268,144.143723 L34.3626268,144.143723 C34.2760643,144.143723 34.2024862,144.090343 34.1418925,143.983583 C34.0812987,143.876822 34.0510018,143.768619 34.0510018,143.658973 L34.0510018,143.269442 C34.0510018,142.790463 34.2385539,142.338895 34.6136581,141.914739 C34.9887623,141.490583 35.4013768,141.177515 35.8515018,140.975536 C36.191981,140.819723 36.434356,140.65814 36.5786268,140.490786 C36.7228977,140.323432 36.7950331,140.10414 36.7950331,139.832911 C36.7950331,139.590536 36.6608612,139.377015 36.3925175,139.192348 C36.1241737,139.007682 35.8139914,138.915348 35.4619706,138.915348 C35.0868664,138.915348 34.7752414,138.999025 34.5270956,139.16638 C34.3251164,139.31065 34.0163768,139.642473 33.6008768,140.161848 C33.525856,140.254182 33.4364081,140.300348 33.3325331,140.300348 C33.2632831,140.300348 33.1911477,140.277265 33.1161269,140.231098 L31.6965019,139.149067 C31.621481,139.091359 31.5767571,139.019223 31.56233,138.932661 C31.5479029,138.846098 31.5637727,138.765307 31.6099394,138.690286 C32.5332727,137.155244 33.872106,136.387723 35.6264393,136.387723 C36.088106,136.387723 36.5526581,136.477171 37.0200956,136.656067 C37.4875331,136.834963 37.9088039,137.074452 38.2839081,137.374536 C38.6590122,137.674619 38.9648664,138.04251 39.2014706,138.478208 C39.4380747,138.913906 39.5563768,139.371244 39.5563768,139.850223 Z" id="Shape-Copy-12" fill-opacity="0.2" fill="#FF9500" transform="translate(35.556777, 141.927723) rotate(6.000000) translate(-35.556777, -141.927723) "></path>
            <path d="M68.8790858,164.902616 L68.8790858,168.785333 C68.8790858,168.957898 68.8143739,169.108893 68.68495,169.238317 C68.5555261,169.367741 68.4045316,169.432453 68.2319664,169.432453 L64.3492497,169.432453 C64.1766846,169.432453 64.02569,169.367741 63.8962661,169.238317 C63.7668422,169.108893 63.7021303,168.957898 63.7021303,168.785333 L63.7021303,164.902616 C63.7021303,164.730051 63.7668422,164.579057 63.8962661,164.449633 C64.02569,164.320209 64.1766846,164.255497 64.3492497,164.255497 L68.2319664,164.255497 C68.4045316,164.255497 68.5555261,164.320209 68.68495,164.449633 C68.8143739,164.579057 68.8790858,164.730051 68.8790858,164.902616 Z M73.9913294,155.195825 C73.9913294,155.778232 73.9077431,156.322891 73.7405706,156.829801 C73.5733981,157.336712 73.3846549,157.74925 73.1743411,158.067417 C72.9640273,158.385584 72.6674309,158.706448 72.2845519,159.030008 C71.9016729,159.353567 71.5915948,159.588148 71.3543177,159.73375 C71.1170405,159.879352 70.7880882,160.070791 70.3674605,160.308068 C69.9252622,160.556131 69.5558649,160.906654 69.2592685,161.359637 C68.9626721,161.812621 68.8143739,162.173929 68.8143739,162.443563 C68.8143739,162.626913 68.7496619,162.802175 68.620238,162.969347 C68.4908142,163.13652 68.3398196,163.220106 68.1672544,163.220106 L64.2845378,163.220106 C64.1227579,163.220106 63.9852451,163.120342 63.8719992,162.920813 C63.7587533,162.721285 63.7021303,162.51906 63.7021303,162.314139 L63.7021303,161.586129 C63.7021303,160.690947 64.0526533,159.846996 64.7536994,159.054274 C65.4547454,158.261553 66.2258961,157.676449 67.0671514,157.298963 C67.7034855,157.007759 68.1564691,156.70577 68.4261022,156.392996 C68.6957353,156.080221 68.8305519,155.670379 68.8305519,155.163469 C68.8305519,154.710485 68.5797931,154.311428 68.0782755,153.966298 C67.5767579,153.621168 66.9970468,153.448602 66.339142,153.448602 C65.638096,153.448602 65.0556885,153.60499 64.5919195,153.917764 C64.2144332,154.187397 63.6374184,154.807553 62.860875,155.778232 C62.7206658,155.950798 62.5534933,156.03708 62.3593575,156.03708 C62.2299336,156.03708 62.095117,155.993939 61.9549078,155.907656 L59.3017181,153.885408 C59.1615089,153.777555 59.0779226,153.642738 59.0509593,153.480958 C59.023996,153.319178 59.0536557,153.168184 59.1399383,153.027975 C60.8655901,150.159079 63.3677853,148.72463 66.6465237,148.72463 C67.5093497,148.72463 68.3775683,148.891803 69.2511795,149.226148 C70.1247907,149.560493 70.9121194,150.008084 71.6131654,150.568921 C72.3142115,151.129758 72.8858337,151.817322 73.328032,152.631614 C73.7702302,153.445906 73.9913294,154.300643 73.9913294,155.195825 Z" id="Shape-Copy-7" fill-opacity="0.8" fill="#12E4FF" opacity="0.7" transform="translate(66.516329, 159.078541) rotate(6.000000) translate(-66.516329, -159.078541) "></path>
            <path d="M202.522132,17.3187069 L202.522132,21.2014236 C202.522132,21.3739887 202.45742,21.5249833 202.327996,21.6544072 C202.198572,21.7838311 202.047578,21.848543 201.875013,21.848543 L197.992296,21.848543 C197.819731,21.848543 197.668736,21.7838311 197.539312,21.6544072 C197.409888,21.5249833 197.345176,21.3739887 197.345176,21.2014236 L197.345176,17.3187069 C197.345176,17.1461417 197.409888,16.9951472 197.539312,16.8657233 C197.668736,16.7362994 197.819731,16.6715875 197.992296,16.6715875 L201.875013,16.6715875 C202.047578,16.6715875 202.198572,16.7362994 202.327996,16.8657233 C202.45742,16.9951472 202.522132,17.1461417 202.522132,17.3187069 Z M207.634376,7.61191533 C207.634376,8.19432283 207.550789,8.73898169 207.383617,9.24589192 C207.216444,9.75280214 207.027701,10.1653408 206.817387,10.4835078 C206.607073,10.8016749 206.310477,11.1225383 205.927598,11.446098 C205.544719,11.7696577 205.234641,12.0042385 204.997364,12.1498404 C204.760087,12.2954423 204.431134,12.4868818 204.010507,12.7241589 C203.568308,12.9722214 203.198911,13.3227444 202.902315,13.775728 C202.605718,14.2287116 202.45742,14.59002 202.45742,14.8596531 C202.45742,15.0430036 202.392708,15.2182651 202.263284,15.3854376 C202.13386,15.5526101 201.982866,15.6361964 201.810301,15.6361964 L197.927584,15.6361964 C197.765804,15.6361964 197.628291,15.5364321 197.515045,15.3369036 C197.401799,15.1373751 197.345176,14.9351503 197.345176,14.7302292 L197.345176,14.0022198 C197.345176,13.1070379 197.695699,12.2630863 198.396746,11.470365 C199.097792,10.6776437 199.868942,10.0925398 200.710198,9.71505351 C201.346532,9.42384976 201.799515,9.12186069 202.069148,8.80908629 C202.338781,8.4963119 202.473598,8.08646959 202.473598,7.57955936 C202.473598,7.12657575 202.222839,6.72751876 201.721322,6.3823884 C201.219804,6.03725803 200.640093,5.86469285 199.982188,5.86469285 C199.281142,5.86469285 198.698735,6.02108004 198.234966,6.33385444 C197.857479,6.60348754 197.280465,7.22364367 196.503921,8.19432283 C196.363712,8.36688801 196.196539,8.4531706 196.002404,8.4531706 C195.87298,8.4531706 195.738163,8.41002931 195.597954,8.32374671 L192.944764,6.30149847 C192.804555,6.19364523 192.720969,6.05882868 192.694005,5.89704882 C192.667042,5.73526896 192.696702,5.58427442 192.782984,5.44406521 C194.508636,2.57516903 197.010831,1.14072094 200.28957,1.14072094 C201.152396,1.14072094 202.020614,1.30789346 202.894226,1.6422385 C203.767837,1.97658355 204.555166,2.42417449 205.256212,2.98501134 C205.957258,3.54584819 206.52888,4.23341259 206.971078,5.04770455 C207.413276,5.86199651 207.634376,6.71673344 207.634376,7.61191533 Z" id="Shape-Copy-15" fill-opacity="0.8" fill="#12E4FF" transform="translate(200.159376, 11.494632) rotate(-10.000000) translate(-200.159376, -11.494632) "></path>
            <path d="M202.912061,124.290034 L202.912061,129.068889 C202.912061,129.281283 202.832413,129.467127 202.673118,129.626423 C202.513823,129.785718 202.327979,129.865365 202.115585,129.865365 L197.336729,129.865365 C197.124336,129.865365 196.938491,129.785718 196.779196,129.626423 C196.619901,129.467127 196.540254,129.281283 196.540254,129.068889 L196.540254,124.290034 C196.540254,124.07764 196.619901,123.891796 196.779196,123.732501 C196.938491,123.573205 197.124336,123.493558 197.336729,123.493558 L202.115585,123.493558 C202.327979,123.493558 202.513823,123.573205 202.673118,123.732501 C202.832413,123.891796 202.912061,124.07764 202.912061,124.290034 Z M209.204221,112.342895 C209.204221,113.059723 209.101343,113.73009 208.895587,114.353996 C208.68983,114.977903 208.457525,115.485656 208.19867,115.877257 C207.939815,116.268857 207.574764,116.663777 207.103516,117.062015 C206.632267,117.460253 206.250623,117.748975 205.958582,117.928182 C205.66654,118.107389 205.261665,118.343013 204.743956,118.635055 C204.199697,118.94037 203.745042,119.371795 203.379991,119.929328 C203.014939,120.486861 202.832413,120.93156 202.832413,121.263425 C202.832413,121.489093 202.752766,121.704806 202.593471,121.910562 C202.434175,122.116318 202.248331,122.219196 202.035937,122.219196 L197.257082,122.219196 C197.057963,122.219196 196.888712,122.096406 196.749328,121.850826 C196.609945,121.605246 196.540254,121.356347 196.540254,121.10413 L196.540254,120.208095 C196.540254,119.106303 196.971678,118.067565 197.834527,117.091882 C198.697376,116.116199 199.64651,115.396052 200.681928,114.931441 C201.46513,114.573027 202.022663,114.201338 202.354528,113.816375 C202.686393,113.431412 202.852325,112.926977 202.852325,112.303071 C202.852325,111.745538 202.543691,111.254377 201.926422,110.82959 C201.309153,110.404803 200.595644,110.19241 199.785893,110.19241 C198.923044,110.19241 198.206216,110.384891 197.635408,110.769855 C197.170797,111.10172 196.460606,111.865009 195.504835,113.059723 C195.332265,113.272117 195.126509,113.378313 194.887566,113.378313 C194.728271,113.378313 194.562338,113.325215 194.389768,113.219018 L191.124217,110.730031 C190.951647,110.597285 190.848769,110.431352 190.815583,110.232233 C190.782396,110.033114 190.818901,109.84727 190.925098,109.6747 C193.049034,106.143657 196.128741,104.378135 200.164219,104.378135 C201.226187,104.378135 202.294792,104.583891 203.370035,104.995404 C204.445277,105.406917 205.414323,105.957812 206.277172,106.648092 C207.140021,107.338371 207.843575,108.184626 208.387833,109.186859 C208.932092,110.189091 209.204221,111.241103 209.204221,112.342895 Z" id="Shape-Copy-3" fill="#5543FF" transform="translate(200.003976, 117.121750) rotate(20.000000) translate(-200.003976, -117.121750) "></path>
            <path d="M5.18805823,175.267568 L5.18805823,176.825694 C5.18805823,176.894944 5.16208948,176.955537 5.11015198,177.007475 C5.05821447,177.059412 4.99762072,177.085381 4.92837072,177.085381 L3.37024564,177.085381 C3.30099563,177.085381 3.24040188,177.059412 3.18846438,177.007475 C3.13652688,176.955537 3.11055812,176.894944 3.11055812,176.825694 L3.11055812,175.267568 C3.11055812,175.198318 3.13652688,175.137725 3.18846438,175.085787 C3.24040188,175.03385 3.30099563,175.007881 3.37024564,175.007881 L4.92837072,175.007881 C4.99762072,175.007881 5.05821447,175.03385 5.11015198,175.085787 C5.16208948,175.137725 5.18805823,175.198318 5.18805823,175.267568 Z M7.23958958,171.372256 C7.23958958,171.605975 7.20604661,171.824545 7.13896067,172.027967 C7.07187473,172.231389 6.99613254,172.396939 6.9117341,172.524619 C6.82733566,172.652299 6.70831221,172.781061 6.55466377,172.910904 C6.40101532,173.040748 6.27658172,173.134885 6.18136297,173.193314 C6.08614421,173.251744 5.95413639,173.328568 5.78533951,173.423787 C5.60788638,173.523334 5.45964809,173.663998 5.34062464,173.845779 C5.2216012,174.027561 5.16208948,174.172553 5.16208948,174.280756 C5.16208948,174.354334 5.13612073,174.424666 5.08418322,174.491752 C5.03224572,174.558838 4.97165197,174.592381 4.90240196,174.592381 L3.34427689,174.592381 C3.27935501,174.592381 3.22417141,174.552346 3.1787261,174.472275 C3.13328078,174.392205 3.11055812,174.311053 3.11055812,174.228818 L3.11055812,173.93667 C3.11055812,173.577436 3.25122219,173.23876 3.53255033,172.920643 C3.81387847,172.602525 4.12333943,172.367725 4.46093319,172.21624 C4.71629258,172.099381 4.89807384,171.978193 5.00627697,171.852678 C5.1144801,171.727162 5.16858167,171.562693 5.16858167,171.359271 C5.16858167,171.17749 5.06795275,171.017349 4.86669493,170.878849 C4.66543711,170.740349 4.43280038,170.671099 4.16878474,170.671099 C3.8874566,170.671099 3.65373784,170.733857 3.46762845,170.859373 C3.31614407,170.967576 3.08458937,171.216443 2.77296436,171.605975 C2.71669873,171.675225 2.64961279,171.70985 2.57170653,171.70985 C2.51976903,171.70985 2.46566747,171.692537 2.40940184,171.657912 L1.34468304,170.846389 C1.28841741,170.803107 1.25487444,170.749006 1.24405412,170.684084 C1.23323381,170.619162 1.24513615,170.558568 1.27976116,170.502303 C1.97226119,169.351021 2.97638624,168.775381 4.29213631,168.775381 C4.63838633,168.775381 4.98680041,168.842467 5.33737855,168.976638 C5.68795669,169.11081 6.00390983,169.290428 6.28523797,169.51549 C6.56656611,169.740553 6.79595675,170.016471 6.97340988,170.343244 C7.15086302,170.670017 7.23958958,171.013021 7.23958958,171.372256 Z" id="Shape-Copy-13" fill-opacity="0.15" fill="#5543FF" transform="translate(4.239890, 172.930381) rotate(20.000000) translate(-4.239890, -172.930381) "></path>
        </g>
    </g>
</svg>