<?xml version="1.0" encoding="UTF-8"?>
<svg width="172px" height="167px" viewBox="0 0 172 167" version="1.1" xmlns="http://www.w3.org/2000/svg" xmlns:xlink="http://www.w3.org/1999/xlink">
    <!-- Generator: Sketch 49.1 (51147) - http://www.bohemiancoding.com/sketch -->
    <title>customizable-apps</title>
    <desc>Created with Sketch.</desc>
    <defs>
        <rect id="path-1" x="25" y="0" width="147" height="151"></rect>
        <path d="M5,4 L73,4 L73,73 L5,73 L5,4 Z" id="path-2"></path>
        <mask id="mask-3" maskContentUnits="userSpaceOnUse" maskUnits="objectBoundingBox" x="0" y="0" width="68" height="69" fill="white">
            <use xlink:href="#path-2"></use>
        </mask>
    </defs>
    <g id="Page-1" stroke="none" stroke-width="1" fill="none" fill-rule="evenodd">
        <g id="customizable-apps">
            <g id="Rectangle-14-Copy">
                <use fill="#FFFFFF" fill-rule="evenodd" xlink:href="#path-1"></use>
                <rect stroke="#B6ECDA" stroke-width="4" x="27" y="2" width="143" height="147"></rect>
            </g>
            <path d="M31.5,69.5 L139,69.5" id="Line-7" stroke="#8AD5BD" stroke-width="4" stroke-linecap="square" stroke-dasharray="5,12,5,11"></path>
            <path d="M39.7439024,14 L75.2177033,14 C76.7331188,14 77.9616058,15.228487 77.9616058,16.7439024 L77.9616058,26.2560976 C77.9616058,27.771513 76.7331188,29 75.2177033,29 L39.7439024,29 C38.228487,29 37,27.771513 37,26.2560976 L37,16.7439024 C37,15.228487 38.228487,14 39.7439024,14 Z" id="Path" fill="#92E4CA"></path>
            <path d="M88.7439024,14 L124.217703,14 C125.733119,14 126.961606,15.228487 126.961606,16.7439024 L126.961606,26.2560976 C126.961606,27.771513 125.733119,29 124.217703,29 L88.7439024,29 C87.228487,29 86,27.771513 86,26.2560976 L86,16.7439024 C86,15.228487 87.228487,14 88.7439024,14 Z" id="Path-Copy" fill="#92E4CA"></path>
            <g id="resize" transform="translate(84.000000, 89.000000)">
                <use id="Rectangle-16" stroke="#9BEECC" mask="url(#mask-3)" stroke-width="8" fill="#EAFAF5" stroke-linecap="round" stroke-dasharray="1,1,1" xlink:href="#path-2"></use>
                <rect id="Rectangle-15" fill="#0AD895" x="1" y="0" width="13" height="13"></rect>
                <rect id="Rectangle-15-Copy" fill="#0AD895" x="0" y="65" width="13" height="13"></rect>
                <rect id="Rectangle-15-Copy-2" fill="#0AD895" x="64" y="0" width="13" height="13"></rect>
                <rect id="Rectangle-15-Copy-3" fill="#0AD895" x="65" y="65" width="13" height="13"></rect>
            </g>
            <path d="M26.2857143,50.2 C26.2857143,42.94 20.3714286,37 13.1428571,37 C5.91428571,37 0,42.94 0,50.2 C0,57.46 5.91428571,63.4 13.1428571,63.4 C15.1142857,63.4 16.7571429,63.07 18.4,62.08 L26.2857143,70 L18.4,77.92 C16.7571429,76.93 15.1142857,76.6 13.1428571,76.6 C5.91428571,76.6 0,82.54 0,89.8 C0,97.06 5.91428571,103 13.1428571,103 C20.3714286,103 26.2857143,97.06 26.2857143,89.8 C26.2857143,87.82 25.9571429,86.17 24.9714286,84.52 L32.8571429,76.6 L55.8571429,99.7 L69,99.7 L24.9714286,55.48 C25.9571429,53.83 26.2857143,52.18 26.2857143,50.2 Z M13,57 C9.15,57 6,53.85 6,50 C6,46.15 9.15,43 13,43 C16.85,43 20,46.15 20,50 C20,53.85 16.85,57 13,57 Z M13,99 C9.15,99 6,95.85 6,92 C6,88.15 9.15,85 13,85 C16.85,85 20,88.15 20,92 C20,95.85 16.85,99 13,99 Z M33.5,68 C34.4,68 35,68.6 35,69.5 C35,70.4 34.4,71 33.5,71 C32.6,71 32,70.4 32,69.5 C32,68.6 32.6,68 33.5,68 Z M69,40 L56.2,40 L37,59.5 L43.4,66 L69,40 Z" id="scissors" fill="#0AD895" fill-rule="nonzero"></path>
        </g>
    </g>
</svg>