<?xml version="1.0" encoding="UTF-8"?>
<svg width="176px" height="154px" viewBox="0 0 176 154" version="1.1" xmlns="http://www.w3.org/2000/svg" xmlns:xlink="http://www.w3.org/1999/xlink">
    <!-- Generator: Sketch 49.1 (51147) - http://www.bohemiancoding.com/sketch -->
    <title>view-source</title>
    <desc>Created with Sketch.</desc>
    <defs></defs>
    <g id="Page-1" stroke="none" stroke-width="1" fill="none" fill-rule="evenodd">
        <g id="view-source" transform="translate(0.000000, 2.000000)">
            <path d="M2,26 L2,135 L174,135 L174,26 L2,26 Z" id="Rectangle-14" stroke="#E4D5FF" stroke-width="4"></path>
            <path d="M2,24 L2,3.42857143 C2,1.53502371 3.75015961,3.47839072e-16 5.90909091,0 L170.090909,0 C172.24984,-3.47839072e-16 174,1.53502371 174,3.42857143 L174,24" id="Rectangle-14-Copy-2" stroke="#E4D5FF" stroke-width="4"></path>
            <rect id="Rectangle-10-Copy-11" fill="#E2D1FF" x="13" y="85" width="63" height="5" rx="1"></rect>
            <rect id="Rectangle-10-Copy-12" fill="#D3BAFF" transform="translate(50.500000, 109.500000) scale(1, -1) translate(-50.500000, -109.500000) " x="13" y="107" width="75" height="5" rx="1"></rect>
            <rect id="Rectangle-10-Copy-13" fill="#BC9AF5" x="13" y="96" width="45" height="5" rx="1"></rect>
            <path d="M96,38 L157.829268,38 L157.829268,76.82249 L96,76.82249 L96,38 Z" id="back-copy-2" stroke="#AE80FF" stroke-width="2.5" fill="#F6F1FF" stroke-linecap="round" stroke-linejoin="round" stroke-dasharray="2,7,2,7"></path>
            <circle id="Oval-13" fill="#E4D5FF" cx="14.5" cy="12.5" r="3.5"></circle>
            <circle id="Oval-13-Copy" fill="#E4D5FF" cx="26.5" cy="12.5" r="3.5"></circle>
            <g id="magnifying-class" transform="translate(132.012032, 119.739149) rotate(-5.000000) translate(-132.012032, -119.739149) translate(99.012032, 83.739149)">
                <rect id="Rectangle-25" fill="#8D54F0" transform="translate(50.215514, 54.187623) rotate(-40.000000) translate(-50.215514, -54.187623) " x="46.7155139" y="34.6876233" width="7" height="39" rx="3.5"></rect>
                <ellipse id="Oval-12" stroke="#8D54F0" stroke-width="7" cx="23.5" cy="24" rx="20" ry="20.5"></ellipse>
            </g>
            <text id="&lt;/&gt;" font-family="InterUI-Bold, Inter UI" font-size="40" font-weight="bold" fill="#8D54F0">
                <tspan x="16" y="66">&lt;/&gt;</tspan>
            </text>
        </g>
    </g>
</svg>