<svg width="6249" height="1401" xmlns="http://www.w3.org/2000/svg" xmlns:xlink="http://www.w3.org/1999/xlink"><defs><linearGradient x1=".726%" y1="50%" y2="50%" id="a"><stop stop-color="#8542DD" offset="0%"/><stop stop-color="#BB42DD" offset="100%"/></linearGradient><path d="M0 308c1338.035 775.083 2430.942 871.385 3278.719 288.906S5116.589-141.51 6249 129.094V1401H0V308z" id="b"/><path d="M0 612.033c1289.563 530.78 2350.333 530.78 3182.313 0C4014.292 81.25 5036.52 21.675 6249 433.305V1401H0V612.033z" id="c"/></defs><g fill="none" fill-rule="evenodd"><use fill-opacity=".8" fill="url(#a)" xlink:href="#b"/><path stroke="#979797" d="M6248.5 1400.5h.5l-.5.5v-.5zM.5 308.867V1400.5h6248V129.488c-1132.117-270.445-2121.938-114.5-2969.498 467.83C2431.2 1179.814 1338.345 1083.64.5 308.868z"/><g><use fill="url(#a)" xlink:href="#c"/><path stroke="#979797" d="M6248.5 1400.5h.5l-.5.5v-.5zM.5 612.78v787.72h6248V433.663C5036.304 22.206 4014.344 81.81 3182.581 612.454 2350.597 1143.24 1289.89 1143.334.5 612.78z"/></g></g></svg>