<svg xmlns="http://www.w3.org/2000/svg" width="70" height="85">
<polyline points="5 5 55 5 55 67 5 67 5 5" stroke="black" stroke-width="2.5"
stroke-linecap="round" fill="none" stroke-linejoin="round"/>

<polyline points="15 15 65 15 65 77 15 77 15 15" stroke="black" stroke-width="2.5"
stroke-linecap="round" fill="#fff" stroke-linejoin="round"/>

<circle cx="7" cy="7" r="1.5" />
<circle cx="15" cy="7" r="1.5" />
<circle cx="23" cy="7" r="1.5" />
<circle cx="31" cy="7" r="1.5" />
<circle cx="38" cy="7" r="1.5" />
<circle cx="46" cy="7" r="1.5" />
<circle cx="54" cy="7" r="1.5" />
<circle cx="11" cy="12" r="1.5" />
<circle cx="19" cy="12" r="1.5" />
<circle cx="27" cy="12" r="1.5" />
<circle cx="35" cy="12" r="1.5" />
<circle cx="43" cy="12" r="1.5" />
<circle cx="51" cy="12" r="1.5" />
<circle cx="7" cy="17" r="1.5" />
<circle cx="11" cy="22" r="1.5" />
<circle cx="7" cy="27" r="1.5" />
<circle cx="11" cy="32" r="1.5" />
<circle cx="7" cy="37" r="1.5" />
<circle cx="11" cy="42" r="1.5" />
<circle cx="7" cy="47" r="1.5" />
<circle cx="11" cy="52" r="1.5" />
<circle cx="7" cy="57" r="1.5" />
<circle cx="11" cy="62" r="1.5" />

<circle cx="33" cy="60" r="3.5" fill="none" stroke="#000" stroke-width="2.5"/>
<circle cx="33" cy="32" r="3.5" fill="none" stroke="#000" stroke-width="2.5"/>
<path d="M33 36.25 V 57" stroke="#000" stroke-width="2.5" />

<path d="M33 57 Q31,53 41,47 T50,36" stroke="#000" stroke-width="2.5" fill="none"/>
<circle cx="50" cy="32" r="3.5" fill="none" stroke="#000" stroke-width="2.5"/> -->
</svg>
