<svg xmlns="http://www.w3.org/2000/svg" width="70" height="85"><path stroke="#000" stroke-width="2.5" stroke-linecap="round" fill="none" stroke-linejoin="round" d="M5 5h50v62H5V5"/><path stroke="#000" stroke-width="2.5" stroke-linecap="round" fill="#fff" stroke-linejoin="round" d="M15 15h50v62H15V15"/><circle cx="7" cy="7" r="1.5"/><circle cx="15" cy="7" r="1.5"/><circle cx="23" cy="7" r="1.5"/><circle cx="31" cy="7" r="1.5"/><circle cx="38" cy="7" r="1.5"/><circle cx="46" cy="7" r="1.5"/><circle cx="54" cy="7" r="1.5"/><circle cx="11" cy="12" r="1.5"/><circle cx="19" cy="12" r="1.5"/><circle cx="27" cy="12" r="1.5"/><circle cx="35" cy="12" r="1.5"/><circle cx="43" cy="12" r="1.5"/><circle cx="51" cy="12" r="1.5"/><circle cx="7" cy="17" r="1.5"/><circle cx="11" cy="22" r="1.5"/><circle cx="7" cy="27" r="1.5"/><circle cx="11" cy="32" r="1.5"/><circle cx="7" cy="37" r="1.5"/><circle cx="11" cy="42" r="1.5"/><circle cx="7" cy="47" r="1.5"/><circle cx="11" cy="52" r="1.5"/><circle cx="7" cy="57" r="1.5"/><circle cx="11" cy="62" r="1.5"/><circle cx="33" cy="60" r="3.5" fill="none" stroke="#000" stroke-width="2.5"/><circle cx="33" cy="32" r="3.5" fill="none" stroke="#000" stroke-width="2.5"/><path d="M33 36.25V57" stroke="#000" stroke-width="2.5"/><path d="M33 57q-2-4 8-10t9-11" stroke="#000" stroke-width="2.5" fill="none"/><circle cx="50" cy="32" r="3.5" fill="none" stroke="#000" stroke-width="2.5"/>--&gt;</svg>