<svg width="545" height="375" xmlns="http://www.w3.org/2000/svg" xmlns:xlink="http://www.w3.org/1999/xlink"><defs><rect id="a" x="3.99" y="60" width="523.63" height="311" rx="10"/><rect id="c" width="84.78" height="57" rx="4"/><filter x="-5.9%" y="-8.8%" width="123.6%" height="135.1%" filterUnits="objectBoundingBox" id="b"><feOffset dx="10" dy="10" in="SourceAlpha" result="shadowOffsetOuter1"/><feComposite in="shadowOffsetOuter1" in2="SourceAlpha" operator="out" result="shadowOffsetOuter1"/><feColorMatrix values="0 0 0 0 0.776470588 0 0 0 0 0.662745098 0 0 0 0 0.968627451 0 0 0 1 0" in="shadowOffsetOuter1"/></filter><rect id="e" width="121" height="83" rx="6"/><filter x="-4.1%" y="-6%" width="116.5%" height="124.1%" filterUnits="objectBoundingBox" id="d"><feOffset dx="10" dy="10" in="SourceAlpha" result="shadowOffsetOuter1"/><feComposite in="shadowOffsetOuter1" in2="SourceAlpha" operator="out" result="shadowOffsetOuter1"/><feColorMatrix values="0 0 0 0 0.211764706 0 0 0 0 0.839215686 0 0 0 0 0.588235294 0 0 0 0.5 0" in="shadowOffsetOuter1"/></filter><rect id="g" width="96" height="114" rx="2"/><filter x="-5.2%" y="-4.4%" width="120.8%" height="117.5%" filterUnits="objectBoundingBox" id="f"><feOffset dx="10" dy="10" in="SourceAlpha" result="shadowOffsetOuter1"/><feComposite in="shadowOffsetOuter1" in2="SourceAlpha" operator="out" result="shadowOffsetOuter1"/><feColorMatrix values="0 0 0 0 0.258823529 0 0 0 0 0.392156863 0 0 0 0 0.984313725 0 0 0 0.5 0" in="shadowOffsetOuter1"/></filter></defs><g fill="none" fill-rule="evenodd"><g opacity=".97" transform="translate(13)"><use fill="#FFF" xlink:href="#a"/><rect stroke-opacity=".2" stroke="#111" stroke-width="4" x="1.99" y="58" width="527.63" height="315" rx="10"/><path d="M10 0h511.62c5.522 0 10 4.477 10 10v46H0V10C0 4.477 4.477 0 10 0z" fill-opacity=".2" fill="#111"/><ellipse fill-opacity=".1" fill="#FFF" cx="30.421" cy="28.5" rx="11.47" ry="11.5"/><ellipse fill-opacity=".1" fill="#FFF" cx="63.335" cy="28.5" rx="11.47" ry="11.5"/><rect fill-opacity=".1" fill="#FFF" x="105.725" y="17" width="392.979" height="23" rx="11.5"/></g><g transform="translate(0 91)"><use fill="#000" filter="url(#b)" xlink:href="#c"/><use fill="#F2EBFD" xlink:href="#c"/><rect stroke="#8D54F0" stroke-width="2" x="1" y="1" width="82.78" height="55" rx="4"/><ellipse fill="#8D54F0" cx="36.405" cy="18.5" rx="7.481" ry="7.5"/><path d="M79.383 56.55H5.363a4 4 0 0 1-4-4V40.913l12.178-11.815a5 5 0 0 1 7.319.382c8.407 10.062 13.645 15.093 15.715 15.093 2.147 0 10.012-8.972 23.594-26.916a5 5 0 0 1 7.801-.215l15.413 18.185v16.925a4 4 0 0 1-4 4z" fill="#8D54F0"/></g><g transform="translate(359 91)"><use fill="#000" filter="url(#d)" xlink:href="#e"/><use fill-opacity=".1" fill="#36D696" xlink:href="#e"/><rect stroke="#36D696" stroke-width="2" x="1" y="1" width="119" height="81" rx="6"/><circle fill="#36D696" cx="60" cy="37" r="15"/><path d="M67.38 37.52l-10.232 6.32a1 1 0 0 1-1.525-.85V30.35a1 1 0 0 1 1.525-.85l10.232 6.32a1 1 0 0 1 0 1.7z" fill="#FFF"/><path d="M14.5 69.5H68" stroke="#36D696" stroke-width="4" stroke-linecap="square"/><path d="M78 69.5h28" stroke="#9AEACA" stroke-width="4" stroke-linecap="square"/></g><g transform="translate(47 156)" fill="#36D696"><rect x="380" width="9" height="9" rx="2"/><rect y="157" width="25" height="25" rx="2"/><rect fill-opacity=".6" x="32" y="157" width="25" height="25" rx="2"/><rect fill-opacity=".3" x="65" y="157" width="25" height="25" rx="2"/></g><g transform="translate(155 146)"><use fill="#000" filter="url(#f)" xlink:href="#g"/><use fill="#FFF" xlink:href="#g"/><rect stroke="#4264FB" stroke-width="2" x="1" y="1" width="94" height="112" rx="2"/><path d="M50 14h31a2 2 0 0 1 2 2v38a2 2 0 0 1-2 2H50a2 2 0 0 1-2-2V16a2 2 0 0 1 2-2z" stroke="#C6D0FD" stroke-width="1.5" stroke-linecap="round" stroke-linejoin="round" stroke-dasharray="2,5,2,5"/><rect fill-opacity=".3" fill="#4264FB" x="12" y="69" width="70" height="4" rx="1"/><rect fill-opacity=".7" fill="#4264FB" x="13" y="43" width="25" height="4" rx="1"/><rect fill-opacity=".7" fill="#4264FB" x="13" y="52" width="25" height="4" rx="1"/><rect fill-opacity=".3" fill="#4264FB" x="12" y="78" width="70" height="4" rx="1"/><rect fill-opacity=".3" fill="#4264FB" x="12" y="87" width="70" height="4" rx="1"/><rect fill-opacity=".3" fill="#4264FB" x="12" y="96" width="47" height="4" rx="1"/><path d="M23.718 18.017l5.39 9.08a2 2 0 0 1-1.72 3.021h-10.78a2 2 0 0 1-1.72-3.02l5.39-9.08a2 2 0 0 1 3.44 0z" fill="#7A92FC"/></g><circle stroke="#4DEBFF" stroke-width="1.5" fill="#FFF" cx="58.5" cy="325.5" r="3.5"/><circle stroke="#4DEBFF" stroke-width="1.5" fill="#FFF" cx="445.5" cy="115.5" r="3.5"/><circle stroke="#4264FB" stroke-width="1.5" fill="#FFF" cx="190.5" cy="160.5" r="3.5"/><circle stroke="#4264FB" stroke-width="1.5" fill="#FFF" cx="237.5" cy="248.5" r="3.5"/><circle stroke="#4DEBFF" stroke-width="1.5" fill="#FFF" cx="53.5" cy="100.5" r="3.5"/></g></svg>