<svg width="341" height="182" xmlns="http://www.w3.org/2000/svg"><g fill="none" fill-rule="evenodd"><path d="M170 147c87.261 0 158-25.52 158-57s-70.739-57-158-57S12 58.52 12 90s70.739 57 158 57z" fill-opacity=".05" fill="#111"/><path d="M172 127c87.261 0 158-25.52 158-57s-70.739-57-158-57S14 38.52 14 70s70.739 57 158 57z" stroke="#111" stroke-width="3" stroke-linecap="round" stroke-linejoin="bevel" stroke-dasharray="10,15,10,15"/><g transform="translate(92 51)"><rect stroke="#111" stroke-width="3" fill="#111" width="164" height="129" rx="1.5"/><rect stroke="#111" stroke-width="3" fill="#FFF" y="15" width="164" height="114" rx="1.5"/><rect fill="#4264FB" x="102" y="29" width="52" height="19" rx="1.5"/><rect fill="#01D682" x="102" y="53" width="52" height="19" rx="1.5"/><path d="M12 30h81a1 1 0 0 1 1 1v50a1 1 0 0 1-1 1H12a1 1 0 0 1-1-1V31a1 1 0 0 1 1-1z" stroke="#111" stroke-width="3" stroke-linecap="round" stroke-linejoin="round" stroke-dasharray="1,5,1,5"/><circle fill="#FFF" cx="7.5" cy="7.5" r="2.5"/><circle fill="#FFF" cx="17.5" cy="7.5" r="2.5"/><circle fill="#FFF" cx="28.5" cy="7.5" r="2.5"/><rect fill="#111" x="11" y="92" width="83" height="4.5" rx="1"/><rect fill="#111" x="11" y="101" width="59" height="4.5" rx="1"/><rect fill="#111" x="11" y="110" width="72" height="4.5" rx="1"/></g><g transform="translate(162 2)"><circle stroke="#111" stroke-width="2.5" fill="#FFF" cx="10" cy="10" r="10"/><circle fill="#111" cx="10" cy="10" r="6.5"/></g><g transform="translate(319 58)"><circle stroke="#111" stroke-width="2.5" fill="#FFF" cx="10" cy="10" r="10"/><circle fill="#111" cx="10" cy="10" r="6.5"/></g><g transform="translate(2 57)"><circle stroke="#111" stroke-width="2.5" fill="#FFF" cx="10" cy="10" r="10"/><circle fill="#111" cx="10" cy="10" r="6.5"/></g></g></svg>