<svg width="210" height="152" xmlns="http://www.w3.org/2000/svg" xmlns:xlink="http://www.w3.org/1999/xlink"><defs><path id="a" d="M14.59 33h13.187L30 46H13z"/><path id="b" d="M14.59 33h13.187L30 46H13z"/><rect id="c" x="87" y="6" width="34" height="24" rx="2"/><rect id="d" x="12" y="55.5" width="34" height="24" rx="2"/><rect id="e" x="165" y="91" width="34" height="24" rx="2"/><rect id="f" x="65" y="115" width="34" height="24" rx="2"/></defs><g transform="translate(1 1)" fill="none" fill-rule="evenodd"><path d="M31.5 29.5v88M187.5 32.5v88M29.5 18.5h139M49.5 125.5h139" stroke="#DDD" stroke-width="5" stroke-dasharray="5,10,5,10"/><g transform="translate(165)"><rect stroke="#111" stroke-width="2" transform="rotate(180 21.5 17)" width="43" height="34" rx="1.5"/><rect stroke="#111" stroke-width="2" fill="#D2D8F9" transform="rotate(180 21.5 12.5)" width="43" height="25" rx="1.5"/><use fill="#FFF" xlink:href="#a"/><path stroke="#000" stroke-width="2" d="M15.476 34L14.13 45h14.685l-1.881-11H15.476z"/></g><g transform="translate(0 105)"><rect stroke="#111" stroke-width="2" fill="#CAE5CB" transform="rotate(180 21.5 12.5)" width="43" height="25" rx="1.5"/><use fill="#FFF" xlink:href="#b"/><path stroke="#000" stroke-width="2" d="M15.476 34L14.13 45h14.685l-1.881-11H15.476z"/><rect stroke="#111" stroke-width="2" transform="rotate(180 21.5 17)" width="43" height="34" rx="1.5"/></g><use fill="#D2D8F9" xlink:href="#c"/><rect stroke="#111" stroke-width="2" x="88" y="7" width="32" height="22" rx="2"/><use fill="#CAE5CB" xlink:href="#d"/><rect stroke="#111" stroke-width="2" x="13" y="56.5" width="32" height="22" rx="2"/><use fill="#CAE5CB" xlink:href="#e"/><rect stroke="#111" stroke-width="2" x="166" y="92" width="32" height="22" rx="2"/><use fill="#D2D8F9" xlink:href="#f"/><rect stroke="#111" stroke-width="2" x="66" y="116" width="32" height="22" rx="2"/><path d="M97 137.256H66.555v-3.936l6-5.776a2 2 0 0 1 2.671-.092c3.58 2.996 5.764 4.495 6.551 4.495.78 0 2.883-2.671 6.309-8.013a2 2 0 0 1 3.198-.226L97 130.339v6.917zM102.156 24.495c13.435-4.142 9.204-15.989 1.902-10.784-5.071-7.374-13.194 2.263-1.902 10.784z" fill="#111"/><rect fill="#111" x="18" y="62" width="20" height="2" rx="1"/><rect fill="#111" x="18" y="66" width="15" height="2" rx="1"/><rect fill="#111" x="18" y="70" width="20" height="2" rx="1"/><path stroke="#111" stroke-width="2" d="M177.104 98.352l-5.115 4.707 5.115 4.707M186.99 98.352l5.114 4.707-5.115 4.707"/><path d="M184 96l-4 13.5" stroke="#111" stroke-width="2" stroke-linecap="square"/><circle fill="#111" cx="81" cy="123" r="3"/></g></svg>