<?xml version="1.0" encoding="UTF-8"?>
<svg width="341px" height="182px" viewBox="0 0 341 182" version="1.1" xmlns="http://www.w3.org/2000/svg" xmlns:xlink="http://www.w3.org/1999/xlink">
    <!-- Generator: Sketch 49.1 (51147) - http://www.bohemiancoding.com/sketch -->
    <title>p2p-web</title>
    <desc>Created with Sketch.</desc>
    <defs></defs>
    <g id="Page-1" stroke="none" stroke-width="1" fill="none" fill-rule="evenodd">
        <g id="p2p-web" transform="translate(2.000000, 2.000000)">
            <path d="M168,145 C255.26099,145 326,119.480231 326,88 C326,56.5197693 255.26099,31 168,31 C80.7390095,31 10,56.5197693 10,88 C10,119.480231 80.7390095,145 168,145 Z" id="bg-2" fill-opacity="0.05" fill="#111111"></path>
            <path d="M170,125 C257.26099,125 328,99.4802307 328,68 C328,36.5197693 257.26099,11 170,11 C82.7390095,11 12,36.5197693 12,68 C12,99.4802307 82.7390095,125 170,125 Z" id="bg-1" stroke="#111111" stroke-width="3" stroke-linecap="round" stroke-linejoin="bevel" stroke-dasharray="10,15,10,15"></path>
            <g id="browser" transform="translate(90.000000, 49.000000)">
                <rect id="Rectangle-2" stroke="#111111" stroke-width="3" fill="#111111" x="0" y="0" width="164" height="129" rx="1.5"></rect>
                <rect id="Rectangle-2-Copy" stroke="#111111" stroke-width="3" fill="#FFFFFF" x="0" y="15" width="164" height="114" rx="1.5"></rect>
                <rect id="Rectangle-3-Copy" fill="#4264FB" x="102" y="29" width="52" height="19" rx="1.5"></rect>
                <rect id="Rectangle-3-Copy-2" fill="#01D682" x="102" y="53" width="52" height="19" rx="1.5"></rect>
                <path d="M12,30 L93,30 C93.5522847,30 94,30.4477153 94,31 L94,81 C94,81.5522847 93.5522847,82 93,82 L12,82 C11.4477153,82 11,81.5522847 11,81 L11,31 C11,30.4477153 11.4477153,30 12,30 Z" id="back-copy" stroke="#111111" stroke-width="3" stroke-linecap="round" stroke-linejoin="round" stroke-dasharray="1,5,1,5"></path>
                <circle id="Oval" fill="#FFFFFF" cx="7.5" cy="7.5" r="2.5"></circle>
                <circle id="Oval-Copy" fill="#FFFFFF" cx="17.5" cy="7.5" r="2.5"></circle>
                <circle id="Oval-Copy-2" fill="#FFFFFF" cx="28.5" cy="7.5" r="2.5"></circle>
                <rect id="Rectangle-10" fill="#111111" x="11" y="92" width="83" height="4.5" rx="1"></rect>
                <rect id="Rectangle-10-Copy" fill="#111111" x="11" y="101" width="59" height="4.5" rx="1"></rect>
                <rect id="Rectangle-10-Copy-3" fill="#111111" x="11" y="110" width="72" height="4.5" rx="1"></rect>
            </g>
            <g id="node" transform="translate(160.000000, 0.000000)">
                <circle id="Oval-8" stroke="#111111" stroke-width="2.5" fill="#FFFFFF" cx="10" cy="10" r="10"></circle>
                <circle id="Oval-7" fill="#111111" cx="10" cy="10" r="6.5"></circle>
            </g>
            <g id="node-3" transform="translate(317.000000, 56.000000)">
                <circle id="Oval-8" stroke="#111111" stroke-width="2.5" fill="#FFFFFF" cx="10" cy="10" r="10"></circle>
                <circle id="Oval-7" fill="#111111" cx="10" cy="10" r="6.5"></circle>
            </g>
            <g id="node-2" transform="translate(0.000000, 55.000000)">
                <circle id="Oval-8" stroke="#111111" stroke-width="2.5" fill="#FFFFFF" cx="10" cy="10" r="10"></circle>
                <circle id="Oval-7" fill="#111111" cx="10" cy="10" r="6.5"></circle>
            </g>
        </g>
    </g>
</svg>