<svg width="53" height="39" xmlns="http://www.w3.org/2000/svg"><g fill="none" fill-rule="evenodd"><path d="M30 1.91v18.18M23 28.929V40.07M52 12.893v23.214M1 14.893v23.214" stroke-opacity=".2" stroke="#000" stroke-width="2" stroke-linecap="round" stroke-dasharray="1,5,1,5"/><path d="M16 29v-7h3c.484 0 1-.375 1-1 0-.461-.287-.695-.54-1L15 14.625c-.313-.383-.555-.625-1-.625-.445 0-.688.242-1 .625L8.54 20c-.253.305-.54.539-.54 1 0 .625.516 1 1 1h3v7c0 .55.45 1 1 1h2c.55 0 1-.45 1-1zM8.333 12.25V9.333h1.25A.415.415 0 0 0 10 8.917c0-.192-.12-.29-.225-.417L7.917 6.26C7.787 6.1 7.685 6 7.5 6c-.185 0-.287.1-.417.26L5.225 8.5C5.12 8.627 5 8.725 5 8.917c0 .26.215.416.417.416h1.25v2.917c0 .23.187.417.416.417h.834c.229 0 .416-.188.416-.417zM9.333 38.25v-2.917h1.25a.415.415 0 0 0 .417-.416c0-.192-.12-.29-.225-.417l-1.858-2.24c-.13-.16-.232-.26-.417-.26-.185 0-.287.1-.417.26L6.225 34.5c-.105.127-.225.225-.225.417 0 .26.215.416.417.416h1.25v2.917c0 .23.187.417.416.417h.834c.229 0 .416-.188.416-.417zM42 13v7h3c.484 0 1 .375 1 1 0 .461-.287.695-.54 1L41 27.375c-.313.383-.555.625-1 .625-.445 0-.688-.242-1-.625L34.54 22c-.253-.305-.54-.539-.54-1 0-.625.516-1 1-1h3v-7c0-.55.45-1 1-1h2c.55 0 1 .45 1 1zM47.333 1.417v2.916h1.25c.202 0 .417.157.417.417 0 .192-.12.29-.225.417l-1.858 2.24c-.13.159-.232.26-.417.26-.185 0-.287-.101-.417-.26l-1.858-2.24C44.12 5.04 44 4.942 44 4.75c0-.26.215-.417.417-.417h1.25V1.417c0-.23.187-.417.416-.417h.834c.229 0 .416.188.416.417zM34.333 28.667v4.666h2c.323 0 .667.25.667.667 0 .307-.191.463-.36.667l-2.973 3.583c-.209.255-.37.417-.667.417-.297 0-.459-.162-.667-.417l-2.973-3.583c-.169-.204-.36-.36-.36-.667 0-.417.344-.667.667-.667h2v-4.666c0-.367.3-.667.666-.667h1.334c.366 0 .666.3.666.667zM22 9.5V6h1.5c.242 0 .5-.188.5-.5 0-.23-.143-.348-.27-.5L21.5 2.312C21.344 2.122 21.223 2 21 2c-.223 0-.344.121-.5.313L18.27 5c-.126.152-.27.27-.27.5 0 .313.258.5.5.5H20v3.5c0 .275.225.5.5.5h1c.275 0 .5-.225.5-.5z" fill="#000" fill-opacity=".2" fill-rule="nonzero"/></g></svg>