<?xml version="1.0" encoding="UTF-8"?>
<svg width="53px" height="39px" viewBox="0 0 53 39" version="1.1" xmlns="http://www.w3.org/2000/svg" xmlns:xlink="http://www.w3.org/1999/xlink">
    <!-- Generator: Sketch 49.1 (51147) - http://www.bohemiancoding.com/sketch -->
    <title>seeding</title>
    <desc>Created with Sketch.</desc>
    <defs></defs>
    <g id="Page-1" stroke="none" stroke-width="1" fill="none" fill-rule="evenodd">
        <g id="seeding" transform="translate(-2.000000, 1.000000)">
            <path d="M32,0.909090909 L32,19.0909091" id="Line-4" stroke-opacity="0.2" stroke="#000000" stroke-width="2" stroke-linecap="round" stroke-dasharray="1,5,1,5"></path>
            <path d="M25,27.9285714 L25,39.0714286" id="Line-4-Copy-3" stroke-opacity="0.2" stroke="#000000" stroke-width="2" stroke-linecap="round" stroke-dasharray="1,5,1,5"></path>
            <path d="M54,11.8928571 L54,35.1071429" id="Line-4-Copy" stroke-opacity="0.2" stroke="#000000" stroke-width="2" stroke-linecap="round" stroke-dasharray="1,5,1,5"></path>
            <path d="M3,13.8928571 L3,37.1071429" id="Line-4-Copy-2" stroke-opacity="0.2" stroke="#000000" stroke-width="2" stroke-linecap="round" stroke-dasharray="1,5,1,5"></path>
            <g id="if_back_126585" transform="translate(10.000000, 13.000000)" fill="#000000" fill-opacity="0.2" fill-rule="nonzero">
                <path d="M13,6 L6,6 L6,3 C6,2.516 5.625,2 5,2 C4.539,2 4.305,2.287 4,2.54 L-1.375,7 C-1.758,7.313 -2,7.555 -2,8 C-2,8.445 -1.758,8.688 -1.375,9 L4,13.46 C4.305,13.713 4.539,14 5,14 C5.625,14 6,13.484 6,13 L6,10 L13,10 C13.55,10 14,9.55 14,9 L14,7 C14,6.45 13.55,6 13,6 Z" id="Shape" transform="translate(6.000000, 8.000000) rotate(90.000000) translate(-6.000000, -8.000000) "></path>
            </g>
            <g id="if_back_126585-copy-5" transform="translate(7.000000, 5.000000)" fill="#000000" fill-opacity="0.2" fill-rule="nonzero">
                <path d="M5.41666667,2.5 L2.5,2.5 L2.5,1.25 C2.5,1.04833333 2.34375,0.833333333 2.08333333,0.833333333 C1.89125,0.833333333 1.79375,0.952916667 1.66666667,1.05833333 L-0.572916667,2.91666667 C-0.7325,3.04708333 -0.833333333,3.14791667 -0.833333333,3.33333333 C-0.833333333,3.51875 -0.7325,3.62 -0.572916667,3.75 L1.66666667,5.60833333 C1.79375,5.71375 1.89125,5.83333333 2.08333333,5.83333333 C2.34375,5.83333333 2.5,5.61833333 2.5,5.41666667 L2.5,4.16666667 L5.41666667,4.16666667 C5.64583333,4.16666667 5.83333333,3.97916667 5.83333333,3.75 L5.83333333,2.91666667 C5.83333333,2.6875 5.64583333,2.5 5.41666667,2.5 Z" id="Shape" transform="translate(2.500000, 3.333333) rotate(90.000000) translate(-2.500000, -3.333333) "></path>
            </g>
            <g id="if_back_126585-copy-6" transform="translate(8.000000, 31.000000)" fill="#000000" fill-opacity="0.2" fill-rule="nonzero">
                <path d="M5.41666667,2.5 L2.5,2.5 L2.5,1.25 C2.5,1.04833333 2.34375,0.833333333 2.08333333,0.833333333 C1.89125,0.833333333 1.79375,0.952916667 1.66666667,1.05833333 L-0.572916667,2.91666667 C-0.7325,3.04708333 -0.833333333,3.14791667 -0.833333333,3.33333333 C-0.833333333,3.51875 -0.7325,3.62 -0.572916667,3.75 L1.66666667,5.60833333 C1.79375,5.71375 1.89125,5.83333333 2.08333333,5.83333333 C2.34375,5.83333333 2.5,5.61833333 2.5,5.41666667 L2.5,4.16666667 L5.41666667,4.16666667 C5.64583333,4.16666667 5.83333333,3.97916667 5.83333333,3.75 L5.83333333,2.91666667 C5.83333333,2.6875 5.64583333,2.5 5.41666667,2.5 Z" id="Shape" transform="translate(2.500000, 3.333333) rotate(90.000000) translate(-2.500000, -3.333333) "></path>
            </g>
            <g id="if_back_126585-copy-2" transform="translate(42.000000, 19.000000) scale(1, -1) translate(-42.000000, -19.000000) translate(36.000000, 11.000000)" fill="#000000" fill-opacity="0.2" fill-rule="nonzero">
                <path d="M13,6 L6,6 L6,3 C6,2.516 5.625,2 5,2 C4.539,2 4.305,2.287 4,2.54 L-1.375,7 C-1.758,7.313 -2,7.555 -2,8 C-2,8.445 -1.758,8.688 -1.375,9 L4,13.46 C4.305,13.713 4.539,14 5,14 C5.625,14 6,13.484 6,13 L6,10 L13,10 C13.55,10 14,9.55 14,9 L14,7 C14,6.45 13.55,6 13,6 Z" id="Shape" transform="translate(6.000000, 8.000000) rotate(90.000000) translate(-6.000000, -8.000000) "></path>
            </g>
            <g id="if_back_126585-copy-3" transform="translate(48.500000, 3.333333) scale(1, -1) translate(-48.500000, -3.333333) translate(46.000000, 0.000000)" fill="#000000" fill-opacity="0.2" fill-rule="nonzero">
                <path d="M5.41666667,2.5 L2.5,2.5 L2.5,1.25 C2.5,1.04833333 2.34375,0.833333333 2.08333333,0.833333333 C1.89125,0.833333333 1.79375,0.952916667 1.66666667,1.05833333 L-0.572916667,2.91666667 C-0.7325,3.04708333 -0.833333333,3.14791667 -0.833333333,3.33333333 C-0.833333333,3.51875 -0.7325,3.62 -0.572916667,3.75 L1.66666667,5.60833333 C1.79375,5.71375 1.89125,5.83333333 2.08333333,5.83333333 C2.34375,5.83333333 2.5,5.61833333 2.5,5.41666667 L2.5,4.16666667 L5.41666667,4.16666667 C5.64583333,4.16666667 5.83333333,3.97916667 5.83333333,3.75 L5.83333333,2.91666667 C5.83333333,2.6875 5.64583333,2.5 5.41666667,2.5 Z" id="Shape" transform="translate(2.500000, 3.333333) rotate(90.000000) translate(-2.500000, -3.333333) "></path>
            </g>
            <g id="if_back_126585-copy-4" transform="translate(35.000000, 32.333333) scale(1, -1) translate(-35.000000, -32.333333) translate(31.000000, 27.000000)" fill="#000000" fill-opacity="0.2" fill-rule="nonzero">
                <path d="M8.66666667,4 L4,4 L4,2 C4,1.67733333 3.75,1.33333333 3.33333333,1.33333333 C3.026,1.33333333 2.87,1.52466667 2.66666667,1.69333333 L-0.916666667,4.66666667 C-1.172,4.87533333 -1.33333333,5.03666667 -1.33333333,5.33333333 C-1.33333333,5.63 -1.172,5.792 -0.916666667,6 L2.66666667,8.97333333 C2.87,9.142 3.026,9.33333333 3.33333333,9.33333333 C3.75,9.33333333 4,8.98933333 4,8.66666667 L4,6.66666667 L8.66666667,6.66666667 C9.03333333,6.66666667 9.33333333,6.36666667 9.33333333,6 L9.33333333,4.66666667 C9.33333333,4.3 9.03333333,4 8.66666667,4 Z" id="Shape" transform="translate(4.000000, 5.333333) rotate(90.000000) translate(-4.000000, -5.333333) "></path>
            </g>
            <g id="if_back_126585-copy" transform="translate(20.000000, 1.000000)" fill="#000000" fill-opacity="0.2" fill-rule="nonzero">
                <path d="M6.5,3 L3,3 L3,1.5 C3,1.258 2.8125,1 2.5,1 C2.2695,1 2.1525,1.1435 2,1.27 L-0.6875,3.5 C-0.879,3.6565 -1,3.7775 -1,4 C-1,4.2225 -0.879,4.344 -0.6875,4.5 L2,6.73 C2.1525,6.8565 2.2695,7 2.5,7 C2.8125,7 3,6.742 3,6.5 L3,5 L6.5,5 C6.775,5 7,4.775 7,4.5 L7,3.5 C7,3.225 6.775,3 6.5,3 Z" id="Shape" transform="translate(3.000000, 4.000000) rotate(90.000000) translate(-3.000000, -4.000000) "></path>
            </g>
        </g>
    </g>
</svg>