<?xml version="1.0" encoding="UTF-8" standalone="no"?>
<svg width="53px" height="39px" viewBox="0 0 53 39" version="1.1" xmlns="http://www.w3.org/2000/svg" xmlns:xlink="http://www.w3.org/1999/xlink">
    <!-- Generator: Sketch 50.2 (55047) - http://www.bohemiancoding.com/sketch -->
    <title>seeding</title>
    <desc>Created with Sketch.</desc>
    <defs></defs>
    <g id="Page-1" stroke="none" stroke-width="1" fill="none" fill-rule="evenodd">
        <g id="seeding" transform="translate(1.000000, 0.000000)">
            <path d="M29,1.90909091 L29,20.0909091" id="Line-4" stroke-opacity="0.2" stroke="#000000" stroke-width="2" stroke-linecap="round" stroke-dasharray="1,5,1,5"></path>
            <path d="M22,28.9285714 L22,40.0714286" id="Line-4-Copy-3" stroke-opacity="0.2" stroke="#000000" stroke-width="2" stroke-linecap="round" stroke-dasharray="1,5,1,5"></path>
            <path d="M51,12.8928571 L51,36.1071429" id="Line-4-Copy" stroke-opacity="0.2" stroke="#000000" stroke-width="2" stroke-linecap="round" stroke-dasharray="1,5,1,5"></path>
            <path d="M0,14.8928571 L0,38.1071429" id="Line-4-Copy-2" stroke-opacity="0.2" stroke="#000000" stroke-width="2" stroke-linecap="round" stroke-dasharray="1,5,1,5"></path>
            <g id="if_back_126585" transform="translate(7.000000, 14.000000)" fill="#000000" fill-opacity="0.2" fill-rule="nonzero">
                <path d="M13,6 L6,6 L6,3 C6,2.516 5.625,2 5,2 C4.539,2 4.305,2.287 4,2.54 L-1.375,7 C-1.758,7.313 -2,7.555 -2,8 C-2,8.445 -1.758,8.688 -1.375,9 L4,13.46 C4.305,13.713 4.539,14 5,14 C5.625,14 6,13.484 6,13 L6,10 L13,10 C13.55,10 14,9.55 14,9 L14,7 C14,6.45 13.55,6 13,6 Z" id="Shape" transform="translate(6.000000, 8.000000) rotate(90.000000) translate(-6.000000, -8.000000) "></path>
            </g>
            <g id="if_back_126585-copy-5" transform="translate(4.000000, 6.000000)" fill="#000000" fill-opacity="0.2" fill-rule="nonzero">
                <path d="M5.41666634,2.49999967 L2.49999967,2.49999967 L2.49999967,1.24999967 C2.49999967,1.048333 2.34374967,0.833333 2.083333,0.833333 C1.89124967,0.833333 1.79374967,0.952916334 1.66666634,1.058333 L-0.572916997,2.91666634 C-0.73250033,3.047083 -0.833333663,3.14791634 -0.833333663,3.333333 C-0.833333663,3.51874967 -0.73250033,3.61999967 -0.572916997,3.74999967 L1.66666634,5.608333 C1.79374967,5.71374967 1.89124967,5.833333 2.083333,5.833333 C2.34374967,5.833333 2.49999967,5.618333 2.49999967,5.41666634 L2.49999967,4.16666634 L5.41666634,4.16666634 C5.645833,4.16666634 5.833333,3.97916634 5.833333,3.74999967 L5.833333,2.91666634 C5.833333,2.68749967 5.645833,2.49999967 5.41666634,2.49999967 Z" id="Shape" transform="translate(2.500000, 3.333333) rotate(90.000000) translate(-2.500000, -3.333333) "></path>
            </g>
            <g id="if_back_126585-copy-6" transform="translate(5.000000, 32.000000)" fill="#000000" fill-opacity="0.2" fill-rule="nonzero">
                <path d="M5.41666634,2.49999967 L2.49999967,2.49999967 L2.49999967,1.24999967 C2.49999967,1.048333 2.34374967,0.833333 2.083333,0.833333 C1.89124967,0.833333 1.79374967,0.952916334 1.66666634,1.058333 L-0.572916997,2.91666634 C-0.73250033,3.047083 -0.833333663,3.14791634 -0.833333663,3.333333 C-0.833333663,3.51874967 -0.73250033,3.61999967 -0.572916997,3.74999967 L1.66666634,5.608333 C1.79374967,5.71374967 1.89124967,5.833333 2.083333,5.833333 C2.34374967,5.833333 2.49999967,5.618333 2.49999967,5.41666634 L2.49999967,4.16666634 L5.41666634,4.16666634 C5.645833,4.16666634 5.833333,3.97916634 5.833333,3.74999967 L5.833333,2.91666634 C5.833333,2.68749967 5.645833,2.49999967 5.41666634,2.49999967 Z" id="Shape" transform="translate(2.500000, 3.333333) rotate(90.000000) translate(-2.500000, -3.333333) "></path>
            </g>
            <g id="if_back_126585-copy-2" transform="translate(39.000000, 20.000000) scale(-1, 1) rotate(-180.000000) translate(-39.000000, -20.000000) translate(33.000000, 12.000000)" fill="#000000" fill-opacity="0.2" fill-rule="nonzero">
                <path d="M13,6 L6,6 L6,3 C6,2.516 5.625,2 5,2 C4.539,2 4.305,2.287 4,2.54 L-1.375,7 C-1.758,7.313 -2,7.555 -2,8 C-2,8.445 -1.758,8.688 -1.375,9 L4,13.46 C4.305,13.713 4.539,14 5,14 C5.625,14 6,13.484 6,13 L6,10 L13,10 C13.55,10 14,9.55 14,9 L14,7 C14,6.45 13.55,6 13,6 Z" id="Shape" transform="translate(6.000000, 8.000000) rotate(90.000000) translate(-6.000000, -8.000000) "></path>
            </g>
            <g id="if_back_126585-copy-3" transform="translate(45.500000, 4.166666) scale(-1, 1) rotate(-180.000000) translate(-45.500000, -4.166666) translate(43.000000, 0.666666)" fill="#000000" fill-opacity="0.2" fill-rule="nonzero">
                <path d="M5.41666634,2.49999967 L2.49999967,2.49999967 L2.49999967,1.24999967 C2.49999967,1.048333 2.34374967,0.833333 2.083333,0.833333 C1.89124967,0.833333 1.79374967,0.952916334 1.66666634,1.058333 L-0.572916997,2.91666634 C-0.73250033,3.047083 -0.833333663,3.14791634 -0.833333663,3.333333 C-0.833333663,3.51874967 -0.73250033,3.61999967 -0.572916997,3.74999967 L1.66666634,5.608333 C1.79374967,5.71374967 1.89124967,5.833333 2.083333,5.833333 C2.34374967,5.833333 2.49999967,5.618333 2.49999967,5.41666634 L2.49999967,4.16666634 L5.41666634,4.16666634 C5.645833,4.16666634 5.833333,3.97916634 5.833333,3.74999967 L5.833333,2.91666634 C5.833333,2.68749967 5.645833,2.49999967 5.41666634,2.49999967 Z" id="Shape" transform="translate(2.500000, 3.333333) rotate(90.000000) translate(-2.500000, -3.333333) "></path>
            </g>
            <g id="if_back_126585-copy-4" transform="translate(32.000000, 33.166666) scale(-1, 1) rotate(-180.000000) translate(-32.000000, -33.166666) translate(28.000000, 27.666666)" fill="#000000" fill-opacity="0.2" fill-rule="nonzero">
                <path d="M8.66666634,3.99999967 L3.99999967,3.99999967 L3.99999967,1.99999967 C3.99999967,1.677333 3.74999967,1.333333 3.333333,1.333333 C3.02599967,1.333333 2.86999967,1.52466634 2.66666634,1.693333 L-0.916666997,4.66666634 C-1.17200033,4.875333 -1.33333366,5.03666634 -1.33333366,5.333333 C-1.33333366,5.62999967 -1.17200033,5.79199967 -0.916666997,5.99999967 L2.66666634,8.973333 C2.86999967,9.14199967 3.02599967,9.333333 3.333333,9.333333 C3.74999967,9.333333 3.99999967,8.989333 3.99999967,8.66666634 L3.99999967,6.66666634 L8.66666634,6.66666634 C9.033333,6.66666634 9.333333,6.36666634 9.333333,5.99999967 L9.333333,4.66666634 C9.333333,4.29999967 9.033333,3.99999967 8.66666634,3.99999967 Z" id="Shape" transform="translate(4.000000, 5.333333) rotate(90.000000) translate(-4.000000, -5.333333) "></path>
            </g>
            <g id="if_back_126585-copy" transform="translate(17.000000, 2.000000)" fill="#000000" fill-opacity="0.2" fill-rule="nonzero">
                <path d="M6.5,3 L3,3 L3,1.5 C3,1.258 2.8125,1 2.5,1 C2.2695,1 2.1525,1.1435 2,1.27 L-0.6875,3.5 C-0.879,3.6565 -1,3.7775 -1,4 C-1,4.2225 -0.879,4.344 -0.6875,4.5 L2,6.73 C2.1525,6.8565 2.2695,7 2.5,7 C2.8125,7 3,6.742 3,6.5 L3,5 L6.5,5 C6.775,5 7,4.775 7,4.5 L7,3.5 C7,3.225 6.775,3 6.5,3 Z" id="Shape" transform="translate(3.000000, 4.000000) rotate(90.000000) translate(-3.000000, -4.000000) "></path>
            </g>
        </g>
    </g>
</svg>