<?xml version="1.0" encoding="UTF-8"?>
<svg width="335px" height="239px" viewBox="0 0 335 239" version="1.1" xmlns="http://www.w3.org/2000/svg" xmlns:xlink="http://www.w3.org/1999/xlink">
    <!-- Generator: Sketch 49.1 (51147) - http://www.bohemiancoding.com/sketch -->
    <title>traditional-web</title>
    <desc>Created with Sketch.</desc>
    <defs>
        <polygon id="path-1" points="25.8072364 59 49.0778897 59 53 82 23 82"></polygon>
        <polygon id="path-2" points="25.8072364 59 49.0778897 59 53 82 23 82"></polygon>
        <polygon id="path-3" points="25.8072364 59 49.0778897 59 53 82 23 82"></polygon>
        <rect id="path-4" x="0" y="0" width="34" height="24" rx="2"></rect>
        <rect id="path-5" x="0" y="0" width="34" height="24" rx="2"></rect>
        <rect id="path-6" x="0" y="0" width="34" height="24" rx="2"></rect>
    </defs>
    <g id="Page-1" stroke="none" stroke-width="1" fill="none" fill-rule="evenodd">
        <g id="traditional-web" transform="translate(1.000000, 1.000000)">
            <path d="M44.5,118.5 L137.5,44.5" id="Line-3-Copy-6" stroke="#000000" stroke-width="4" stroke-linecap="round" stroke-dasharray="3,12,3,12"></path>
            <path d="M166.5,177.5 L166.5,44.5" id="Line-3-Copy-7" stroke="#000000" stroke-width="4" stroke-linecap="round" stroke-dasharray="3,12,3,12"></path>
            <path d="M284.5,106.5 L220.5,59.5" id="Line-3-Copy-8" stroke="#000000" stroke-width="4" stroke-linecap="round" stroke-dasharray="3,12,3,12"></path>
            <path d="M201.443428,29.8791667 C201.443428,29.5833333 201.492837,29.2875 201.492837,28.9916667 C201.492837,12.9673611 188.695871,0 172.909651,0 C161.520844,0 151.737835,6.75486111 147.142785,16.5173611 C145.141715,15.5065972 142.893599,14.9149306 140.52196,14.9149306 C133.234112,14.9149306 127.156788,20.3138889 125.995674,27.3645833 C117.250256,30.3722222 111,38.7295139 111,48.5659722 C111,60.9416667 120.906532,70.9753472 133.11059,71 L201.468133,71 C212.634598,70.9506944 221.651766,61.7552083 221.651766,50.4395833 C221.676471,39.0993056 212.609894,29.9038194 201.443428,29.8791667 Z" id="cloud" stroke="#000000" stroke-width="2" fill="#EEEEEE" fill-rule="nonzero"></path>
            <g id="computer-green-copy-2" transform="translate(0.000000, 103.000000)">
                <path d="M74.9541284,44 L1.04587156,44 C0.468252647,44 9.90848586e-15,43.5382936 9.90848586e-15,42.96875 L0,1.03125 C0,0.461706352 0.468252647,9.76996262e-15 1.04587156,9.76996262e-15 L74.9541284,0 C75.5317474,0 76,0.461706352 76,1.03125 L76,42.96875 C76,43.5382936 75.5317474,44 74.9541284,44 Z" id="Rectangle-2-Copy" stroke="#111111" stroke-width="2" fill="#EEEEEE"></path>
                <g id="Rectangle-8-Copy">
                    <use fill="#FFFFFF" fill-rule="evenodd" xlink:href="#path-1"></use>
                    <path stroke="#000000" stroke-width="2" d="M26.6926037,60 L24.1294748,81 L51.815038,81 L48.2339807,60 L26.6926037,60 Z"></path>
                </g>
                <path d="M74.9541284,60 L1.04587156,60 C0.468252647,60 9.90848586e-15,59.5314608 9.90848586e-15,58.9534884 L0,1.04651163 C0,0.468539215 0.468252647,9.9145498e-15 1.04587156,9.9145498e-15 L74.9541284,0 C75.5317474,0 76,0.468539215 76,1.04651163 L76,58.9534884 C76,59.5314608 75.5317474,60 74.9541284,60 Z" id="Rectangle-2" stroke="#111111" stroke-width="2"></path>
            </g>
            <g id="computer-green-copy-3" transform="translate(128.000000, 156.000000)">
                <path d="M74.9541284,44 L1.04587156,44 C0.468252647,44 9.90848586e-15,43.5382936 9.90848586e-15,42.96875 L0,1.03125 C0,0.461706352 0.468252647,9.76996262e-15 1.04587156,9.76996262e-15 L74.9541284,0 C75.5317474,0 76,0.461706352 76,1.03125 L76,42.96875 C76,43.5382936 75.5317474,44 74.9541284,44 Z" id="Rectangle-2-Copy" stroke="#111111" stroke-width="2" fill="#EEEEEE"></path>
                <g id="Rectangle-8-Copy">
                    <use fill="#FFFFFF" fill-rule="evenodd" xlink:href="#path-2"></use>
                    <path stroke="#000000" stroke-width="2" d="M26.6926037,60 L24.1294748,81 L51.815038,81 L48.2339807,60 L26.6926037,60 Z"></path>
                </g>
                <path d="M74.9541284,60 L1.04587156,60 C0.468252647,60 9.90848586e-15,59.5314608 9.90848586e-15,58.9534884 L0,1.04651163 C0,0.468539215 0.468252647,9.9145498e-15 1.04587156,9.9145498e-15 L74.9541284,0 C75.5317474,0 76,0.468539215 76,1.04651163 L76,58.9534884 C76,59.5314608 75.5317474,60 74.9541284,60 Z" id="Rectangle-2" stroke="#111111" stroke-width="2"></path>
            </g>
            <g id="computer-green-copy-5" transform="translate(257.000000, 103.000000)">
                <path d="M74.9541284,44 L1.04587156,44 C0.468252647,44 9.90848586e-15,43.5382936 9.90848586e-15,42.96875 L0,1.03125 C0,0.461706352 0.468252647,9.76996262e-15 1.04587156,9.76996262e-15 L74.9541284,0 C75.5317474,0 76,0.461706352 76,1.03125 L76,42.96875 C76,43.5382936 75.5317474,44 74.9541284,44 Z" id="Rectangle-2-Copy" stroke="#111111" stroke-width="2" fill="#EEEEEE"></path>
                <g id="Rectangle-8-Copy">
                    <use fill="#FFFFFF" fill-rule="evenodd" xlink:href="#path-3"></use>
                    <path stroke="#000000" stroke-width="2" d="M26.6926037,60 L24.1294748,81 L51.815038,81 L48.2339807,60 L26.6926037,60 Z"></path>
                </g>
                <path d="M74.9541284,60 L1.04587156,60 C0.468252647,60 9.90848586e-15,59.5314608 9.90848586e-15,58.9534884 L0,1.04651163 C0,0.468539215 0.468252647,9.9145498e-15 1.04587156,9.9145498e-15 L74.9541284,0 C75.5317474,0 76,0.468539215 76,1.04651163 L76,58.9534884 C76,59.5314608 75.5317474,60 74.9541284,60 Z" id="Rectangle-2" stroke="#111111" stroke-width="2"></path>
            </g>
            <g id="code" transform="translate(199.000000, 27.000000)">
                <g id="Rectangle-11-Copy-3">
                    <use fill="#FFFFFF" fill-rule="evenodd" xlink:href="#path-4"></use>
                    <rect stroke="#111111" stroke-width="2" x="1" y="1" width="32" height="22" rx="2"></rect>
                </g>
                <g transform="translate(7.000000, 5.000000)" stroke="#111111" stroke-width="2">
                    <polyline id="Path-2" points="5 2 0 6.5 5 11"></polyline>
                    <polyline id="Path-2-Copy-2" transform="translate(17.500000, 6.500000) scale(-1, 1) translate(-17.500000, -6.500000) " points="20 2 15 6.5 20 11"></polyline>
                    <path d="M12,0 L8,14" id="Line-3" stroke-linecap="square"></path>
                </g>
            </g>
            <g id="text" transform="translate(95.000000, 26.000000)">
                <g id="Rectangle-11-Copy-4">
                    <use fill="#FFFFFF" fill-rule="evenodd" xlink:href="#path-5"></use>
                    <rect stroke="#111111" stroke-width="2" x="1" y="1" width="32" height="22" rx="2"></rect>
                </g>
                <rect id="Rectangle-10-Copy-8" fill="#111111" x="6" y="6" width="20" height="2" rx="1"></rect>
                <rect id="Rectangle-10-Copy-7" fill="#111111" x="6" y="10" width="15" height="2" rx="1"></rect>
                <rect id="Rectangle-10-Copy-6" fill="#111111" x="6" y="14" width="20" height="2" rx="1"></rect>
            </g>
            <g id="picture-copy" transform="translate(149.000000, 58.000000)">
                <g id="Rectangle-11-Copy-2">
                    <use fill="#FFFFFF" fill-rule="evenodd" xlink:href="#path-6"></use>
                    <rect stroke="#111111" stroke-width="2" x="1" y="1" width="32" height="22" rx="2"></rect>
                </g>
                <path d="M32,22.2558594 L1.5546875,22.2558594 L1.5546875,18.3203125 L7.55545875,12.5442099 C8.29143088,11.8357949 9.44297778,11.7958532 10.2262652,12.4515723 C13.8059571,15.4482656 15.9896499,16.9466122 16.7773437,16.9466122 C17.5572497,16.9466122 19.660033,14.2757869 23.0856935,8.9341364 L23.0856992,8.93414002 C23.6819841,8.00434979 24.9191125,7.73399033 25.8489027,8.33027527 C26.0114566,8.43452293 26.1580556,8.56176357 26.2841349,8.70803515 L32,15.3393293 L32,22.2558594 Z" id="Path-2-Copy" fill="#111111"></path>
                <circle id="Oval-9" fill="#111111" cx="16" cy="8" r="3"></circle>
            </g>
        </g>
    </g>
</svg>