<svg width="335" height="239" xmlns="http://www.w3.org/2000/svg" xmlns:xlink="http://www.w3.org/1999/xlink"><defs><path id="a" d="M25.807 59h23.27L53 82H23z"/><path id="b" d="M25.807 59h23.27L53 82H23z"/><path id="c" d="M25.807 59h23.27L53 82H23z"/><rect id="d" width="34" height="24" rx="2"/><rect id="e" width="34" height="24" rx="2"/><rect id="f" width="34" height="24" rx="2"/></defs><g fill="none" fill-rule="evenodd"><path d="M45.5 119.5l93-74M167.5 178.5v-133M285.5 107.5l-64-47" stroke="#000" stroke-width="4" stroke-linecap="round" stroke-dasharray="3,12,3,12"/><path d="M202.443 30.88c0-.297.05-.592.05-.888C202.493 13.967 189.696 1 173.91 1c-11.39 0-21.172 6.755-25.767 16.517-2.001-1.01-4.25-1.602-6.621-1.602-7.288 0-13.365 5.399-14.526 12.45C118.25 31.372 112 39.73 112 49.566c0 12.376 9.907 22.41 22.11 22.434h68.358c11.167-.05 20.184-9.245 20.184-20.56.024-11.34-9.042-20.536-20.209-20.56z" stroke="#000" stroke-width="2" fill="#EEE" fill-rule="nonzero"/><path d="M75.954 148H2.046A1.039 1.039 0 0 1 1 146.969V105.03c0-.57.468-1.031 1.046-1.031h73.908c.578 0 1.046.462 1.046 1.031v41.938c0 .57-.468 1.031-1.046 1.031z" stroke="#111" stroke-width="2" fill="#EEE"/><g transform="translate(1 104)"><use fill="#FFF" xlink:href="#a"/><path stroke="#000" stroke-width="2" d="M26.693 60l-2.564 21h27.686l-3.581-21H26.693z"/></g><path d="M75.954 164H2.046A1.046 1.046 0 0 1 1 162.953v-57.906c0-.578.468-1.047 1.046-1.047h73.908c.578 0 1.046.469 1.046 1.047v57.906c0 .578-.468 1.047-1.046 1.047z" stroke="#111" stroke-width="2"/><path d="M203.954 201h-73.908a1.039 1.039 0 0 1-1.046-1.031V158.03c0-.57.468-1.031 1.046-1.031h73.908c.578 0 1.046.462 1.046 1.031v41.938c0 .57-.468 1.031-1.046 1.031z" stroke="#111" stroke-width="2" fill="#EEE"/><g transform="translate(129 157)"><use fill="#FFF" xlink:href="#b"/><path stroke="#000" stroke-width="2" d="M26.693 60l-2.564 21h27.686l-3.581-21H26.693z"/></g><path d="M203.954 217h-73.908a1.046 1.046 0 0 1-1.046-1.047v-57.906c0-.578.468-1.047 1.046-1.047h73.908c.578 0 1.046.469 1.046 1.047v57.906c0 .578-.468 1.047-1.046 1.047z" stroke="#111" stroke-width="2"/><g><path d="M332.954 148h-73.908a1.039 1.039 0 0 1-1.046-1.031V105.03c0-.57.468-1.031 1.046-1.031h73.908c.578 0 1.046.462 1.046 1.031v41.938c0 .57-.468 1.031-1.046 1.031z" stroke="#111" stroke-width="2" fill="#EEE"/><g transform="translate(258 104)"><use fill="#FFF" xlink:href="#c"/><path stroke="#000" stroke-width="2" d="M26.693 60l-2.564 21h27.686l-3.581-21H26.693z"/></g><path d="M332.954 164h-73.908a1.046 1.046 0 0 1-1.046-1.047v-57.906c0-.578.468-1.047 1.046-1.047h73.908c.578 0 1.046.469 1.046 1.047v57.906c0 .578-.468 1.047-1.046 1.047z" stroke="#111" stroke-width="2"/></g><g><g transform="translate(200 28)"><use fill="#FFF" xlink:href="#d"/><rect stroke="#111" stroke-width="2" x="1" y="1" width="32" height="22" rx="2"/></g><g stroke="#111" stroke-width="2"><path d="M212 35l-5 4.5 5 4.5M222 35l5 4.5-5 4.5"/><path d="M219 33l-4 14" stroke-linecap="square"/></g></g><g transform="translate(96 27)"><use fill="#FFF" xlink:href="#e"/><rect stroke="#111" stroke-width="2" x="1" y="1" width="32" height="22" rx="2"/><rect fill="#111" x="6" y="6" width="20" height="2" rx="1"/><rect fill="#111" x="6" y="10" width="15" height="2" rx="1"/><rect fill="#111" x="6" y="14" width="20" height="2" rx="1"/></g><g transform="translate(150 59)"><use fill="#FFF" xlink:href="#f"/><rect stroke="#111" stroke-width="2" x="1" y="1" width="32" height="22" rx="2"/><path d="M32 22.256H1.555V18.32l6-5.776a2 2 0 0 1 2.671-.092c3.58 2.996 5.764 4.495 6.551 4.495.78 0 2.883-2.671 6.309-8.013a2 2 0 0 1 3.198-.226L32 15.339v6.917z" fill="#111"/><circle fill="#111" cx="16" cy="8" r="3"/></g></g></svg>