<?xml version="1.0" encoding="UTF-8"?>
<svg width="505px" height="314px" viewBox="0 0 505 314" version="1.1" xmlns="http://www.w3.org/2000/svg" xmlns:xlink="http://www.w3.org/1999/xlink">
    <!-- Generator: Sketch 49.1 (51147) - http://www.bohemiancoding.com/sketch -->
    <title>url-bar</title>
    <desc>Created with Sketch.</desc>
    <defs>
        <rect id="path-1" x="71" y="114" width="500" height="80" rx="8"></rect>
        <rect id="path-2" x="230" y="125" width="326" height="55" rx="8"></rect>
        <path d="M157.076812,150.551391 L143.460761,136.93534 C142.213641,135.68822 140.169671,135.68822 138.922551,136.93534 L137.786223,138.071668 C136.539103,139.317368 136.539103,141.361338 137.786223,142.608458 L148.175102,153.000178 L137.784802,163.390477 C136.537682,164.637597 136.537682,166.681567 137.784802,167.927267 L138.921131,169.063595 C140.168251,170.312135 142.212221,170.312135 143.459341,169.063595 L157.075391,155.446124 C157.745825,154.777111 158.044111,153.879411 157.994397,152.998757 C158.045531,152.119523 157.747245,151.221824 157.076812,150.551391 Z" id="path-3"></path>
        <path d="M111.076812,150.551391 L97.460761,136.93534 C96.213641,135.68822 94.1696709,135.68822 92.9225509,136.93534 L91.7862229,138.071668 C90.5391029,139.317368 90.5391029,141.361338 91.7862229,142.608458 L102.175102,153.000178 L91.7848025,163.390477 C90.5376825,164.637597 90.5376825,166.681567 91.7848025,167.927267 L92.9211305,169.063595 C94.1682505,170.312135 96.2122206,170.312135 97.4593406,169.063595 L111.075391,155.446124 C111.745825,154.777111 112.044111,153.879411 111.994397,152.998757 C112.045531,152.119523 111.747245,151.221824 111.076812,150.551391 Z" id="path-4"></path>
        <linearGradient x1="50%" y1="93.3004404%" x2="50%" y2="0%" id="linearGradient-5">
            <stop stop-color="#EEEEEE" offset="0%"></stop>
            <stop stop-color="#EEEEEE" stop-opacity="0.05" offset="100%"></stop>
        </linearGradient>
    </defs>
    <g id="Page-1" stroke="none" stroke-width="1" fill="none" fill-rule="evenodd">
        <g id="url-bar" transform="translate(-69.000000, 2.000000)">
            <g id="Rectangle-9">
                <use fill="#F7F7F7" fill-rule="evenodd" xlink:href="#path-1"></use>
                <rect stroke="#DDDDDD" stroke-width="1" x="71.5" y="114.5" width="499" height="79" rx="8"></rect>
            </g>
            <g id="Rectangle-12">
                <use fill="#FFFFFF" fill-rule="evenodd" xlink:href="#path-2"></use>
                <rect stroke="#DDDDDD" stroke-width="1" x="230.5" y="125.5" width="325" height="54" rx="8"></rect>
            </g>
            <text id="dat://beakerbrowser." font-family="Hind-Medium, Hind" font-size="24" font-weight="400">
                <tspan x="243" y="160" fill="#3D5AF0">dat://</tspan>
                <tspan x="304.08" y="160" font-family="Hind-Regular, Hind" font-weight="normal" fill="#C4C4C4">beakerbrowser.com</tspan>
            </text>
            <g id="arrow-right" fill-rule="nonzero">
                <use fill="#C4C4C4" fill-rule="evenodd" xlink:href="#path-3"></use>
                <path stroke="#EEEEEE" stroke-width="2.25" d="M156.281317,151.346886 L142.665266,137.730835 C141.857486,136.923055 140.525826,136.923055 139.718046,137.730835 L138.581265,138.867616 C137.774013,139.673948 137.774013,141.005258 138.581827,141.813071 L149.765983,153.000286 L138.580298,164.185972 C137.772593,164.993677 137.772593,166.324987 138.580298,167.131772 L139.717078,168.268552 C140.524755,169.077149 141.855716,169.077149 142.663804,168.268141 L156.28074,154.649785 C156.696976,154.234432 156.905079,153.662573 156.871185,153.062164 L156.871294,152.933439 C156.906063,152.335606 156.698217,151.763787 156.281317,151.346886 Z"></path>
            </g>
            <g id="arrow-left" fill-rule="nonzero" transform="translate(101.424731, 153.000000) scale(-1, 1) translate(-101.424731, -153.000000) ">
                <use fill="#C4C4C4" fill-rule="evenodd" xlink:href="#path-4"></use>
                <path stroke="#EEEEEE" stroke-width="2.25" d="M110.281317,151.346886 L96.6652659,137.730835 C95.8574857,136.923055 94.5258262,136.923055 93.7180461,137.730835 L92.5812646,138.867616 C91.7740134,139.673948 91.7740134,141.005258 92.5818268,141.813071 L103.765983,153.000286 L92.5802976,164.185972 C91.772593,164.993677 91.772593,166.324987 92.5802976,167.131772 L93.7170783,168.268552 C94.5247551,169.077149 95.855716,169.077149 96.663804,168.268141 L110.28074,154.649785 C110.696976,154.234432 110.905079,153.662573 110.871185,153.062164 L110.871294,152.933439 C110.906063,152.335606 110.698217,151.763787 110.281317,151.346886 Z"></path>
            </g>
            <path d="M204.3,141.7 C201.41,138.8 197.42,137 193,137 C184.16,137 177.02,144.16 177.02,153 C177.02,161.84 184.16,169 193,169 C200.45,169 206.69,163.9 208.46,157 L204.3,157 C202.65,161.66 198.23,165 193,165 C186.37,165 181,159.63 181,153 C181,146.37 186.37,141 193,141 C196.31,141 199.28,142.38 201.45,144.55 L195,151 L209,151 L209,137 L204.3,141.7 Z" id="refresh" stroke="#EEEEEE" stroke-width="0.5" fill="#C4C4C4" fill-rule="nonzero"></path>
            <path d="M75.5,0.703125 L75.5,94.5 C75.5,95.6045695 76.3954305,96.5 77.5,96.5 L307.21875,96.5 C308.323319,96.5 309.21875,95.6045695 309.21875,94.5 L309.21875,0.703125" id="Line-5" stroke="url(#linearGradient-5)" stroke-width="4" stroke-linecap="round" stroke-dasharray="4,10,4,10"></path>
            <path d="M71.71875,214 L71.71875,307.796875 C71.71875,308.901444 72.6141805,309.796875 73.71875,309.796875 L569.71875,309.796875 C570.823319,309.796875 571.71875,308.901444 571.71875,307.796875 L571.71875,214" id="Line-5-Copy-2" stroke="url(#linearGradient-5)" stroke-width="4" stroke-linecap="round" stroke-dasharray="4,10,4,10" transform="translate(321.718750, 261.898438) scale(1, -1) translate(-321.718750, -261.898438) "></path>
            <path d="M332,0 L332,93.796875 C332,94.9014445 332.895431,95.796875 334,95.796875 L563.71875,95.796875 C564.823319,95.796875 565.71875,94.9014445 565.71875,93.796875 L565.71875,0" id="Line-5-Copy" stroke="url(#linearGradient-5)" stroke-width="4" stroke-linecap="round" stroke-dasharray="4,10,4,10"></path>
        </g>
    </g>
</svg>