<svg xmlns="http://www.w3.org/2000/svg"
 viewBox="0 0 630.000000 630.000000"
 preserveAspectRatio="xMidYMid meet">
<g transform="translate(0.000000,630.000000) scale(0.100000,-0.100000)"
stroke="none">
<path d="M0 3150 l0 -3150 3150 0 3150 0 0 3150 0 3150 -3150 0 -3150 0 0
-3150z m4145 3041 c53 -24 103 -75 129 -131 21 -44 21 -59 26 -895 l5 -850
738 -1487 c802 -1615 768 -1540 735 -1640 -17 -47 -505 -923 -544 -974 -13
-18 -47 -44 -76 -58 l-52 -26 -1974 0 c-1521 0 -1984 3 -2016 12 -26 8 -59 31
-91 63 -50 50 -51 54 -227 520 -98 259 -180 486 -183 505 -4 19 -2 56 4 81 6
25 335 709 731 1519 l720 1472 0 842 0 841 24 51 c28 60 90 116 148 134 45 13
943 36 1563 38 271 1 304 0 340 -17z"/>
<path d="M3190 5689 c-173 -3 -381 -7 -462 -8 l-148 -1 0 -697 c-1 -384 -5
-730 -9 -769 -8 -67 -48 -152 -715 -1514 -388 -794 -706 -1449 -706 -1455 1
-5 51 -143 113 -305 l113 -295 1759 0 1760 0 172 305 c94 168 172 310 172 317
1 6 -321 662 -714 1458 -483 976 -719 1462 -725 1497 -6 30 -10 347 -10 764
l0 714 -142 -2 c-79 -1 -285 -5 -458 -9z m1468 -3502 c243 -491 442 -898 442
-906 0 -8 -66 -128 -146 -267 l-147 -254 -1672 0 -1671 0 -92 237 c-51 131
-92 245 -92 253 0 8 201 423 447 922 l446 908 1022 0 1022 0 441 -893z"/>
</g>
</svg>
