<svg xmlns="http://www.w3.org/2000/svg" viewBox="0 0 630 630"><path d="M0 315v315h630V0H0v315zM414.5 10.9c5.3 2.4 10.3 7.5 12.9 13.1 2.1 4.4 2.1 5.9 2.6 89.5l.5 85 73.8 148.7c80.2 161.5 76.8 154 73.5 164-1.7 4.7-50.5 92.3-54.4 97.4-1.3 1.8-4.7 4.4-7.6 5.8l-5.2 2.6H313.2c-152.1 0-198.4-.3-201.6-1.2-2.6-.8-5.9-3.1-9.1-6.3-5-5-5.1-5.4-22.7-52-9.8-25.9-18-48.6-18.3-50.5-.4-1.9-.2-5.6.4-8.1.6-2.5 33.5-70.9 73.1-151.9l72-147.2V31.5l2.4-5.1c2.8-6 9-11.6 14.8-13.4 4.5-1.3 94.3-3.6 156.3-3.8 27.1-.1 30.4 0 34 1.7z"/><path d="M319 61.1c-17.3.3-38.1.7-46.2.8L258 62v69.7c-.1 38.4-.5 73-.9 76.9-.8 6.7-4.8 15.2-71.5 151.4-38.8 79.4-70.6 144.9-70.6 145.5.1.5 5.1 14.3 11.3 30.5l11.3 29.5h351.9l17.2-30.5c9.4-16.8 17.2-31 17.2-31.7.1-.6-32.1-66.2-71.4-145.8-48.3-97.6-71.9-146.2-72.5-149.7-.6-3-1-34.7-1-76.4V60l-14.2.2c-7.9.1-28.5.5-45.8.9zm146.8 350.2c24.3 49.1 44.2 89.8 44.2 90.6 0 .8-6.6 12.8-14.6 26.7L480.7 554H146.4l-9.2-23.7c-5.1-13.1-9.2-24.5-9.2-25.3 0-.8 20.1-42.3 44.7-92.2l44.6-90.8h204.4l44.1 89.3z"/></svg>