<svg width="200" height="200" xmlns="http://www.w3.org/2000/svg"><g fill="#FFF" fill-rule="evenodd"><path d="M187.092 19.067c-1.132 8.275-.904 17.386.685 27.331 2.784 17.422 2.784 30.977 0 40.665L101.371 1.82c7.964 0 19.826 1.796 35.586 5.387 11.072 2.523 23.414 2.387 37.024-.407 5.951-1.222 11.766 2.612 12.988 8.563a11 11 0 0 1 .123 3.704z"/><path d="M100 200C44.772 200 0 155.228 0 100S44.772 0 100 0c19.477 0 37.653 5.568 53.024 15.2a100.44 100.44 0 0 1 17.218 13.624C188.614 46.956 200 72.148 200 100c0 55.228-44.772 100-100 100zm1-30c38.66 0 70-31.34 70-70 0-19.496-7.97-37.13-20.83-49.823C137.529 37.7 120.164 30 101 30c-38.66 0-70 31.34-70 70s31.34 70 70 70z"/></g></svg>