<?xml version="1.0" encoding="UTF-8"?>
<svg width="200px" height="200px" viewBox="0 0 200 200" version="1.1" xmlns="http://www.w3.org/2000/svg" xmlns:xlink="http://www.w3.org/1999/xlink">
    <!-- Generator: Sketch 49.1 (51147) - http://www.bohemiancoding.com/sketch -->
    <title>logo</title>
    <desc>Created with Sketch.</desc>
    <defs></defs>
    <g id="Page-1" stroke="none" stroke-width="1" fill="none" fill-rule="evenodd">
        <g id="logo" transform="translate(0.000000, -36.000000)" fill="#FFFFFF">
            <path d="M175.061956,40.0410535 C180.112825,46.6936175 186.716494,52.9743274 194.872962,58.8831833 C209.160662,69.2337357 218.745273,78.8183472 223.626797,87.6370176 L102.252664,88.4597754 C107.883738,82.8287011 117.541205,75.7107965 131.225066,67.1060618 C140.838421,61.0609564 149.469169,52.238242 157.117307,40.6379186 L157.117306,40.6379178 C160.461286,35.5659321 167.283774,34.1651067 172.35576,37.5090868 C173.39453,38.1939517 174.309579,39.0500884 175.061956,40.0410535 Z" id="Triangle-4" transform="translate(162.939730, 62.075641) rotate(45.000000) translate(-162.939730, -62.075641) "></path>
            <path d="M100,236 C44.771525,236 0,191.228475 0,136 C0,80.771525 44.771525,36 100,36 C119.47701,36 137.653481,41.568271 153.024343,51.1997442 C159.258669,55.1062097 165.031455,59.6810976 170.242279,64.8239856 C188.613781,82.955972 200,108.148289 200,136 C200,191.228475 155.228475,236 100,236 Z M101,206 C139.659932,206 171,174.659932 171,136 C171,116.503802 163.029646,98.8691804 150.169595,86.1767899 C137.528842,73.7008391 120.163735,66 101,66 C62.3400675,66 31,97.3400675 31,136 C31,174.659932 62.3400675,206 101,206 Z" id="Combined-Shape"></path>
        </g>
    </g>
</svg>