<svg width="212" height="212" xmlns="http://www.w3.org/2000/svg"><path d="M200.103 57.927c7.295 14.363 11.408 30.615 11.408 47.828 0 58.407-47.349 105.756-105.756 105.756C47.348 211.51 0 164.162 0 105.755 0 47.348 47.348 0 105.755 0c17.783 0 34.54 4.389 49.248 12.143 9.146.814 19.017.124 29.616-2.071 6.34-1.313 12.549 2.733 13.869 9.037.274 1.311.32 2.66.134 3.987-1.228 8.76-1.017 18.394.633 28.904.318 2.025.6 4 .848 5.927zm-93.336 122.211c41.08 0 74.383-33.302 74.383-74.383 0-20.717-8.47-39.455-22.135-52.943-13.432-13.257-31.884-21.44-52.248-21.44-41.08 0-74.383 33.303-74.383 74.383s33.303 74.383 74.383 74.383z" fill="#5543FF" fill-rule="evenodd"/></svg>