<svg width="647" height="243" xmlns="http://www.w3.org/2000/svg"><defs><linearGradient x1="50%" y1="93.3%" x2="50%" y2="0%" id="a"><stop stop-color="#EEE" offset="0%"/><stop stop-color="#EEE" stop-opacity=".05" offset="100%"/></linearGradient></defs><g fill="none" fill-rule="evenodd"><path d="M-51.063 56.86v128a2 2 0 0 0 2 2h229.72a2 2 0 0 0 2-2v-128" stroke="url(#a)" stroke-width="4" stroke-linecap="round" stroke-dasharray="4,10,4,10" transform="matrix(0 1 1 0 -54.063 58.062)"/><path d="M461.14 51.86v128a2 2 0 0 0 2 2h229.72a2 2 0 0 0 2-2v-128" stroke="url(#a)" stroke-width="4" stroke-linecap="round" stroke-dasharray="4,10,4,10" transform="rotate(90 578 118.86)"/><g transform="translate(175 15)"><rect stroke="#EEE" stroke-width="3" fill="#F9F9F9" width="300" height="209" rx="4"/><rect fill="#5743FF" x="186.585" y="26.667" width="95.122" height="34.833" rx="2.744"/><rect fill="#0AD895" x="186.585" y="71.667" width="95.122" height="34.833" rx="2.744"/><path d="M21.951 27.5h148.171c1.01 0 1.83.819 1.83 1.83v91.674a1.83 1.83 0 0 1-1.83 1.83H21.952a1.83 1.83 0 0 1-1.83-1.83V29.33c0-1.01.819-1.829 1.83-1.829z" stroke="#CCC" stroke-width="2.5" fill="#FFF" stroke-linecap="round" stroke-linejoin="round" stroke-dasharray="2,10,2,10"/><rect fill="#DDD" x="20.122" y="141.167" width="151.829" height="7" rx="1.829"/><rect fill="#DDD" x="20.122" y="157.667" width="107.927" height="7" rx="1.829"/><rect fill="#DDD" x="20.122" y="174.167" width="131.707" height="7" rx="1.829"/></g></g></svg>