<svg width="172" height="167" xmlns="http://www.w3.org/2000/svg" xmlns:xlink="http://www.w3.org/1999/xlink"><defs><path id="b" d="M25 0h147v151H25z"/><path d="M5 4h68v69H5V4z" id="a"/><mask id="c" x="0" y="0" width="68" height="69" fill="#fff"><use xlink:href="#a"/></mask></defs><g fill="none" fill-rule="evenodd"><use fill="#FFF" xlink:href="#b"/><path stroke="#B6ECDA" stroke-width="4" d="M27 2h143v147H27z"/><path d="M31.5 69.5H139" stroke="#8AD5BD" stroke-width="4" stroke-linecap="square" stroke-dasharray="5,12,5,11"/><path d="M39.744 14h35.474a2.744 2.744 0 0 1 2.744 2.744v9.512A2.744 2.744 0 0 1 75.218 29H39.744A2.744 2.744 0 0 1 37 26.256v-9.512A2.744 2.744 0 0 1 39.744 14zM88.744 14h35.474a2.744 2.744 0 0 1 2.744 2.744v9.512A2.744 2.744 0 0 1 124.218 29H88.744A2.744 2.744 0 0 1 86 26.256v-9.512A2.744 2.744 0 0 1 88.744 14z" fill="#92E4CA"/><g transform="translate(84 89)"><use stroke="#9BEECC" mask="url(#c)" stroke-width="8" fill="#EAFAF5" stroke-linecap="round" stroke-dasharray="1,1,1" xlink:href="#a"/><path fill="#0AD895" d="M1 0h13v13H1zM0 65h13v13H0zM64 0h13v13H64zM65 65h13v13H65z"/></g><path d="M26.286 50.2c0-7.26-5.915-13.2-13.143-13.2C5.914 37 0 42.94 0 50.2c0 7.26 5.914 13.2 13.143 13.2 1.971 0 3.614-.33 5.257-1.32L26.286 70 18.4 77.92c-1.643-.99-3.286-1.32-5.257-1.32C5.914 76.6 0 82.54 0 89.8 0 97.06 5.914 103 13.143 103c7.228 0 13.143-5.94 13.143-13.2 0-1.98-.329-3.63-1.315-5.28l7.886-7.92 23 23.1H69L24.971 55.48c.986-1.65 1.315-3.3 1.315-5.28zM13 57c-3.85 0-7-3.15-7-7s3.15-7 7-7 7 3.15 7 7-3.15 7-7 7zm0 42c-3.85 0-7-3.15-7-7s3.15-7 7-7 7 3.15 7 7-3.15 7-7 7zm20.5-31c.9 0 1.5.6 1.5 1.5s-.6 1.5-1.5 1.5-1.5-.6-1.5-1.5.6-1.5 1.5-1.5zM69 40H56.2L37 59.5l6.4 6.5L69 40z" fill="#0AD895" fill-rule="nonzero"/></g></svg>