<svg width="197" height="199" xmlns="http://www.w3.org/2000/svg"><defs><filter x="-4.9%" y="-3.7%" width="109.7%" height="109.6%" filterUnits="objectBoundingBox" id="a"><feOffset dy="2" in="SourceAlpha" result="shadowOffsetOuter1"/><feGaussianBlur stdDeviation="2" in="shadowOffsetOuter1" result="shadowBlurOuter1"/><feColorMatrix values="0 0 0 0 0.341176471 0 0 0 0 0.262745098 0 0 0 0 1 0 0 0 0.2 0" in="shadowBlurOuter1" result="shadowMatrixOuter1"/><feMerge><feMergeNode in="shadowMatrixOuter1"/><feMergeNode in="SourceGraphic"/></feMerge></filter><filter x="-8%" y="-2.7%" width="110.6%" height="110.6%" filterUnits="objectBoundingBox" id="b"><feOffset dx="-6" dy="6" in="SourceAlpha" result="shadowOffsetOuter1"/><feColorMatrix values="0 0 0 0 0.888671875 0 0 0 0 0.904575893 0 0 0 0 1 0 0 0 1 0" in="shadowOffsetOuter1" result="shadowMatrixOuter1"/><feMerge><feMergeNode in="shadowMatrixOuter1"/><feMergeNode in="SourceGraphic"/></feMerge></filter></defs><g filter="url(#a)" transform="translate(6 4)" fill="none" fill-rule="evenodd"><path d="M6 7h171v171H6V7z" stroke-opacity=".2" stroke="#5743FF" stroke-width="5" stroke-linecap="round" stroke-dasharray="3,14,3,14"/><circle stroke="#5743FF" stroke-width="4" fill="#FFF" cx="146" cy="8" r="8"/><circle stroke="#5743FF" stroke-width="4" fill="#FFF" cx="8" cy="10" r="8"/><circle stroke="#5743FF" stroke-width="4" fill="#FFF" cx="177" cy="134" r="8"/><circle stroke="#5743FF" stroke-width="4" fill="#FFF" cx="33" cy="179" r="8"/><g filter="url(#b)" transform="translate(38 35)" fill="#5743FF" fill-rule="nonzero"><path d="M83.13 98.328a49.337 49.337 0 0 1-18.3 7.072 78.395 78.395 0 0 0 2.826-3.762c.375-.53.3-1.256-.182-1.689-1.098-.985-1.74-2.054-2.405-3.372-.44-.87-1.655-.95-2.2-.142a70.248 70.248 0 0 1-2.92 4.028V88.157a5.4 5.4 0 0 0-.53-2.33L55.295 77.2c-.542-1.132-2.242-.746-2.242.509v2.326H41.919a71.45 71.45 0 0 1-3.863-20.087h7.678a.697.697 0 0 0 .657-.931 9.25 9.25 0 0 1-.305-5.12.696.696 0 0 0-.681-.846h-7.349a71.45 71.45 0 0 1 3.864-20.087h11.132v12.507c0 .717.617 1.274 1.332 1.21 1.384-.125 2.646.083 3.93.56a1.215 1.215 0 0 0 1.634-1.143V32.964h11.133a71.45 71.45 0 0 1 3.863 20.087h-1.532c-.936 0-1.243 1.257-.411 1.687l8.107 4.202a8.983 8.983 0 0 0 4.134 1.008h20.74a49.231 49.231 0 0 1-5.024 18.53c-.733 1.933-1.712 2.931-3.322 4.46a1.63 1.63 0 0 0-.032 2.335l3.148 3.148c.72.72 1.921.616 2.493-.225A56.174 56.174 0 0 0 113 56.5C113 25.345 87.645.001 56.502 0h-.004C25.336.001 0 25.364 0 56.5 0 87.69 25.39 113 56.5 113c11.523 0 22.25-3.47 31.194-9.416a1.158 1.158 0 0 0 .18-1.782l-3.313-3.313a1.15 1.15 0 0 0-1.431-.161zm17.025-65.363a49.243 49.243 0 0 1 5.826 20.087H81.845a78.463 78.463 0 0 0-3.5-20.087h21.81zm-4.511-6.897h-19.82A77.896 77.896 0 0 0 64.83 7.6c12.46 2.116 23.352 8.892 30.814 18.468zm-35.696-13.53a71.133 71.133 0 0 1 8.327 13.53h-8.327v-13.53zm-6.896 13.53h-8.327a71.125 71.125 0 0 1 8.327-13.53v13.53zM48.17 7.6a77.905 77.905 0 0 0-10.994 18.468h-19.82C24.818 16.492 35.71 9.716 48.17 7.6zM12.845 32.965h21.81a78.475 78.475 0 0 0-3.5 20.087H7.018a49.243 49.243 0 0 1 5.827-20.087zm0 47.07a49.243 49.243 0 0 1-5.827-20.087h24.137a78.463 78.463 0 0 0 3.5 20.087h-21.81zm4.511 6.897h19.82A77.896 77.896 0 0 0 48.17 105.4c-12.46-2.116-23.352-8.892-30.814-18.468zm35.696 13.53a71.133 71.133 0 0 1-8.327-13.53h8.327v13.53z"/><path d="M103.015 105.95a4.027 4.027 0 0 0 0-5.696L88.042 85.283l6.27-6.04a4.027 4.027 0 0 0-.941-6.477L55.778 53.283a4.028 4.028 0 0 0-5.457 5.377l18.797 37.591a4.027 4.027 0 0 0 6.398 1.1l6.724-6.479 15.08 15.078a4.016 4.016 0 0 0 2.847 1.18c1.03 0 2.062-.393 2.848-1.18zM73.873 87.748L63.064 66.132l21.617 11.203-10.808 10.413z"/></g></g></svg>