<svg width="176" height="154" xmlns="http://www.w3.org/2000/svg"><g transform="translate(0 2)" fill="none" fill-rule="evenodd"><path d="M2 26v109h172V26H2zM2 24V3.429C2 1.535 3.75 0 5.91 0h164.18c2.16 0 3.91 1.535 3.91 3.429V24" stroke="#E4D5FF" stroke-width="4"/><rect fill="#E2D1FF" x="13" y="85" width="63" height="5" rx="1"/><rect fill="#D3BAFF" transform="matrix(1 0 0 -1 0 219)" x="13" y="107" width="75" height="5" rx="1"/><rect fill="#BC9AF5" x="13" y="96" width="45" height="5" rx="1"/><path d="M96 38h61.83v38.822H96V38z" stroke="#AE80FF" stroke-width="2.5" fill="#F6F1FF" stroke-linecap="round" stroke-linejoin="round" stroke-dasharray="2,7,2,7"/><circle fill="#E4D5FF" cx="14.5" cy="12.5" r="3.5"/><circle fill="#E4D5FF" cx="26.5" cy="12.5" r="3.5"/><g transform="rotate(-5 1041.477 -1056.005)"><rect fill="#8D54F0" transform="rotate(-40 50.216 54.188)" x="46.716" y="34.688" width="7" height="39" rx="3.5"/><ellipse stroke="#8D54F0" stroke-width="7" cx="23.5" cy="24" rx="20" ry="20.5"/></g><text font-family="InterUI-Bold, Inter UI" font-size="40" font-weight="bold" fill="#8D54F0"><tspan x="16" y="66">&lt;/&gt;</tspan></text></g></svg>