<?xml version="1.0" encoding="UTF-8"?>
<svg width="77px" height="59px" viewBox="0 0 77 59" version="1.1" xmlns="http://www.w3.org/2000/svg" xmlns:xlink="http://www.w3.org/1999/xlink">
    <!-- Generator: Sketch 45.1 (43504) - http://www.bohemiancoding.com/sketch -->
    <title>Offline Sync</title>
    <desc>Created with Sketch.</desc>
    <defs></defs>
    <g id="Page-1" stroke="none" stroke-width="1" fill="none" fill-rule="evenodd">
        <g id="Offline-Sync" transform="translate(1.000000, 2.000000)" stroke="#000000" stroke-width="2">
            <path d="M61.073239,7.8108991 C63.4473813,9.61844335 67.6218924,13.6469285 73.5967724,19.8963545 L73.5967724,19.8963544 C74.3600869,20.6947433 74.3316535,21.960754 73.5332647,22.7240685 C73.524922,22.7320447 73.5165105,22.7399485 73.508031,22.747779 L38.8568695,54.7469761 L38.8568695,54.7469761 C38.0906573,55.4545476 36.9093427,55.4545476 36.1431305,54.7469761 L36.1431305,54.7469761 L24.6357475,44.1202899 M16.5820313,36.9072266 L1.43083997,22.7106808 C0.633899731,21.9639541 0.583325407,20.7159986 1.31722818,19.9072334 C6.80962086,13.854584 10.9510165,9.89595816 13.7414151,8.0313558 C20.8851706,3.25774995 28.8046989,0.847299034 37.5,0.800003052 C42.5836642,0.772351693 47.2691458,1.37337165 51.5564448,2.60306293" id="Path-3"></path>
            <path d="M13.5,46.5 L62,0" id="Line-4" stroke-linecap="square"></path>
        </g>
    </g>
</svg>