<svg width="505" height="314" xmlns="http://www.w3.org/2000/svg" xmlns:xlink="http://www.w3.org/1999/xlink"><defs><rect id="a" y="114" width="500" height="80" rx="8"/><rect id="b" x="159" y="125" width="326" height="55" rx="8"/><path d="M86.077 150.551L72.46 136.935a3.22 3.22 0 0 0-4.538 0l-1.137 1.137a3.218 3.218 0 0 0 0 4.536L77.176 153l-10.391 10.39a3.218 3.218 0 0 0 0 4.537l1.136 1.137a3.217 3.217 0 0 0 4.538 0l13.616-13.618c.67-.669.97-1.567.92-2.447a3.18 3.18 0 0 0-.918-2.448z" id="c"/><path d="M40.077 150.551L26.46 136.935a3.22 3.22 0 0 0-4.538 0l-1.137 1.137a3.218 3.218 0 0 0 0 4.536L31.176 153l-10.391 10.39a3.218 3.218 0 0 0 0 4.537l1.136 1.137a3.217 3.217 0 0 0 4.538 0l13.616-13.618c.67-.669.97-1.567.92-2.447a3.18 3.18 0 0 0-.918-2.448z" id="d"/><linearGradient x1="50%" y1="93.3%" x2="50%" y2="0%" id="e"><stop stop-color="#EEE" offset="0%"/><stop stop-color="#EEE" stop-opacity=".05" offset="100%"/></linearGradient></defs><g fill="none" fill-rule="evenodd"><g transform="translate(2 2)"><use fill="#F7F7F7" xlink:href="#a"/><rect stroke="#DDD" x=".5" y="114.5" width="499" height="79" rx="8"/></g><g transform="translate(2 2)"><use fill="#FFF" xlink:href="#b"/><rect stroke="#DDD" x="159.5" y="125.5" width="325" height="54" rx="8"/></g><text font-family="Arial" font-size="22" font-weight="500" transform="translate(2 2)"><tspan x="176" y="160" fill="#5743FF">dat://</tspan> <tspan x="233.08" y="160" font-weight="normal" fill="#BBB">beakerbrowser.com</tspan></text><g fill-rule="nonzero" transform="translate(2 2)"><use fill="#C4C4C4" fill-rule="evenodd" xlink:href="#c"/><path stroke="#F7F7F7" stroke-width="2.25" d="M85.281 151.347L71.665 137.73a2.095 2.095 0 0 0-2.947 0l-1.137 1.137a2.093 2.093 0 0 0 0 2.945L78.767 153 67.58 164.186a2.094 2.094 0 0 0 0 2.946l1.137 1.137a2.093 2.093 0 0 0 2.947 0l13.617-13.62c.416-.415.624-.986.59-1.587v-.129a2.055 2.055 0 0 0-.59-1.586z"/></g><g fill-rule="nonzero" transform="matrix(-1 0 0 1 62.85 2)"><use fill="#C4C4C4" fill-rule="evenodd" xlink:href="#d"/><path stroke="#F7F7F7" stroke-width="2.25" d="M39.281 151.347L25.665 137.73a2.095 2.095 0 0 0-2.947 0l-1.137 1.137a2.093 2.093 0 0 0 0 2.945L32.767 153 21.58 164.186a2.094 2.094 0 0 0 0 2.946l1.137 1.137a2.093 2.093 0 0 0 2.947 0l13.617-13.62c.416-.415.624-.986.59-1.587v-.129a2.055 2.055 0 0 0-.59-1.586z"/></g><path d="M135.3 143.7c-2.89-2.9-6.88-4.7-11.3-4.7-8.84 0-15.98 7.16-15.98 16s7.14 16 15.98 16c7.45 0 13.69-5.1 15.46-12h-4.16c-1.65 4.66-6.07 8-11.3 8-6.63 0-12-5.37-12-12s5.37-12 12-12c3.31 0 6.28 1.38 8.45 3.55L126 153h14v-14l-4.7 4.7z" stroke="#F7F7F7" stroke-width=".5" fill="#C4C4C4" fill-rule="nonzero"/><path d="M4.5.703V94.5a2 2 0 0 0 2 2h229.719a2 2 0 0 0 2-2V.703" stroke="url(#e)" stroke-width="4" stroke-linecap="round" stroke-dasharray="4,10,4,10" transform="translate(2 2)"/><path d="M.719 214v93.797a2 2 0 0 0 2 2h496a2 2 0 0 0 2-2V214" stroke="url(#e)" stroke-width="4" stroke-linecap="round" stroke-dasharray="4,10,4,10" transform="matrix(1 0 0 -1 2 525.797)"/><path d="M261 0v93.797a2 2 0 0 0 2 2h229.719a2 2 0 0 0 2-2V0" stroke="url(#e)" stroke-width="4" stroke-linecap="round" stroke-dasharray="4,10,4,10" transform="translate(2 2)"/></g></svg>