<?xml version="1.0" encoding="UTF-8"?>
<svg width="505px" height="314px" viewBox="0 0 505 314" version="1.1" xmlns="http://www.w3.org/2000/svg" xmlns:xlink="http://www.w3.org/1999/xlink">
    <!-- Generator: Sketch 49.1 (51147) - http://www.bohemiancoding.com/sketch -->
    <title>url-bar</title>
    <desc>Created with Sketch.</desc>
    <defs>
        <rect id="path-1" x="0" y="114" width="500" height="80" rx="8"></rect>
        <rect id="path-2" x="159" y="125" width="326" height="55" rx="8"></rect>
        <path d="M86.0768116,150.551391 L72.460761,136.93534 C71.213641,135.68822 69.1696709,135.68822 67.9225509,136.93534 L66.7862229,138.071668 C65.5391029,139.317368 65.5391029,141.361338 66.7862229,142.608458 L77.1751019,153.000178 L66.7848025,163.390477 C65.5376825,164.637597 65.5376825,166.681567 66.7848025,167.927267 L67.9211305,169.063595 C69.1682505,170.312135 71.2122206,170.312135 72.4593406,169.063595 L86.0753912,155.446124 C86.7458248,154.777111 87.0441109,153.879411 86.9943965,152.998757 C87.0455313,152.119523 86.7472452,151.221824 86.0768116,150.551391 Z" id="path-3"></path>
        <path d="M40.0768116,150.551391 L26.460761,136.93534 C25.213641,135.68822 23.1696709,135.68822 21.9225509,136.93534 L20.7862229,138.071668 C19.5391029,139.317368 19.5391029,141.361338 20.7862229,142.608458 L31.1751019,153.000178 L20.7848025,163.390477 C19.5376825,164.637597 19.5376825,166.681567 20.7848025,167.927267 L21.9211305,169.063595 C23.1682505,170.312135 25.2122206,170.312135 26.4593406,169.063595 L40.0753912,155.446124 C40.7458248,154.777111 41.0441109,153.879411 40.9943965,152.998757 C41.0455313,152.119523 40.7472452,151.221824 40.0768116,150.551391 Z" id="path-4"></path>
        <linearGradient x1="50%" y1="93.3004404%" x2="50%" y2="0%" id="linearGradient-5">
            <stop stop-color="#EEEEEE" offset="0%"></stop>
            <stop stop-color="#EEEEEE" stop-opacity="0.05" offset="100%"></stop>
        </linearGradient>
    </defs>
    <g id="Page-1" stroke="none" stroke-width="1" fill="none" fill-rule="evenodd">
        <g id="url-bar" transform="translate(2.000000, 2.000000)">
            <g id="Rectangle-9">
                <use fill="#F7F7F7" fill-rule="evenodd" xlink:href="#path-1"></use>
                <rect stroke="#DDDDDD" stroke-width="1" x="0.5" y="114.5" width="499" height="79" rx="8"></rect>
            </g>
            <g id="Rectangle-12">
                <use fill="#FFFFFF" fill-rule="evenodd" xlink:href="#path-2"></use>
                <rect stroke="#DDDDDD" stroke-width="1" x="159.5" y="125.5" width="325" height="54" rx="8"></rect>
            </g>
            <text id="dat://beakerbrowser." font-family="Hind-Medium, Hind" font-size="24" font-weight="400">
                <tspan x="172" y="160" fill="#5743FF">dat://</tspan>
                <tspan x="233.08" y="160" font-family="Hind-Regular, Hind" font-weight="normal" fill="#C4C4C4">beakerbrowser.com</tspan>
            </text>
            <g id="arrow-right" fill-rule="nonzero">
                <use fill="#C4C4C4" fill-rule="evenodd" xlink:href="#path-3"></use>
                <path stroke="#F7F7F7" stroke-width="2.25" d="M85.2813165,151.346886 L71.6652659,137.730835 C70.8574857,136.923055 69.5258262,136.923055 68.7180461,137.730835 L67.5812646,138.867616 C66.7740134,139.673948 66.7740134,141.005258 67.5818268,141.813071 L78.7659834,153.000286 L67.5802976,164.185972 C66.772593,164.993677 66.772593,166.324987 67.5802976,167.131772 L68.7170783,168.268552 C69.5247551,169.077149 70.855716,169.077149 71.663804,168.268141 L85.2807401,154.649785 C85.6969758,154.234432 85.9050789,153.662573 85.8711848,153.062164 L85.8712943,152.933439 C85.9060633,152.335606 85.6982174,151.763787 85.2813165,151.346886 Z"></path>
            </g>
            <g id="arrow-left" fill-rule="nonzero" transform="translate(30.424731, 153.000000) scale(-1, 1) translate(-30.424731, -153.000000) ">
                <use fill="#C4C4C4" fill-rule="evenodd" xlink:href="#path-4"></use>
                <path stroke="#F7F7F7" stroke-width="2.25" d="M39.2813165,151.346886 L25.6652659,137.730835 C24.8574857,136.923055 23.5258262,136.923055 22.7180461,137.730835 L21.5812646,138.867616 C20.7740134,139.673948 20.7740134,141.005258 21.5818268,141.813071 L32.7659834,153.000286 L21.5802976,164.185972 C20.772593,164.993677 20.772593,166.324987 21.5802976,167.131772 L22.7170783,168.268552 C23.5247551,169.077149 24.855716,169.077149 25.663804,168.268141 L39.2807401,154.649785 C39.6969758,154.234432 39.9050789,153.662573 39.8711848,153.062164 L39.8712943,152.933439 C39.9060633,152.335606 39.6982174,151.763787 39.2813165,151.346886 Z"></path>
            </g>
            <path d="M133.3,141.7 C130.41,138.8 126.42,137 122,137 C113.16,137 106.02,144.16 106.02,153 C106.02,161.84 113.16,169 122,169 C129.45,169 135.69,163.9 137.46,157 L133.3,157 C131.65,161.66 127.23,165 122,165 C115.37,165 110,159.63 110,153 C110,146.37 115.37,141 122,141 C125.31,141 128.28,142.38 130.45,144.55 L124,151 L138,151 L138,137 L133.3,141.7 Z" id="refresh" stroke="#F7F7F7" stroke-width="0.5" fill="#C4C4C4" fill-rule="nonzero"></path>
            <path d="M4.5,0.703125 L4.5,94.5 C4.5,95.6045695 5.3954305,96.5 6.5,96.5 L236.21875,96.5 C237.323319,96.5 238.21875,95.6045695 238.21875,94.5 L238.21875,0.703125" id="Line-5" stroke="url(#linearGradient-5)" stroke-width="4" stroke-linecap="round" stroke-dasharray="4,10,4,10"></path>
            <path d="M0.71875,214 L0.71875,307.796875 C0.71875,308.901444 1.6141805,309.796875 2.71875,309.796875 L498.71875,309.796875 C499.823319,309.796875 500.71875,308.901444 500.71875,307.796875 L500.71875,214" id="Line-5-Copy-2" stroke="url(#linearGradient-5)" stroke-width="4" stroke-linecap="round" stroke-dasharray="4,10,4,10" transform="translate(250.718750, 261.898438) scale(1, -1) translate(-250.718750, -261.898438) "></path>
            <path d="M261,0 L261,93.796875 C261,94.9014445 261.895431,95.796875 263,95.796875 L492.71875,95.796875 C493.823319,95.796875 494.71875,94.9014445 494.71875,93.796875 L494.71875,0" id="Line-5-Copy" stroke="url(#linearGradient-5)" stroke-width="4" stroke-linecap="round" stroke-dasharray="4,10,4,10"></path>
        </g>
    </g>
</svg>