<svg width="322" height="166" xmlns="http://www.w3.org/2000/svg"><g fill="none" fill-rule="evenodd"><path d="M161 129.67c83.947 0 152-24.55 152-54.835C313 44.551 244.947 20 161 20S9 44.55 9 74.835s68.053 54.836 152 54.836z" stroke="#09E06E" stroke-width="5" fill="#09E06E" stroke-linecap="round" stroke-linejoin="bevel" stroke-dasharray="1,1,1"/><path d="M161 117c87.261 0 158-25.52 158-57S248.261 3 161 3 3 28.52 3 60s70.739 57 158 57z" stroke="#111" stroke-width="5" stroke-linecap="round" stroke-linejoin="bevel" stroke-dasharray="10,10,1,10"/><g transform="translate(81 36)"><rect stroke="#111" stroke-width="2" fill="#111" width="164" height="129" rx="1.5"/><rect stroke="#111" stroke-width="2" fill="#FFF" y="15" width="164" height="114" rx="1.5"/><rect fill="#4363F3" x="102" y="29" width="52" height="19" rx="1.5"/><rect fill="#09E06E" x="102" y="52" width="52" height="19" rx="1.5"/><path d="M12 30h81a1 1 0 0 1 1 1v50a1 1 0 0 1-1 1H12a1 1 0 0 1-1-1V31a1 1 0 0 1 1-1z" stroke="#111" stroke-width="3" stroke-linecap="round" stroke-linejoin="round" stroke-dasharray="1,5,1,5"/><circle fill="#FFF" cx="7.5" cy="7.5" r="2.5"/><circle fill="#FFF" cx="17.5" cy="7.5" r="2.5"/><circle fill="#FFF" cx="28.5" cy="7.5" r="2.5"/><rect fill="#111" x="11" y="92" width="83" height="4.5" rx="1"/><rect fill="#111" x="11" y="101" width="59" height="4.5" rx="1"/><rect fill="#111" x="11" y="110" width="72" height="4.5" rx="1"/></g></g></svg>