<?xml version="1.0" encoding="UTF-8"?>
<svg width="280px" height="250px" viewBox="0 0 280 250" version="1.1" xmlns="http://www.w3.org/2000/svg" xmlns:xlink="http://www.w3.org/1999/xlink">
    <!-- Generator: Sketch 45.1 (43504) - http://www.bohemiancoding.com/sketch -->
    <title>Bad web</title>
    <desc>Created with Sketch.</desc>
    <defs></defs>
    <g id="Page-1" stroke="none" stroke-width="1" fill="none" fill-rule="evenodd">
        <g id="Bad-web" stroke="#000000" stroke-width="2">
            <polygon id="Path-6" fill="#EFEFEF" stroke-linejoin="round" points="106.749023 21.7480469 106.749023 121 138 137 138 34.2226562"></polygon>
            <polygon id="Path-7" fill="#DFDFDF" stroke-linejoin="round" points="138.570007 34.2400017 168.210007 20 168.208984 121 138 137"></polygon>
            <circle id="Oval" fill="#EAEAEA" cx="266" cy="143" r="10"></circle>
            <circle id="Oval" fill="#EAEAEA" cx="15" cy="153" r="10"></circle>
            <circle id="Oval" fill="#EAEAEA" cx="54" cy="221" r="10"></circle>
            <circle id="Oval" fill="#EAEAEA" cx="229" cy="215" r="10"></circle>
            <circle id="Oval" fill="#EAEAEA" cx="138" cy="233" r="10"></circle>
            <polygon id="Path-5" fill="#F8F8F8" stroke-linejoin="round" points="106.476562 21.1601562 138.570007 37 168.210007 20 137.480003 5.3203125"></polygon>
            <path d="M35.5,144.5 L91.5,124.5" id="Line" stroke-linecap="round"></path>
            <path d="M63.5,200.5 L106.5,146.5" id="Line-2" stroke-linecap="round"></path>
            <path d="M138,213 L138,150.5" id="Line-3" stroke-linecap="round"></path>
            <path d="M216.5,197.5 L171.5,140.5" id="Line-3" stroke-linecap="round"></path>
            <path d="M248,136 L184.5,118.5" id="Line-3" stroke-linecap="round"></path>
        </g>
    </g>
</svg>