<?xml version="1.0" encoding="UTF-8"?>
<svg width="507px" height="599px" viewBox="0 0 507 599" version="1.1" xmlns="http://www.w3.org/2000/svg" xmlns:xlink="http://www.w3.org/1999/xlink">
    <!-- Generator: Sketch 46 (44423) - http://www.bohemiancoding.com/sketch -->
    <title>beaker</title>
    <desc>Created with Sketch.</desc>
    <defs>
        <path d="M27,0 L480,0 L480,0 C494.911688,-2.73923269e-15 507,12.0883118 507,27 L507,504 L507,504 C507,556.467051 464.467051,599 412,599 L95,599 L95,599 C42.5329488,599 2.06362154e-14,556.467051 1.42108547e-14,504 L0,27 L0,27 C-1.82615513e-15,12.0883118 12.0883118,2.73923269e-15 27,0 Z" id="path-1"></path>
        <linearGradient x1="50%" y1="0%" x2="50%" y2="100%" id="linearGradient-2">
            <stop stop-color="#009BD3" offset="0%"></stop>
            <stop stop-color="#673FC8" offset="62.2608418%"></stop>
            <stop stop-color="#DA00D9" offset="100%"></stop>
        </linearGradient>
        <linearGradient x1="50.6068289%" y1="0%" x2="50%" y2="100%" id="linearGradient-3">
            <stop stop-color="#00FAF4" offset="0%"></stop>
            <stop stop-color="#8542DD" offset="60.0984534%"></stop>
            <stop stop-color="#FF00FA" offset="100%"></stop>
        </linearGradient>
    </defs>
    <g id="Page-1" stroke="none" stroke-width="1" fill="none" fill-rule="evenodd">
        <g id="beaker">
            <g id="Rectangle-5">
                <use fill="#161642" fill-rule="evenodd" xlink:href="#path-1"></use>
                <path stroke="#1A2E67" stroke-width="20" d="M27,10 C17.6111593,10 10,17.6111593 10,27 L10,504 C10,550.944204 48.0557963,589 95,589 L412,589 C458.944204,589 497,550.944204 497,504 L497,27 C497,17.6111593 489.388841,10 480,10 L27,10 Z"></path>
            </g>
            <path d="M54,148 L451,148 L451,148 C452.104569,148 453,148.895431 453,150 L453,480 L453,480 C453,518.659932 421.659932,550 383,550 L124,550 L124,550 C85.3400675,550 54,518.659932 54,480 L54,148 Z" id="Rectangle-5-Copy" fill-opacity="0.4" fill="url(#linearGradient-2)"></path>
            <path d="M53,148 L397,148 L397,480 L397,480 C397,518.659932 365.659932,550 327,550 L121,550 L121,550 C82.3400675,550 51,518.659932 51,480 L51,150 L51,150 C51,148.895431 51.8954305,148 53,148 Z" id="Rectangle-5-Copy-2" fill-opacity="0.4" fill="url(#linearGradient-3)"></path>
        </g>
    </g>
</svg>