<svg width="499" height="289" xmlns="http://www.w3.org/2000/svg" xmlns:xlink="http://www.w3.org/1999/xlink"><defs><circle id="a" cx="155.5" cy="99.5" r="15.5"/></defs><g fill="none" fill-rule="evenodd"><path d="M498.282 235.225c.246 4.535.37 9.103.37 13.7A250.85 250.85 0 0 1 495.76 287H350.576l-.135-.164-3.486-5.024V253.08l-3.043-7.967v-7.717l3.043-4.865 3.486-4.068 4.758-8.2h3.516l5.476-9.083 5.278-5.649 3.029-4.908 2.379-5.316 3.078-8.182 2.996-3.965h21.727l6.472 3.965h2.954l6.806 8.182 2.765 5.316 6.71 4.908h9.898l2.272 5.649h4.453l19.416 13.547h14.992l11.762 3.736v4.068l7.104 2.694zM344.52 21.16l2.406 8.66v3.032l2.623 6.06-8.504 3.652-8.629 2.655-4.797 2.113-4.271 6.762v4.826l-2.446 6.676-3.486 2.054-8.559-2.054-5.841-3.418-9.705-3.258-11.424-2.41-6.303-6.828-3.086-7.118-4.086-9.712-11.426-9.354-10.29-6.799-19.96-3.554H214.5l-3.947 8.015v8.66l3.947 3.032 4.207 3.195 4.89 2.865 6.95 3.652 4.004 2.655 6.412 2.113V58.92l-14.227 3.258h-5.873L214.5 58.92l-9.2-4.826-3.193-6.762-2.26-2.113h-9.279l-3.257 2.113v6.762l-3.282 4.826-4.258 3.258-8.35 3.418-9.444 2.054-6.49 3.377-6.18 3.006-2.754 4.373v9.27l2.754 3.283 2.85 3.035 12.357 2.518 10.375 2.058h4.882l4.258 7.27 3.282 3.51v5.884l3.257 2.202 2.17 2.539 3.559-4.74 3.55-5.885V80.848l2.26-6.815 3.194-3.006 5.252-3.377h3.947l4.207 3.377 4.89 3.006 3.14 4.373 3.81 2.442h4.004l6.412-2.442h5.732l4.284 4.906 9.417 4.364 2.499 3.283 5.517 7.611 7.172 10.78 6.303 5.884 6.568 4.74 4.856 5.514v4.756l-8.28 2.902-9.447-2.902-3.086-4.756v-5.513h-12.102l-9.417 2.898-4.284 2.615v4.756l4.284 2.902v5.112l-4.284 5.53-5.732 2.34-6.412 2.581-4.004 5.91-6.95 4.738-4.89 2.79-8.154 2.833-5.252 6.338v6.664l-3.194 10.834-5.81 8.71-5.729 2.73-3.257 5.361-7.54 2.657 4.258 5.14v17.024l-4.258 3.011-4.882-5.554-3.467-7.2-4.535-7.28-4.91-2.487h-6.49l-8.934 2.486h-14.07l-5.292 3.58-2.925 8.48-2.567 7.975v10.428l2.567 6.555 2.925 7.875 5.291 3.466 7.577-5.627 6.494-5.714h5.603l-2.85 5.714v8.733l2.85 6.316 5.883 4.526 6.475 2.81 2.373 3.479 4.535 4.27-23.798.72-1.071-.72-6.494-4.27-7.577-3.479-8.216-2.81-8.496-4.526-8.819-4.154-9.92-5.268-3.635-5.627v-5.714h-4.435l-4.992-6.555-3.758-3.752v-12.23l-3.838-7.2-2.967-3.7h-4.752v13.442l-2.85-4.962-4.003-4.78-3.002-7.28-3.678-7.798-2.691-8.092-3.166-10.857-2.784-8.686V146.13l-2.445-10.426v-5.459l-3.27-4.756-4.484-2.615H34.38a250.076 250.076 0 0 1 48.799-59.536l5.783 2.259h20.404l6.405-3.418 8.496-3.258h2.925l7.45-2.41 5.418-2.416 2.937-4.412 3.557-2.35v-8.42l2.754-2.865 6.18 2.865 2.552 3.652h8.848l2.52-6.517 2.015-6.227 3.467-2.468h2.492l6.648 2.468h6.54v-6.322l-3.258-2.338-3.282-4.46-6.648-3.555-5.5-.944C196.182 4.281 222.128 0 249.074 0c33.813 0 66.052 6.742 95.445 18.955v2.205zM479.914 156.56l-3.422 3.602-6.289 7.856-7.633 6.937-12.656 9.902-8.002 3.149h-7.799l-2.297-7.422-2.609-5.629-4.187-4.545v10.174l-5.641-2.195-4.986-10.371-2.387-7.856-4.54-3.527-3.568-2.895-3.363 2.895v6.55l-5.514 4.833v6.937l-6.518 5.629-11.13-2.195-4.09-3.434-3.81-6.937v-7.856l3.81-6.422h15.22l1.153-4.431v-5.27l-5.595-5.121v-6.516h5.595l5.365-6.877v-4.795l-5.365-9.591v-4.576l-7.672-4.147v-6.084l2.077-3.652c1.516-6.79 3.381-11.149 5.595-13.075 1.596-1.388 5.085-3.606 10.591-3.606.192 0 2.599-1.69 7.22-5.07l8.954-5.465c27.475 25.015 49.342 56.084 63.493 91.097z" fill="#3FDFA0"/><path d="M2.946 288.423A250.901 250.901 0 0 1 0 250C0 112.481 111.481 1 249 1s249 111.481 249 249c0 13.067-1.007 25.9-2.946 38.423H2.946z" fill-opacity=".2" fill="#000"/><path fill="#32B280" d="M349.672 47.025v5.72l4.713 3.48 12.543 2.248h9.045v-5.724l-6.627-3.099-8.68-2.625z"/><g transform="translate(36 47)"><circle stroke="#32B280" stroke-width="3" fill="#FFF" cx="10" cy="107" r="10"/><circle stroke="#32B280" stroke-width="3" fill="#FFF" cx="91" cy="197" r="10"/><circle stroke="#32B280" stroke-width="3" fill="#FFF" cx="331" cy="197" r="10"/><use fill="#ED495D" xlink:href="#a"/><circle stroke="#FFF" stroke-width="6" cx="155.5" cy="99.5" r="18.5"/><circle stroke="#32B280" stroke-width="3" fill="#FFF" cx="124" cy="10" r="10"/><circle stroke="#32B280" stroke-width="3" fill="#FFF" cx="124" cy="10" r="10"/><circle stroke="#32B280" stroke-width="3" fill="#FFF" cx="372" cy="45" r="10"/><circle stroke="#32B280" stroke-width="3" fill="#FFF" cx="428" cy="121" r="10"/><path d="M180.805 106.688c-31.86 3.216 44.374 50.398 72.04 62.578 18.443 8.12 44.943 16.927 79.499 26.422" stroke-opacity=".5" stroke="#FFF" stroke-width="4" stroke-linecap="round" stroke-dasharray="4,12"/><path d="M332.5 193.5l1.5 1.5" stroke="#979797" stroke-linecap="square"/><path d="M178.5 85.5c20.437-13.813 47.992-24.331 82.664-31.555 34.672-7.223 71.117-10.038 109.336-8.445M124.5 8.5l22 65M11.5 107.5c19.851-5.4 40.851-9.066 63-11 22.149-1.934 43.149-1.934 63 0M92.5 196.5c10.32-21.63 19.486-38.2 27.5-49.71 8.014-11.512 17.18-21.275 27.5-29.29M180.5 98.5c42.844-3.502 83.844-3.502 123 0 39.156 3.502 80.156 10.835 123 22" stroke-opacity=".5" stroke="#FFF" stroke-width="4" stroke-linecap="round" stroke-dasharray="4,12"/></g></g></svg>