<svg width="511" height="250" xmlns="http://www.w3.org/2000/svg"><g fill="#3D5AF0" fill-rule="evenodd"><path d="M0 38h3v3H0zM20 38h3v3h-3zM41 38h3v3h-3zM61 38h3v3h-3zM81 38h3v3h-3zM101 38h3v3h-3zM122 38h3v3h-3zM142 38h3v3h-3zM162 38h3v3h-3zM183 38h3v3h-3zM203 38h3v3h-3zM223 38h3v3h-3zM243 38h3v3h-3zM264 38h3v3h-3zM284 38h3v3h-3zM304 38h3v3h-3zM324 38h3v3h-3zM345 38h3v3h-3zM365 38h3v3h-3zM385 38h3v3h-3zM406 38h3v3h-3zM426 38h3v3h-3zM446 38h3v3h-3zM466 38h3v3h-3zM487 38h3v3h-3zM507 38h3v3h-3zM1 247h3v3H1zM21 247h3v3h-3zM42 247h3v3h-3zM62 247h3v3h-3zM82 247h3v3h-3zM102 247h3v3h-3zM123 247h3v3h-3zM143 247h3v3h-3zM163 247h3v3h-3zM184 247h3v3h-3zM204 247h3v3h-3zM224 247h3v3h-3zM244 247h3v3h-3zM265 247h3v3h-3zM285 247h3v3h-3zM305 247h3v3h-3zM325 247h3v3h-3zM346 247h3v3h-3zM366 247h3v3h-3zM386 247h3v3h-3zM407 247h3v3h-3zM427 247h3v3h-3zM447 247h3v3h-3zM467 247h3v3h-3zM488 247h3v3h-3zM508 247h3v3h-3zM0 228h3v3H0zM20 228h3v3h-3zM41 228h3v3h-3zM61 228h3v3h-3zM81 228h3v3h-3zM101 228h3v3h-3zM122 228h3v3h-3zM142 228h3v3h-3zM162 228h3v3h-3zM183 228h3v3h-3zM203 228h3v3h-3zM223 228h3v3h-3zM243 228h3v3h-3zM264 228h3v3h-3zM284 228h3v3h-3zM304 228h3v3h-3zM324 228h3v3h-3zM345 228h3v3h-3zM365 228h3v3h-3zM385 228h3v3h-3zM406 228h3v3h-3zM426 228h3v3h-3zM446 228h3v3h-3zM466 228h3v3h-3zM487 228h3v3h-3zM507 228h3v3h-3zM1 0h3v3H1zM21 0h3v3h-3zM42 0h3v3h-3zM62 0h3v3h-3zM82 0h3v3h-3zM102 0h3v3h-3zM123 0h3v3h-3zM143 0h3v3h-3zM163 0h3v3h-3zM184 0h3v3h-3zM204 0h3v3h-3zM224 0h3v3h-3zM244 0h3v3h-3zM265 0h3v3h-3zM285 0h3v3h-3zM305 0h3v3h-3zM325 0h3v3h-3zM346 0h3v3h-3zM366 0h3v3h-3zM386 0h3v3h-3zM407 0h3v3h-3zM427 0h3v3h-3zM447 0h3v3h-3zM467 0h3v3h-3zM488 0h3v3h-3zM508 0h3v3h-3zM0 19h3v3H0zM20 19h3v3h-3zM41 19h3v3h-3zM61 19h3v3h-3zM81 19h3v3h-3zM101 19h3v3h-3zM122 19h3v3h-3zM142 19h3v3h-3zM162 19h3v3h-3zM183 19h3v3h-3zM203 19h3v3h-3zM223 19h3v3h-3zM243 19h3v3h-3zM264 19h3v3h-3zM284 19h3v3h-3zM304 19h3v3h-3zM324 19h3v3h-3zM345 19h3v3h-3zM365 19h3v3h-3zM385 19h3v3h-3zM406 19h3v3h-3zM426 19h3v3h-3zM446 19h3v3h-3zM466 19h3v3h-3zM487 19h3v3h-3zM507 19h3v3h-3zM1 209h3v3H1zM21 209h3v3h-3zM42 209h3v3h-3zM62 209h3v3h-3zM82 209h3v3h-3zM102 209h3v3h-3zM123 209h3v3h-3zM143 209h3v3h-3zM163 209h3v3h-3zM184 209h3v3h-3zM204 209h3v3h-3zM224 209h3v3h-3zM244 209h3v3h-3zM265 209h3v3h-3zM285 209h3v3h-3zM305 209h3v3h-3zM325 209h3v3h-3zM346 209h3v3h-3zM366 209h3v3h-3zM386 209h3v3h-3zM407 209h3v3h-3zM427 209h3v3h-3zM447 209h3v3h-3zM467 209h3v3h-3zM488 209h3v3h-3zM508 209h3v3h-3zM0 190h3v3H0zM20 190h3v3h-3zM41 190h3v3h-3zM61 190h3v3h-3zM81 190h3v3h-3zM101 190h3v3h-3zM122 190h3v3h-3zM142 190h3v3h-3zM162 190h3v3h-3zM183 190h3v3h-3zM203 190h3v3h-3zM223 190h3v3h-3zM243 190h3v3h-3zM264 190h3v3h-3zM284 190h3v3h-3zM304 190h3v3h-3zM324 190h3v3h-3zM345 190h3v3h-3zM365 190h3v3h-3zM385 190h3v3h-3zM406 190h3v3h-3zM426 190h3v3h-3zM446 190h3v3h-3zM466 190h3v3h-3zM487 190h3v3h-3zM507 190h3v3h-3zM0 171h3v3H0zM20 171h3v3h-3zM41 171h3v3h-3zM61 171h3v3h-3zM81 171h3v3h-3zM101 171h3v3h-3zM122 171h3v3h-3zM142 171h3v3h-3zM162 171h3v3h-3zM183 171h3v3h-3zM203 171h3v3h-3zM223 171h3v3h-3zM243 171h3v3h-3zM264 171h3v3h-3zM284 171h3v3h-3zM304 171h3v3h-3zM324 171h3v3h-3zM345 171h3v3h-3zM365 171h3v3h-3zM385 171h3v3h-3zM406 171h3v3h-3zM426 171h3v3h-3zM446 171h3v3h-3zM466 171h3v3h-3zM487 171h3v3h-3zM507 171h3v3h-3zM0 152h3v3H0zM20 152h3v3h-3zM41 152h3v3h-3zM61 152h3v3h-3zM81 152h3v3h-3zM101 152h3v3h-3zM122 152h3v3h-3zM142 152h3v3h-3zM162 152h3v3h-3zM183 152h3v3h-3zM203 152h3v3h-3zM223 152h3v3h-3zM243 152h3v3h-3zM264 152h3v3h-3zM284 152h3v3h-3zM304 152h3v3h-3zM324 152h3v3h-3zM345 152h3v3h-3zM365 152h3v3h-3zM385 152h3v3h-3zM406 152h3v3h-3zM426 152h3v3h-3zM446 152h3v3h-3zM466 152h3v3h-3zM487 152h3v3h-3zM507 152h3v3h-3zM0 133h3v3H0zM20 133h3v3h-3zM41 133h3v3h-3zM61 133h3v3h-3zM81 133h3v3h-3zM101 133h3v3h-3zM122 133h3v3h-3zM142 133h3v3h-3zM162 133h3v3h-3zM183 133h3v3h-3zM203 133h3v3h-3zM223 133h3v3h-3zM243 133h3v3h-3zM264 133h3v3h-3zM284 133h3v3h-3zM304 133h3v3h-3zM324 133h3v3h-3zM345 133h3v3h-3zM365 133h3v3h-3zM385 133h3v3h-3zM406 133h3v3h-3zM426 133h3v3h-3zM446 133h3v3h-3zM466 133h3v3h-3zM487 133h3v3h-3zM507 133h3v3h-3zM1 114h3v3H1zM21 114h3v3h-3zM42 114h3v3h-3zM62 114h3v3h-3zM82 114h3v3h-3zM102 114h3v3h-3zM123 114h3v3h-3zM143 114h3v3h-3zM163 114h3v3h-3zM184 114h3v3h-3zM204 114h3v3h-3zM224 114h3v3h-3zM244 114h3v3h-3zM265 114h3v3h-3zM285 114h3v3h-3zM305 114h3v3h-3zM325 114h3v3h-3zM346 114h3v3h-3zM366 114h3v3h-3zM386 114h3v3h-3zM407 114h3v3h-3zM427 114h3v3h-3zM447 114h3v3h-3zM467 114h3v3h-3zM488 114h3v3h-3zM508 114h3v3h-3zM1 95h3v3H1zM21 95h3v3h-3zM42 95h3v3h-3zM62 95h3v3h-3zM82 95h3v3h-3zM102 95h3v3h-3zM123 95h3v3h-3zM143 95h3v3h-3zM163 95h3v3h-3zM184 95h3v3h-3zM204 95h3v3h-3zM224 95h3v3h-3zM244 95h3v3h-3zM265 95h3v3h-3zM285 95h3v3h-3zM305 95h3v3h-3zM325 95h3v3h-3zM346 95h3v3h-3zM366 95h3v3h-3zM386 95h3v3h-3zM407 95h3v3h-3zM427 95h3v3h-3zM447 95h3v3h-3zM467 95h3v3h-3zM488 95h3v3h-3zM508 95h3v3h-3zM1 76h3v3H1zM21 76h3v3h-3zM42 76h3v3h-3zM62 76h3v3h-3zM82 76h3v3h-3zM102 76h3v3h-3zM123 76h3v3h-3zM143 76h3v3h-3zM163 76h3v3h-3zM184 76h3v3h-3zM204 76h3v3h-3zM224 76h3v3h-3zM244 76h3v3h-3zM265 76h3v3h-3zM285 76h3v3h-3zM305 76h3v3h-3zM325 76h3v3h-3zM346 76h3v3h-3zM366 76h3v3h-3zM386 76h3v3h-3zM407 76h3v3h-3zM427 76h3v3h-3zM447 76h3v3h-3zM467 76h3v3h-3zM488 76h3v3h-3zM508 76h3v3h-3zM0 57h3v3H0zM20 57h3v3h-3zM41 57h3v3h-3zM61 57h3v3h-3zM81 57h3v3h-3zM101 57h3v3h-3zM122 57h3v3h-3zM142 57h3v3h-3zM162 57h3v3h-3zM183 57h3v3h-3zM203 57h3v3h-3zM223 57h3v3h-3zM243 57h3v3h-3zM264 57h3v3h-3zM284 57h3v3h-3zM304 57h3v3h-3zM324 57h3v3h-3zM345 57h3v3h-3zM365 57h3v3h-3zM385 57h3v3h-3zM406 57h3v3h-3zM426 57h3v3h-3zM446 57h3v3h-3zM466 57h3v3h-3zM487 57h3v3h-3zM507 57h3v3h-3z"/></g></svg>