<?xml version="1.0" encoding="UTF-8"?>
<svg width="511px" height="250px" viewBox="0 0 511 250" version="1.1" xmlns="http://www.w3.org/2000/svg" xmlns:xlink="http://www.w3.org/1999/xlink">
    <!-- Generator: Sketch 47.1 (45422) - http://www.bohemiancoding.com/sketch -->
    <title>dot-grid-small-green</title>
    <desc>Created with Sketch.</desc>
    <defs></defs>
    <g id="Page-1" stroke="none" stroke-width="1" fill="none" fill-rule="evenodd">
        <g id="dot-grid-small-green" fill="#5DF19E">
            <rect id="Rectangle-2" x="0" y="38" width="3" height="3"></rect>
            <rect id="Rectangle-2-Copy" x="20" y="38" width="3" height="3"></rect>
            <rect id="Rectangle-2-Copy-2" x="41" y="38" width="3" height="3"></rect>
            <rect id="Rectangle-2-Copy-3" x="61" y="38" width="3" height="3"></rect>
            <rect id="Rectangle-2-Copy-4" x="81" y="38" width="3" height="3"></rect>
            <rect id="Rectangle-2-Copy-5" x="101" y="38" width="3" height="3"></rect>
            <rect id="Rectangle-2-Copy-6" x="122" y="38" width="3" height="3"></rect>
            <rect id="Rectangle-2-Copy-7" x="142" y="38" width="3" height="3"></rect>
            <rect id="Rectangle-2-Copy-8" x="162" y="38" width="3" height="3"></rect>
            <rect id="Rectangle-2-Copy-9" x="183" y="38" width="3" height="3"></rect>
            <rect id="Rectangle-2-Copy-10" x="203" y="38" width="3" height="3"></rect>
            <rect id="Rectangle-2-Copy-11" x="223" y="38" width="3" height="3"></rect>
            <rect id="Rectangle-2-Copy-12" x="243" y="38" width="3" height="3"></rect>
            <rect id="Rectangle-2-Copy-13" x="264" y="38" width="3" height="3"></rect>
            <rect id="Rectangle-2-Copy-14" x="284" y="38" width="3" height="3"></rect>
            <rect id="Rectangle-2-Copy-15" x="304" y="38" width="3" height="3"></rect>
            <rect id="Rectangle-2-Copy-16" x="324" y="38" width="3" height="3"></rect>
            <rect id="Rectangle-2-Copy-17" x="345" y="38" width="3" height="3"></rect>
            <rect id="Rectangle-2-Copy-18" x="365" y="38" width="3" height="3"></rect>
            <rect id="Rectangle-2-Copy-19" x="385" y="38" width="3" height="3"></rect>
            <rect id="Rectangle-2-Copy-20" x="406" y="38" width="3" height="3"></rect>
            <rect id="Rectangle-2-Copy-21" x="426" y="38" width="3" height="3"></rect>
            <rect id="Rectangle-2-Copy-22" x="446" y="38" width="3" height="3"></rect>
            <rect id="Rectangle-2-Copy-23" x="466" y="38" width="3" height="3"></rect>
            <rect id="Rectangle-2-Copy-24" x="487" y="38" width="3" height="3"></rect>
            <rect id="Rectangle-2-Copy-25" x="507" y="38" width="3" height="3"></rect>
            <rect id="Rectangle-2" x="1" y="247" width="3" height="3"></rect>
            <rect id="Rectangle-2-Copy" x="21" y="247" width="3" height="3"></rect>
            <rect id="Rectangle-2-Copy-2" x="42" y="247" width="3" height="3"></rect>
            <rect id="Rectangle-2-Copy-3" x="62" y="247" width="3" height="3"></rect>
            <rect id="Rectangle-2-Copy-4" x="82" y="247" width="3" height="3"></rect>
            <rect id="Rectangle-2-Copy-5" x="102" y="247" width="3" height="3"></rect>
            <rect id="Rectangle-2-Copy-6" x="123" y="247" width="3" height="3"></rect>
            <rect id="Rectangle-2-Copy-7" x="143" y="247" width="3" height="3"></rect>
            <rect id="Rectangle-2-Copy-8" x="163" y="247" width="3" height="3"></rect>
            <rect id="Rectangle-2-Copy-9" x="184" y="247" width="3" height="3"></rect>
            <rect id="Rectangle-2-Copy-10" x="204" y="247" width="3" height="3"></rect>
            <rect id="Rectangle-2-Copy-11" x="224" y="247" width="3" height="3"></rect>
            <rect id="Rectangle-2-Copy-12" x="244" y="247" width="3" height="3"></rect>
            <rect id="Rectangle-2-Copy-13" x="265" y="247" width="3" height="3"></rect>
            <rect id="Rectangle-2-Copy-14" x="285" y="247" width="3" height="3"></rect>
            <rect id="Rectangle-2-Copy-15" x="305" y="247" width="3" height="3"></rect>
            <rect id="Rectangle-2-Copy-16" x="325" y="247" width="3" height="3"></rect>
            <rect id="Rectangle-2-Copy-17" x="346" y="247" width="3" height="3"></rect>
            <rect id="Rectangle-2-Copy-18" x="366" y="247" width="3" height="3"></rect>
            <rect id="Rectangle-2-Copy-19" x="386" y="247" width="3" height="3"></rect>
            <rect id="Rectangle-2-Copy-20" x="407" y="247" width="3" height="3"></rect>
            <rect id="Rectangle-2-Copy-21" x="427" y="247" width="3" height="3"></rect>
            <rect id="Rectangle-2-Copy-22" x="447" y="247" width="3" height="3"></rect>
            <rect id="Rectangle-2-Copy-23" x="467" y="247" width="3" height="3"></rect>
            <rect id="Rectangle-2-Copy-24" x="488" y="247" width="3" height="3"></rect>
            <rect id="Rectangle-2-Copy-25" x="508" y="247" width="3" height="3"></rect>
            <rect id="Rectangle-2" x="0" y="228" width="3" height="3"></rect>
            <rect id="Rectangle-2-Copy" x="20" y="228" width="3" height="3"></rect>
            <rect id="Rectangle-2-Copy-2" x="41" y="228" width="3" height="3"></rect>
            <rect id="Rectangle-2-Copy-3" x="61" y="228" width="3" height="3"></rect>
            <rect id="Rectangle-2-Copy-4" x="81" y="228" width="3" height="3"></rect>
            <rect id="Rectangle-2-Copy-5" x="101" y="228" width="3" height="3"></rect>
            <rect id="Rectangle-2-Copy-6" x="122" y="228" width="3" height="3"></rect>
            <rect id="Rectangle-2-Copy-7" x="142" y="228" width="3" height="3"></rect>
            <rect id="Rectangle-2-Copy-8" x="162" y="228" width="3" height="3"></rect>
            <rect id="Rectangle-2-Copy-9" x="183" y="228" width="3" height="3"></rect>
            <rect id="Rectangle-2-Copy-10" x="203" y="228" width="3" height="3"></rect>
            <rect id="Rectangle-2-Copy-11" x="223" y="228" width="3" height="3"></rect>
            <rect id="Rectangle-2-Copy-12" x="243" y="228" width="3" height="3"></rect>
            <rect id="Rectangle-2-Copy-13" x="264" y="228" width="3" height="3"></rect>
            <rect id="Rectangle-2-Copy-14" x="284" y="228" width="3" height="3"></rect>
            <rect id="Rectangle-2-Copy-15" x="304" y="228" width="3" height="3"></rect>
            <rect id="Rectangle-2-Copy-16" x="324" y="228" width="3" height="3"></rect>
            <rect id="Rectangle-2-Copy-17" x="345" y="228" width="3" height="3"></rect>
            <rect id="Rectangle-2-Copy-18" x="365" y="228" width="3" height="3"></rect>
            <rect id="Rectangle-2-Copy-19" x="385" y="228" width="3" height="3"></rect>
            <rect id="Rectangle-2-Copy-20" x="406" y="228" width="3" height="3"></rect>
            <rect id="Rectangle-2-Copy-21" x="426" y="228" width="3" height="3"></rect>
            <rect id="Rectangle-2-Copy-22" x="446" y="228" width="3" height="3"></rect>
            <rect id="Rectangle-2-Copy-23" x="466" y="228" width="3" height="3"></rect>
            <rect id="Rectangle-2-Copy-24" x="487" y="228" width="3" height="3"></rect>
            <rect id="Rectangle-2-Copy-25" x="507" y="228" width="3" height="3"></rect>
            <rect id="Rectangle-2" x="1" y="0" width="3" height="3"></rect>
            <rect id="Rectangle-2-Copy" x="21" y="0" width="3" height="3"></rect>
            <rect id="Rectangle-2-Copy-2" x="42" y="0" width="3" height="3"></rect>
            <rect id="Rectangle-2-Copy-3" x="62" y="0" width="3" height="3"></rect>
            <rect id="Rectangle-2-Copy-4" x="82" y="0" width="3" height="3"></rect>
            <rect id="Rectangle-2-Copy-5" x="102" y="0" width="3" height="3"></rect>
            <rect id="Rectangle-2-Copy-6" x="123" y="0" width="3" height="3"></rect>
            <rect id="Rectangle-2-Copy-7" x="143" y="0" width="3" height="3"></rect>
            <rect id="Rectangle-2-Copy-8" x="163" y="0" width="3" height="3"></rect>
            <rect id="Rectangle-2-Copy-9" x="184" y="0" width="3" height="3"></rect>
            <rect id="Rectangle-2-Copy-10" x="204" y="0" width="3" height="3"></rect>
            <rect id="Rectangle-2-Copy-11" x="224" y="0" width="3" height="3"></rect>
            <rect id="Rectangle-2-Copy-12" x="244" y="0" width="3" height="3"></rect>
            <rect id="Rectangle-2-Copy-13" x="265" y="0" width="3" height="3"></rect>
            <rect id="Rectangle-2-Copy-14" x="285" y="0" width="3" height="3"></rect>
            <rect id="Rectangle-2-Copy-15" x="305" y="0" width="3" height="3"></rect>
            <rect id="Rectangle-2-Copy-16" x="325" y="0" width="3" height="3"></rect>
            <rect id="Rectangle-2-Copy-17" x="346" y="0" width="3" height="3"></rect>
            <rect id="Rectangle-2-Copy-18" x="366" y="0" width="3" height="3"></rect>
            <rect id="Rectangle-2-Copy-19" x="386" y="0" width="3" height="3"></rect>
            <rect id="Rectangle-2-Copy-20" x="407" y="0" width="3" height="3"></rect>
            <rect id="Rectangle-2-Copy-21" x="427" y="0" width="3" height="3"></rect>
            <rect id="Rectangle-2-Copy-22" x="447" y="0" width="3" height="3"></rect>
            <rect id="Rectangle-2-Copy-23" x="467" y="0" width="3" height="3"></rect>
            <rect id="Rectangle-2-Copy-24" x="488" y="0" width="3" height="3"></rect>
            <rect id="Rectangle-2-Copy-25" x="508" y="0" width="3" height="3"></rect>
            <rect id="Rectangle-2" x="0" y="19" width="3" height="3"></rect>
            <rect id="Rectangle-2-Copy" x="20" y="19" width="3" height="3"></rect>
            <rect id="Rectangle-2-Copy-2" x="41" y="19" width="3" height="3"></rect>
            <rect id="Rectangle-2-Copy-3" x="61" y="19" width="3" height="3"></rect>
            <rect id="Rectangle-2-Copy-4" x="81" y="19" width="3" height="3"></rect>
            <rect id="Rectangle-2-Copy-5" x="101" y="19" width="3" height="3"></rect>
            <rect id="Rectangle-2-Copy-6" x="122" y="19" width="3" height="3"></rect>
            <rect id="Rectangle-2-Copy-7" x="142" y="19" width="3" height="3"></rect>
            <rect id="Rectangle-2-Copy-8" x="162" y="19" width="3" height="3"></rect>
            <rect id="Rectangle-2-Copy-9" x="183" y="19" width="3" height="3"></rect>
            <rect id="Rectangle-2-Copy-10" x="203" y="19" width="3" height="3"></rect>
            <rect id="Rectangle-2-Copy-11" x="223" y="19" width="3" height="3"></rect>
            <rect id="Rectangle-2-Copy-12" x="243" y="19" width="3" height="3"></rect>
            <rect id="Rectangle-2-Copy-13" x="264" y="19" width="3" height="3"></rect>
            <rect id="Rectangle-2-Copy-14" x="284" y="19" width="3" height="3"></rect>
            <rect id="Rectangle-2-Copy-15" x="304" y="19" width="3" height="3"></rect>
            <rect id="Rectangle-2-Copy-16" x="324" y="19" width="3" height="3"></rect>
            <rect id="Rectangle-2-Copy-17" x="345" y="19" width="3" height="3"></rect>
            <rect id="Rectangle-2-Copy-18" x="365" y="19" width="3" height="3"></rect>
            <rect id="Rectangle-2-Copy-19" x="385" y="19" width="3" height="3"></rect>
            <rect id="Rectangle-2-Copy-20" x="406" y="19" width="3" height="3"></rect>
            <rect id="Rectangle-2-Copy-21" x="426" y="19" width="3" height="3"></rect>
            <rect id="Rectangle-2-Copy-22" x="446" y="19" width="3" height="3"></rect>
            <rect id="Rectangle-2-Copy-23" x="466" y="19" width="3" height="3"></rect>
            <rect id="Rectangle-2-Copy-24" x="487" y="19" width="3" height="3"></rect>
            <rect id="Rectangle-2-Copy-25" x="507" y="19" width="3" height="3"></rect>
            <rect id="Rectangle-2" x="1" y="209" width="3" height="3"></rect>
            <rect id="Rectangle-2-Copy" x="21" y="209" width="3" height="3"></rect>
            <rect id="Rectangle-2-Copy-2" x="42" y="209" width="3" height="3"></rect>
            <rect id="Rectangle-2-Copy-3" x="62" y="209" width="3" height="3"></rect>
            <rect id="Rectangle-2-Copy-4" x="82" y="209" width="3" height="3"></rect>
            <rect id="Rectangle-2-Copy-5" x="102" y="209" width="3" height="3"></rect>
            <rect id="Rectangle-2-Copy-6" x="123" y="209" width="3" height="3"></rect>
            <rect id="Rectangle-2-Copy-7" x="143" y="209" width="3" height="3"></rect>
            <rect id="Rectangle-2-Copy-8" x="163" y="209" width="3" height="3"></rect>
            <rect id="Rectangle-2-Copy-9" x="184" y="209" width="3" height="3"></rect>
            <rect id="Rectangle-2-Copy-10" x="204" y="209" width="3" height="3"></rect>
            <rect id="Rectangle-2-Copy-11" x="224" y="209" width="3" height="3"></rect>
            <rect id="Rectangle-2-Copy-12" x="244" y="209" width="3" height="3"></rect>
            <rect id="Rectangle-2-Copy-13" x="265" y="209" width="3" height="3"></rect>
            <rect id="Rectangle-2-Copy-14" x="285" y="209" width="3" height="3"></rect>
            <rect id="Rectangle-2-Copy-15" x="305" y="209" width="3" height="3"></rect>
            <rect id="Rectangle-2-Copy-16" x="325" y="209" width="3" height="3"></rect>
            <rect id="Rectangle-2-Copy-17" x="346" y="209" width="3" height="3"></rect>
            <rect id="Rectangle-2-Copy-18" x="366" y="209" width="3" height="3"></rect>
            <rect id="Rectangle-2-Copy-19" x="386" y="209" width="3" height="3"></rect>
            <rect id="Rectangle-2-Copy-20" x="407" y="209" width="3" height="3"></rect>
            <rect id="Rectangle-2-Copy-21" x="427" y="209" width="3" height="3"></rect>
            <rect id="Rectangle-2-Copy-22" x="447" y="209" width="3" height="3"></rect>
            <rect id="Rectangle-2-Copy-23" x="467" y="209" width="3" height="3"></rect>
            <rect id="Rectangle-2-Copy-24" x="488" y="209" width="3" height="3"></rect>
            <rect id="Rectangle-2-Copy-25" x="508" y="209" width="3" height="3"></rect>
            <rect id="Rectangle-2" x="0" y="190" width="3" height="3"></rect>
            <rect id="Rectangle-2-Copy" x="20" y="190" width="3" height="3"></rect>
            <rect id="Rectangle-2-Copy-2" x="41" y="190" width="3" height="3"></rect>
            <rect id="Rectangle-2-Copy-3" x="61" y="190" width="3" height="3"></rect>
            <rect id="Rectangle-2-Copy-4" x="81" y="190" width="3" height="3"></rect>
            <rect id="Rectangle-2-Copy-5" x="101" y="190" width="3" height="3"></rect>
            <rect id="Rectangle-2-Copy-6" x="122" y="190" width="3" height="3"></rect>
            <rect id="Rectangle-2-Copy-7" x="142" y="190" width="3" height="3"></rect>
            <rect id="Rectangle-2-Copy-8" x="162" y="190" width="3" height="3"></rect>
            <rect id="Rectangle-2-Copy-9" x="183" y="190" width="3" height="3"></rect>
            <rect id="Rectangle-2-Copy-10" x="203" y="190" width="3" height="3"></rect>
            <rect id="Rectangle-2-Copy-11" x="223" y="190" width="3" height="3"></rect>
            <rect id="Rectangle-2-Copy-12" x="243" y="190" width="3" height="3"></rect>
            <rect id="Rectangle-2-Copy-13" x="264" y="190" width="3" height="3"></rect>
            <rect id="Rectangle-2-Copy-14" x="284" y="190" width="3" height="3"></rect>
            <rect id="Rectangle-2-Copy-15" x="304" y="190" width="3" height="3"></rect>
            <rect id="Rectangle-2-Copy-16" x="324" y="190" width="3" height="3"></rect>
            <rect id="Rectangle-2-Copy-17" x="345" y="190" width="3" height="3"></rect>
            <rect id="Rectangle-2-Copy-18" x="365" y="190" width="3" height="3"></rect>
            <rect id="Rectangle-2-Copy-19" x="385" y="190" width="3" height="3"></rect>
            <rect id="Rectangle-2-Copy-20" x="406" y="190" width="3" height="3"></rect>
            <rect id="Rectangle-2-Copy-21" x="426" y="190" width="3" height="3"></rect>
            <rect id="Rectangle-2-Copy-22" x="446" y="190" width="3" height="3"></rect>
            <rect id="Rectangle-2-Copy-23" x="466" y="190" width="3" height="3"></rect>
            <rect id="Rectangle-2-Copy-24" x="487" y="190" width="3" height="3"></rect>
            <rect id="Rectangle-2-Copy-25" x="507" y="190" width="3" height="3"></rect>
            <rect id="Rectangle-2" x="0" y="171" width="3" height="3"></rect>
            <rect id="Rectangle-2-Copy" x="20" y="171" width="3" height="3"></rect>
            <rect id="Rectangle-2-Copy-2" x="41" y="171" width="3" height="3"></rect>
            <rect id="Rectangle-2-Copy-3" x="61" y="171" width="3" height="3"></rect>
            <rect id="Rectangle-2-Copy-4" x="81" y="171" width="3" height="3"></rect>
            <rect id="Rectangle-2-Copy-5" x="101" y="171" width="3" height="3"></rect>
            <rect id="Rectangle-2-Copy-6" x="122" y="171" width="3" height="3"></rect>
            <rect id="Rectangle-2-Copy-7" x="142" y="171" width="3" height="3"></rect>
            <rect id="Rectangle-2-Copy-8" x="162" y="171" width="3" height="3"></rect>
            <rect id="Rectangle-2-Copy-9" x="183" y="171" width="3" height="3"></rect>
            <rect id="Rectangle-2-Copy-10" x="203" y="171" width="3" height="3"></rect>
            <rect id="Rectangle-2-Copy-11" x="223" y="171" width="3" height="3"></rect>
            <rect id="Rectangle-2-Copy-12" x="243" y="171" width="3" height="3"></rect>
            <rect id="Rectangle-2-Copy-13" x="264" y="171" width="3" height="3"></rect>
            <rect id="Rectangle-2-Copy-14" x="284" y="171" width="3" height="3"></rect>
            <rect id="Rectangle-2-Copy-15" x="304" y="171" width="3" height="3"></rect>
            <rect id="Rectangle-2-Copy-16" x="324" y="171" width="3" height="3"></rect>
            <rect id="Rectangle-2-Copy-17" x="345" y="171" width="3" height="3"></rect>
            <rect id="Rectangle-2-Copy-18" x="365" y="171" width="3" height="3"></rect>
            <rect id="Rectangle-2-Copy-19" x="385" y="171" width="3" height="3"></rect>
            <rect id="Rectangle-2-Copy-20" x="406" y="171" width="3" height="3"></rect>
            <rect id="Rectangle-2-Copy-21" x="426" y="171" width="3" height="3"></rect>
            <rect id="Rectangle-2-Copy-22" x="446" y="171" width="3" height="3"></rect>
            <rect id="Rectangle-2-Copy-23" x="466" y="171" width="3" height="3"></rect>
            <rect id="Rectangle-2-Copy-24" x="487" y="171" width="3" height="3"></rect>
            <rect id="Rectangle-2-Copy-25" x="507" y="171" width="3" height="3"></rect>
            <rect id="Rectangle-2" x="0" y="152" width="3" height="3"></rect>
            <rect id="Rectangle-2-Copy" x="20" y="152" width="3" height="3"></rect>
            <rect id="Rectangle-2-Copy-2" x="41" y="152" width="3" height="3"></rect>
            <rect id="Rectangle-2-Copy-3" x="61" y="152" width="3" height="3"></rect>
            <rect id="Rectangle-2-Copy-4" x="81" y="152" width="3" height="3"></rect>
            <rect id="Rectangle-2-Copy-5" x="101" y="152" width="3" height="3"></rect>
            <rect id="Rectangle-2-Copy-6" x="122" y="152" width="3" height="3"></rect>
            <rect id="Rectangle-2-Copy-7" x="142" y="152" width="3" height="3"></rect>
            <rect id="Rectangle-2-Copy-8" x="162" y="152" width="3" height="3"></rect>
            <rect id="Rectangle-2-Copy-9" x="183" y="152" width="3" height="3"></rect>
            <rect id="Rectangle-2-Copy-10" x="203" y="152" width="3" height="3"></rect>
            <rect id="Rectangle-2-Copy-11" x="223" y="152" width="3" height="3"></rect>
            <rect id="Rectangle-2-Copy-12" x="243" y="152" width="3" height="3"></rect>
            <rect id="Rectangle-2-Copy-13" x="264" y="152" width="3" height="3"></rect>
            <rect id="Rectangle-2-Copy-14" x="284" y="152" width="3" height="3"></rect>
            <rect id="Rectangle-2-Copy-15" x="304" y="152" width="3" height="3"></rect>
            <rect id="Rectangle-2-Copy-16" x="324" y="152" width="3" height="3"></rect>
            <rect id="Rectangle-2-Copy-17" x="345" y="152" width="3" height="3"></rect>
            <rect id="Rectangle-2-Copy-18" x="365" y="152" width="3" height="3"></rect>
            <rect id="Rectangle-2-Copy-19" x="385" y="152" width="3" height="3"></rect>
            <rect id="Rectangle-2-Copy-20" x="406" y="152" width="3" height="3"></rect>
            <rect id="Rectangle-2-Copy-21" x="426" y="152" width="3" height="3"></rect>
            <rect id="Rectangle-2-Copy-22" x="446" y="152" width="3" height="3"></rect>
            <rect id="Rectangle-2-Copy-23" x="466" y="152" width="3" height="3"></rect>
            <rect id="Rectangle-2-Copy-24" x="487" y="152" width="3" height="3"></rect>
            <rect id="Rectangle-2-Copy-25" x="507" y="152" width="3" height="3"></rect>
            <rect id="Rectangle-2" x="0" y="133" width="3" height="3"></rect>
            <rect id="Rectangle-2-Copy" x="20" y="133" width="3" height="3"></rect>
            <rect id="Rectangle-2-Copy-2" x="41" y="133" width="3" height="3"></rect>
            <rect id="Rectangle-2-Copy-3" x="61" y="133" width="3" height="3"></rect>
            <rect id="Rectangle-2-Copy-4" x="81" y="133" width="3" height="3"></rect>
            <rect id="Rectangle-2-Copy-5" x="101" y="133" width="3" height="3"></rect>
            <rect id="Rectangle-2-Copy-6" x="122" y="133" width="3" height="3"></rect>
            <rect id="Rectangle-2-Copy-7" x="142" y="133" width="3" height="3"></rect>
            <rect id="Rectangle-2-Copy-8" x="162" y="133" width="3" height="3"></rect>
            <rect id="Rectangle-2-Copy-9" x="183" y="133" width="3" height="3"></rect>
            <rect id="Rectangle-2-Copy-10" x="203" y="133" width="3" height="3"></rect>
            <rect id="Rectangle-2-Copy-11" x="223" y="133" width="3" height="3"></rect>
            <rect id="Rectangle-2-Copy-12" x="243" y="133" width="3" height="3"></rect>
            <rect id="Rectangle-2-Copy-13" x="264" y="133" width="3" height="3"></rect>
            <rect id="Rectangle-2-Copy-14" x="284" y="133" width="3" height="3"></rect>
            <rect id="Rectangle-2-Copy-15" x="304" y="133" width="3" height="3"></rect>
            <rect id="Rectangle-2-Copy-16" x="324" y="133" width="3" height="3"></rect>
            <rect id="Rectangle-2-Copy-17" x="345" y="133" width="3" height="3"></rect>
            <rect id="Rectangle-2-Copy-18" x="365" y="133" width="3" height="3"></rect>
            <rect id="Rectangle-2-Copy-19" x="385" y="133" width="3" height="3"></rect>
            <rect id="Rectangle-2-Copy-20" x="406" y="133" width="3" height="3"></rect>
            <rect id="Rectangle-2-Copy-21" x="426" y="133" width="3" height="3"></rect>
            <rect id="Rectangle-2-Copy-22" x="446" y="133" width="3" height="3"></rect>
            <rect id="Rectangle-2-Copy-23" x="466" y="133" width="3" height="3"></rect>
            <rect id="Rectangle-2-Copy-24" x="487" y="133" width="3" height="3"></rect>
            <rect id="Rectangle-2-Copy-25" x="507" y="133" width="3" height="3"></rect>
            <rect id="Rectangle-2" x="1" y="114" width="3" height="3"></rect>
            <rect id="Rectangle-2-Copy" x="21" y="114" width="3" height="3"></rect>
            <rect id="Rectangle-2-Copy-2" x="42" y="114" width="3" height="3"></rect>
            <rect id="Rectangle-2-Copy-3" x="62" y="114" width="3" height="3"></rect>
            <rect id="Rectangle-2-Copy-4" x="82" y="114" width="3" height="3"></rect>
            <rect id="Rectangle-2-Copy-5" x="102" y="114" width="3" height="3"></rect>
            <rect id="Rectangle-2-Copy-6" x="123" y="114" width="3" height="3"></rect>
            <rect id="Rectangle-2-Copy-7" x="143" y="114" width="3" height="3"></rect>
            <rect id="Rectangle-2-Copy-8" x="163" y="114" width="3" height="3"></rect>
            <rect id="Rectangle-2-Copy-9" x="184" y="114" width="3" height="3"></rect>
            <rect id="Rectangle-2-Copy-10" x="204" y="114" width="3" height="3"></rect>
            <rect id="Rectangle-2-Copy-11" x="224" y="114" width="3" height="3"></rect>
            <rect id="Rectangle-2-Copy-12" x="244" y="114" width="3" height="3"></rect>
            <rect id="Rectangle-2-Copy-13" x="265" y="114" width="3" height="3"></rect>
            <rect id="Rectangle-2-Copy-14" x="285" y="114" width="3" height="3"></rect>
            <rect id="Rectangle-2-Copy-15" x="305" y="114" width="3" height="3"></rect>
            <rect id="Rectangle-2-Copy-16" x="325" y="114" width="3" height="3"></rect>
            <rect id="Rectangle-2-Copy-17" x="346" y="114" width="3" height="3"></rect>
            <rect id="Rectangle-2-Copy-18" x="366" y="114" width="3" height="3"></rect>
            <rect id="Rectangle-2-Copy-19" x="386" y="114" width="3" height="3"></rect>
            <rect id="Rectangle-2-Copy-20" x="407" y="114" width="3" height="3"></rect>
            <rect id="Rectangle-2-Copy-21" x="427" y="114" width="3" height="3"></rect>
            <rect id="Rectangle-2-Copy-22" x="447" y="114" width="3" height="3"></rect>
            <rect id="Rectangle-2-Copy-23" x="467" y="114" width="3" height="3"></rect>
            <rect id="Rectangle-2-Copy-24" x="488" y="114" width="3" height="3"></rect>
            <rect id="Rectangle-2-Copy-25" x="508" y="114" width="3" height="3"></rect>
            <rect id="Rectangle-2" x="1" y="95" width="3" height="3"></rect>
            <rect id="Rectangle-2-Copy" x="21" y="95" width="3" height="3"></rect>
            <rect id="Rectangle-2-Copy-2" x="42" y="95" width="3" height="3"></rect>
            <rect id="Rectangle-2-Copy-3" x="62" y="95" width="3" height="3"></rect>
            <rect id="Rectangle-2-Copy-4" x="82" y="95" width="3" height="3"></rect>
            <rect id="Rectangle-2-Copy-5" x="102" y="95" width="3" height="3"></rect>
            <rect id="Rectangle-2-Copy-6" x="123" y="95" width="3" height="3"></rect>
            <rect id="Rectangle-2-Copy-7" x="143" y="95" width="3" height="3"></rect>
            <rect id="Rectangle-2-Copy-8" x="163" y="95" width="3" height="3"></rect>
            <rect id="Rectangle-2-Copy-9" x="184" y="95" width="3" height="3"></rect>
            <rect id="Rectangle-2-Copy-10" x="204" y="95" width="3" height="3"></rect>
            <rect id="Rectangle-2-Copy-11" x="224" y="95" width="3" height="3"></rect>
            <rect id="Rectangle-2-Copy-12" x="244" y="95" width="3" height="3"></rect>
            <rect id="Rectangle-2-Copy-13" x="265" y="95" width="3" height="3"></rect>
            <rect id="Rectangle-2-Copy-14" x="285" y="95" width="3" height="3"></rect>
            <rect id="Rectangle-2-Copy-15" x="305" y="95" width="3" height="3"></rect>
            <rect id="Rectangle-2-Copy-16" x="325" y="95" width="3" height="3"></rect>
            <rect id="Rectangle-2-Copy-17" x="346" y="95" width="3" height="3"></rect>
            <rect id="Rectangle-2-Copy-18" x="366" y="95" width="3" height="3"></rect>
            <rect id="Rectangle-2-Copy-19" x="386" y="95" width="3" height="3"></rect>
            <rect id="Rectangle-2-Copy-20" x="407" y="95" width="3" height="3"></rect>
            <rect id="Rectangle-2-Copy-21" x="427" y="95" width="3" height="3"></rect>
            <rect id="Rectangle-2-Copy-22" x="447" y="95" width="3" height="3"></rect>
            <rect id="Rectangle-2-Copy-23" x="467" y="95" width="3" height="3"></rect>
            <rect id="Rectangle-2-Copy-24" x="488" y="95" width="3" height="3"></rect>
            <rect id="Rectangle-2-Copy-25" x="508" y="95" width="3" height="3"></rect>
            <rect id="Rectangle-2" x="1" y="76" width="3" height="3"></rect>
            <rect id="Rectangle-2-Copy" x="21" y="76" width="3" height="3"></rect>
            <rect id="Rectangle-2-Copy-2" x="42" y="76" width="3" height="3"></rect>
            <rect id="Rectangle-2-Copy-3" x="62" y="76" width="3" height="3"></rect>
            <rect id="Rectangle-2-Copy-4" x="82" y="76" width="3" height="3"></rect>
            <rect id="Rectangle-2-Copy-5" x="102" y="76" width="3" height="3"></rect>
            <rect id="Rectangle-2-Copy-6" x="123" y="76" width="3" height="3"></rect>
            <rect id="Rectangle-2-Copy-7" x="143" y="76" width="3" height="3"></rect>
            <rect id="Rectangle-2-Copy-8" x="163" y="76" width="3" height="3"></rect>
            <rect id="Rectangle-2-Copy-9" x="184" y="76" width="3" height="3"></rect>
            <rect id="Rectangle-2-Copy-10" x="204" y="76" width="3" height="3"></rect>
            <rect id="Rectangle-2-Copy-11" x="224" y="76" width="3" height="3"></rect>
            <rect id="Rectangle-2-Copy-12" x="244" y="76" width="3" height="3"></rect>
            <rect id="Rectangle-2-Copy-13" x="265" y="76" width="3" height="3"></rect>
            <rect id="Rectangle-2-Copy-14" x="285" y="76" width="3" height="3"></rect>
            <rect id="Rectangle-2-Copy-15" x="305" y="76" width="3" height="3"></rect>
            <rect id="Rectangle-2-Copy-16" x="325" y="76" width="3" height="3"></rect>
            <rect id="Rectangle-2-Copy-17" x="346" y="76" width="3" height="3"></rect>
            <rect id="Rectangle-2-Copy-18" x="366" y="76" width="3" height="3"></rect>
            <rect id="Rectangle-2-Copy-19" x="386" y="76" width="3" height="3"></rect>
            <rect id="Rectangle-2-Copy-20" x="407" y="76" width="3" height="3"></rect>
            <rect id="Rectangle-2-Copy-21" x="427" y="76" width="3" height="3"></rect>
            <rect id="Rectangle-2-Copy-22" x="447" y="76" width="3" height="3"></rect>
            <rect id="Rectangle-2-Copy-23" x="467" y="76" width="3" height="3"></rect>
            <rect id="Rectangle-2-Copy-24" x="488" y="76" width="3" height="3"></rect>
            <rect id="Rectangle-2-Copy-25" x="508" y="76" width="3" height="3"></rect>
            <rect id="Rectangle-2" x="0" y="57" width="3" height="3"></rect>
            <rect id="Rectangle-2-Copy" x="20" y="57" width="3" height="3"></rect>
            <rect id="Rectangle-2-Copy-2" x="41" y="57" width="3" height="3"></rect>
            <rect id="Rectangle-2-Copy-3" x="61" y="57" width="3" height="3"></rect>
            <rect id="Rectangle-2-Copy-4" x="81" y="57" width="3" height="3"></rect>
            <rect id="Rectangle-2-Copy-5" x="101" y="57" width="3" height="3"></rect>
            <rect id="Rectangle-2-Copy-6" x="122" y="57" width="3" height="3"></rect>
            <rect id="Rectangle-2-Copy-7" x="142" y="57" width="3" height="3"></rect>
            <rect id="Rectangle-2-Copy-8" x="162" y="57" width="3" height="3"></rect>
            <rect id="Rectangle-2-Copy-9" x="183" y="57" width="3" height="3"></rect>
            <rect id="Rectangle-2-Copy-10" x="203" y="57" width="3" height="3"></rect>
            <rect id="Rectangle-2-Copy-11" x="223" y="57" width="3" height="3"></rect>
            <rect id="Rectangle-2-Copy-12" x="243" y="57" width="3" height="3"></rect>
            <rect id="Rectangle-2-Copy-13" x="264" y="57" width="3" height="3"></rect>
            <rect id="Rectangle-2-Copy-14" x="284" y="57" width="3" height="3"></rect>
            <rect id="Rectangle-2-Copy-15" x="304" y="57" width="3" height="3"></rect>
            <rect id="Rectangle-2-Copy-16" x="324" y="57" width="3" height="3"></rect>
            <rect id="Rectangle-2-Copy-17" x="345" y="57" width="3" height="3"></rect>
            <rect id="Rectangle-2-Copy-18" x="365" y="57" width="3" height="3"></rect>
            <rect id="Rectangle-2-Copy-19" x="385" y="57" width="3" height="3"></rect>
            <rect id="Rectangle-2-Copy-20" x="406" y="57" width="3" height="3"></rect>
            <rect id="Rectangle-2-Copy-21" x="426" y="57" width="3" height="3"></rect>
            <rect id="Rectangle-2-Copy-22" x="446" y="57" width="3" height="3"></rect>
            <rect id="Rectangle-2-Copy-23" x="466" y="57" width="3" height="3"></rect>
            <rect id="Rectangle-2-Copy-24" x="487" y="57" width="3" height="3"></rect>
            <rect id="Rectangle-2-Copy-25" x="507" y="57" width="3" height="3"></rect>
        </g>
    </g>
</svg>