<?xml version="1.0" encoding="UTF-8"?>
<svg width="280px" height="235px" viewBox="0 0 280 235" version="1.1" xmlns="http://www.w3.org/2000/svg" xmlns:xlink="http://www.w3.org/1999/xlink">
    <!-- Generator: Sketch 45.1 (43504) - http://www.bohemiancoding.com/sketch -->
    <title>Good web</title>
    <desc>Created with Sketch.</desc>
    <defs></defs>
    <g id="Page-1" stroke="none" stroke-width="1" fill="none" fill-rule="evenodd">
        <g id="Good-web" stroke="#000000" stroke-width="2">
            <circle id="Oval" fill="#EAEAEA" cx="243" cy="43" r="6"></circle>
            <path d="M42.5,183.5 L87.5,209.5" id="Line" stroke-linecap="square"></path>
            <path d="M105.5,215.5 L157.5,200.5" id="Line-2" stroke-linecap="square"></path>
            <path d="M115.5,121.5 L167.5,70.5" id="Line-2" stroke-linecap="square"></path>
            <path d="M185.5,58.5 L237.5,44.5" id="Line-2" stroke-linecap="square"></path>
            <path d="M230.5,139.5 L181.5,71.5" id="Line-2" stroke-linecap="square"></path>
            <path d="M186.5,150 L227.5,150" id="Line-2" stroke-linecap="square"></path>
            <path d="M171.5,201.5 L207.5,209.5" id="Line-2" stroke-linecap="square"></path>
            <path d="M44.5,94.5 L104.5,124.5" id="Line-2" stroke-linecap="square"></path>
            <path d="M81.5,81.5 L103.5,114.5" id="Line-2" stroke-linecap="square"></path>
            <path d="M123.5,41.5 L167.5,58.5" id="Line-2" stroke-linecap="square"></path>
            <path d="M168.5,13.5 L173.5,51.5" id="Line-2" stroke-linecap="square"></path>
            <path d="M106.5,134.5 L95.5,210.5" id="Line-2" stroke-linecap="square"></path>
            <circle id="Oval" fill="#EAEAEA" cx="176" cy="62" r="10"></circle>
            <circle id="Oval" fill="#246FDE" cx="237" cy="149" r="10"></circle>
            <circle id="Oval" fill="#EAEAEA" cx="38" cy="90" r="6"></circle>
            <circle id="Oval" fill="#EAEAEA" cx="38" cy="90" r="6"></circle>
            <circle id="Oval" fill="#EAEAEA" cx="79" cy="75" r="6"></circle>
            <circle id="Oval" fill="#EAEAEA" cx="215" cy="210" r="6"></circle>
            <circle id="Oval" fill="#EAEAEA" cx="182" cy="149" r="6"></circle>
            <circle id="Oval" fill="#246FDE" cx="108" cy="125" r="10"></circle>
            <circle id="Oval" fill="#246FDE" cx="162" cy="199" r="10"></circle>
            <circle id="Oval" fill="#246FDE" cx="35" cy="180" r="10"></circle>
            <circle id="Oval" fill="#EAEAEA" cx="95" cy="218" r="10"></circle>
            <circle id="Oval" fill="#246FDE" cx="168" cy="9" r="6"></circle>
            <circle id="Oval" fill="#EAEAEA" cx="119" cy="38" r="6"></circle>
        </g>
    </g>
</svg>