<svg width="467" height="375" xmlns="http://www.w3.org/2000/svg"><g fill="none" fill-rule="evenodd"><path d="M339.92 272.537c86.546-24.579 83.967-63.51 110.412-133.28 26.445-69.772 14.86-87.096 0-98.415-14.861-11.319-47.574-14.439-93.746-14.439s-72.192 7.935-121.863-5.159C185.05 8.15 157.188-13.826 132.25 11.975c-24.938 25.8 0 82.572 0 127.282 0 35.52-45.721 73.971-14.115 99.102 39.254 31.211 135.24 58.757 221.785 34.178z" fill="#EEE"/><path d="M86 286l204 84M50 270l18.494 7.615M5 222l204 84M228 315l92.468 38.075" stroke="#EEE" stroke-width="10" stroke-linecap="round"/></g></svg>