<svg width="615" height="370" xmlns="http://www.w3.org/2000/svg" xmlns:xlink="http://www.w3.org/1999/xlink"><defs><rect id="b" width="121" height="83" rx="6"/><filter x="-2.5%" y="-3.6%" width="109.9%" height="114.5%" filterUnits="objectBoundingBox" id="a"><feOffset dx="6" dy="6" in="SourceAlpha" result="shadowOffsetOuter1"/><feComposite in="shadowOffsetOuter1" in2="SourceAlpha" operator="out" result="shadowOffsetOuter1"/><feColorMatrix values="0 0 0 0 0.211764706 0 0 0 0 0.839215686 0 0 0 0 0.588235294 0 0 0 0.5 0" in="shadowOffsetOuter1"/></filter><rect id="c" x="531.572" y="138.572" width="10" height="10" rx="2"/><rect id="e" width="84.78" height="57" rx="4"/><filter x="-3.5%" y="-5.3%" width="114.2%" height="121.1%" filterUnits="objectBoundingBox" id="d"><feOffset dx="6" dy="6" in="SourceAlpha" result="shadowOffsetOuter1"/><feComposite in="shadowOffsetOuter1" in2="SourceAlpha" operator="out" result="shadowOffsetOuter1"/><feColorMatrix values="0 0 0 0 0.776470588 0 0 0 0 0.662745098 0 0 0 0 0.968627451 0 0 0 1 0" in="shadowOffsetOuter1"/></filter><rect id="g" width="96" height="114" rx="2"/><filter x="-3.1%" y="-2.6%" width="112.5%" height="110.5%" filterUnits="objectBoundingBox" id="f"><feOffset dx="6" dy="6" in="SourceAlpha" result="shadowOffsetOuter1"/><feComposite in="shadowOffsetOuter1" in2="SourceAlpha" operator="out" result="shadowOffsetOuter1"/><feColorMatrix values="0 0 0 0 0.258823529 0 0 0 0 0.392156863 0 0 0 0 0.984313725 0 0 0 0.5 0" in="shadowOffsetOuter1"/></filter></defs><g fill="none" fill-rule="evenodd"><path d="M582.99 116.228C525.802 83.52 428.685 62 318.5 62 187.607 62 75.155 92.369 26.178 135.786"/><g transform="translate(4)"><path d="M536 36v283a2 2 0 0 1-2 2H89V36" stroke="#EEE" stroke-width="2" fill-opacity=".9" fill="#FFF"/><path d="M98 0h429c5.523 0 10 4.477 10 10v27H88V10c0-5.523 4.477-10 10-10z" fill="#EEE"/><circle fill="#ED495D" cx="105.5" cy="18.5" r="5.5"/><circle fill="#FFD126" cx="121.5" cy="18.5" r="5.5"/><path d="M24.945 135.786C8.897 150.716 0 167.19 0 184.5 0 252.155 135.882 307 303.5 307S607 252.155 607 184.5c0-25.276-18.966-48.764-51.467-68.272" opacity=".3"/><circle fill="#36D696" cx="138.5" cy="18.5" r="5.5"/><rect fill="#FFF" x="170" y="9" width="325" height="18" rx="9"/><path d="M122.83 60h169.34c1.011 0 1.83.819 1.83 1.83v119.34a1.83 1.83 0 0 1-1.83 1.83H122.83a1.83 1.83 0 0 1-1.83-1.83V61.83c0-1.011.819-1.83 1.83-1.83z" stroke="#DDD" stroke-width="2.5" fill="#FFF" stroke-linecap="round" stroke-linejoin="round" stroke-dasharray="2,10,2,10"/><rect fill="#EEE" x="114" y="287" width="198" height="10" rx="2"/><rect fill="#EEE" x="114" y="240" width="246" height="10" rx="2"/><rect fill="#EEE" x="114" y="217" width="246" height="10" rx="2"/><rect fill="#EEE" x="114" y="264" width="246" height="10" rx="2"/><g transform="rotate(-5 1149.669 -5190.998)"><use fill="#000" filter="url(#a)" xlink:href="#b"/><use fill="#EAFAF4" xlink:href="#b"/><rect stroke="#36D696" stroke-width="2" x="1" y="1" width="119" height="81" rx="6"/><circle fill="#36D696" cx="60" cy="37" r="15"/><path d="M67.38 37.52l-10.232 6.32a1 1 0 0 1-1.525-.85V30.35a1 1 0 0 1 1.525-.85l10.232 6.32a1 1 0 0 1 0 1.7z" fill="#FFF"/><path d="M14.5 69.5H68" stroke="#36D696" stroke-width="4" stroke-linecap="square"/><path d="M78 69.5h28" stroke="#9AEACA" stroke-width="4" stroke-linecap="square"/></g><g transform="rotate(-7 536.572 143.572)"><use fill="#FFF" xlink:href="#c"/><rect stroke="#36D696" x="532.072" y="139.072" width="9" height="9" rx="2"/></g><g transform="rotate(3 -1547.707 569.921)"><use fill="#000" filter="url(#d)" xlink:href="#e"/><use fill="#F2EBFD" xlink:href="#e"/><rect stroke="#8D54F0" stroke-width="2" x="1" y="1" width="82.78" height="55" rx="4"/><ellipse fill="#8D54F0" cx="36.405" cy="18.5" rx="7.481" ry="7.5"/><path d="M79.383 56.55H5.363a4 4 0 0 1-4-4V40.913l12.178-11.815a5 5 0 0 1 7.319.382c8.407 10.062 13.645 15.093 15.715 15.093 2.147 0 10.012-8.972 23.594-26.916a5 5 0 0 1 7.801-.215l15.413 18.185v16.925a4 4 0 0 1-4 4z" fill="#8D54F0"/></g><g transform="rotate(5 -2686.487 1733.318)"><use fill="#000" filter="url(#f)" xlink:href="#g"/><use fill="#FFF" xlink:href="#g"/><rect stroke="#4264FB" stroke-width="2" x="1" y="1" width="94" height="112" rx="2"/><path d="M50 14h31a2 2 0 0 1 2 2v38a2 2 0 0 1-2 2H50a2 2 0 0 1-2-2V16a2 2 0 0 1 2-2z" stroke="#C6D0FD" stroke-width="1.5" stroke-linecap="round" stroke-linejoin="round" stroke-dasharray="2,5,2,5"/><rect fill-opacity=".3" fill="#4264FB" x="12" y="69" width="70" height="4" rx="1"/><rect fill-opacity=".7" fill="#4264FB" x="13" y="43" width="25" height="4" rx="1"/><rect fill-opacity=".7" fill="#4264FB" x="13" y="52" width="25" height="4" rx="1"/><rect fill-opacity=".3" fill="#4264FB" x="12" y="78" width="70" height="4" rx="1"/><rect fill-opacity=".3" fill="#4264FB" x="12" y="87" width="70" height="4" rx="1"/><rect fill-opacity=".3" fill="#4264FB" x="12" y="96" width="47" height="4" rx="1"/><path d="M23.718 18.017l5.39 9.08a2 2 0 0 1-1.72 3.021h-10.78a2 2 0 0 1-1.72-3.02l5.39-9.08a2 2 0 0 1 3.44 0z" fill="#4264FB"/></g></g></g></svg>